SplineFontDB: 3.0
FontName: Neuton-Regular
FullName: Neuton Regular
FamilyName: Neuton
Weight: Regular
Copyright: Copyright (c) 2010, Brian M Zick (http://21326.info/),\nwith Reserved Font Name "Neuton".\nThis Font Software is licensed under the SIL Open Font License, Version 1.1.\nThis license is available with a FAQ at: http://scripts.sil.org/OFL
Version: 1.3
ItalicAngle: 0
UnderlinePosition: -440
UnderlineWidth: 220
Ascent: 1638
Descent: 410
sfntRevision: 0x00014ccd
LayerCount: 2
Layer: 0 0 "Back"  1
Layer: 1 0 "Fore"  0
NeedsXUIDChange: 1
OS2Version: 0
OS2_WeightWidthSlopeOnly: 0
OS2_UseTypoMetrics: 0
CreationTime: 1300472635
ModificationTime: 1300492797
PfmFamily: 0
TTFWeight: 400
TTFWidth: 5
LineGap: 0
VLineGap: 0
OS2TypoAscent: 0
OS2TypoAOffset: 1
OS2TypoDescent: 0
OS2TypoDOffset: 1
OS2TypoLinegap: 0
OS2WinAscent: 2269
OS2WinAOffset: 0
OS2WinDescent: -508
OS2WinDOffset: 0
HheadAscent: 0
HheadAOffset: 1
HheadDescent: 0
HheadDOffset: 1
OS2Vendor: 'PfEd'
MarkAttachClasses: 1
DEI: 91125
LangName: 1033 "" "" "" "" "" "" "" "" "" "Brian M Zick" "" "" "http://21326.info/" "Copyright (c) 2011, Brian (http://21326.info/),+AAoA-with Reserved Font Name +ACIA-Neuton+ACIA.+AAoACgAA-This Font Software is licensed under the SIL Open Font License, Version 1.1.+AAoA-This license is copied below, and is also available with a FAQ at:+AAoA-http://scripts.sil.org/OFL" "http://scripts.sil.org/OFL" 
Encoding: Custom
Compacted: 1
UnicodeInterp: none
NameList: Adobe Glyph List
DisplaySize: -24
AntiAlias: 1
FitToEm: 1
WinInfo: 0 16 4
BeginPrivate: 10
BlueFuzz 1 1
BlueValues 37 [-32 0 1064 1098 1452 1472 1512 1548]
OtherBlues 11 [-466 -454]
StemSnapH 47 [92 98 106 112 124 131 135 149 161 165 169 185]
StemSnapV 29 [179 203 207 211 217 221 227]
BlueScale 6 0.0275
BlueShift 1 7
ExpansionFactor 4 0.06
ForceBold 5 false
LanguageGroup 1 0
EndPrivate
BeginChars: 663 407

StartChar: .notdef
Encoding: 256 -1 0
Width: 748
VWidth: 0
Flags: HW
HStem: 0 68<136 544> 1297 68<136 544>
VStem: 68 68<68 1297> 544 68<68 1297>
LayerCount: 2
Fore
SplineSet
68 0 m 1
 68 1365 l 1
 612 1365 l 1
 612 0 l 1
 68 0 l 1
136 68 m 1
 544 68 l 1
 544 1297 l 1
 136 1297 l 1
 136 68 l 1
EndSplineSet
Validated: 1
EndChar

StartChar: A
Encoding: 257 65 1
Width: 1554
VWidth: 0
Flags: HW
HStem: 0 98<558.863 572 930 952.337 1532.04 1542> 526 123<542 970> 1522 20G<814.632 918.801>
DStem2: 195 157 359 151 0.367339 0.930087<54.6632 453.771 585.07 979.094> 727 1504 767 1257 0.367339 0.930087<-1390.94 -994.48 -863.182 -215.038> 912 1542 767 1257 0.321939 -0.94676<223.145 864.129 992.171 1384.02>
LayerCount: 2
Fore
SplineSet
912 1542 m 1
 1385 151 l 1
 1552 98 l 1
 1542 0 l 1
 916 0 l 1
 930 90 l 1
 1138 157 l 1
 1006 526 l 1
 496 526 l 1
 359 151 l 1
 586 98 l 1
 572 0 l 1
 2 0 l 1
 14 90 l 1
 195 157 l 1
 727 1504 l 1
 912 1542 l 1
542 649 m 1
 970 649 l 1
 767 1257 l 1
 542 649 l 1
EndSplineSet
Validated: 1
EndChar

StartChar: AE
Encoding: 258 198 2
Width: 2058
VWidth: 0
Flags: HW
HStem: 0 147<997.95 1052> 0 116<1273 1837> 0 90<526.345 564 849 899.05> 574 117<679 1052> 713 114<1273 1568> 1401 111<1273 1805>
VStem: 1052 221<147 574 691 713 827 1287> 1608 105<516 575.056> 1855 105<1144 1217.69>
DStem2: 186 159 351 153 0.53953 0.841966<83.9707 580.335 713.914 950.639 1083.58 1418.05>
LayerCount: 2
Fore
SplineSet
1054 1287 m 1x1f80
 679 691 l 1
 1052 691 l 1
 1054 1287 l 1x1f80
1052 574 m 1
 614 574 l 1
 351 153 l 1
 578 100 l 1
 564 2 l 1
 9 2 l 1
 21 92 l 1
 186 159 l 1
 1053 1512 l 1
 1998 1512 l 1
 1960 1128 l 1
 1855 1144 l 1
 1805 1401 l 1
 1273 1401 l 1
 1273 827 l 1
 1586 827 l 1
 1638 976 l 1
 1753 984 l 1
 1713 516 l 1
 1608 498 l 1
 1568 713 l 1
 1273 713 l 1
 1273 116 l 1
 1837 116 l 1x5f80
 1958 400 l 1
 2056 381 l 1
 2020 0 l 1x3f80
 1440 0 l 1x5f80
 904 0 l 1
 839 0 l 1
 849 90 l 1x3f80
 1048 147 l 1
 1052 147 l 1x9f80
 1052 574 l 1
EndSplineSet
Validated: 1
EndChar

StartChar: Aacute
Encoding: 259 193 3
Width: 1554
VWidth: 0
Flags: HW
HStem: 0 98<558.863 572 930 952.337 1532.04 1542> 526 123<542 970> 1522 20G<814.632 918.801>
DStem2: 195 157 359 151 0.351923 0.936029<52.0993 451.324 582.644 1230.93> 912 1542 767 1257 0.321939 -0.94676<223.145 864.129 992.171 1384.02>
LayerCount: 2
Fore
SplineSet
1054 2032 m 1
 831 1646 l 1
 769 1685 l 1
 918 2080 l 1
 1054 2032 l 1
912 1542 m 1
 1385 151 l 1
 1552 98 l 1
 1542 0 l 1
 916 0 l 1
 930 90 l 1
 1138 157 l 1
 1006 526 l 1
 496 526 l 1
 359 151 l 1
 586 98 l 1
 572 0 l 1
 2 0 l 1
 14 90 l 1
 195 157 l 1
 727 1504 l 1
 912 1542 l 1
542 649 m 1
 970 649 l 1
 767 1257 l 1
 542 649 l 1
EndSplineSet
Validated: 1
EndChar

StartChar: Abreve
Encoding: 260 258 4
Width: 1554
VWidth: 0
Flags: HW
HStem: 0 98<558.863 572 930 952.337 1532.04 1542> 526 123<542 970> 1522 20G<814.632 918.801> 1677 132<709.148 947.971>
VStem: 597 66<1866.07 1902.98>
DStem2: 195 157 359 151 0.367339 0.930087<54.6632 453.771 585.07 979.094> 727 1504 767 1257 0.367339 0.930087<-1390.94 -994.48 -863.182 -215.038> 912 1542 767 1257 0.321939 -0.94676<223.145 864.129 992.171 1384.02>
LayerCount: 2
Fore
SplineSet
597 1893 m 1
 653 1932 l 1
 663 1911 l 1
 687 1863 745 1809 827 1809 c 0
 913 1809 968 1861 1000 1913 c 1
 1012 1934 l 1
 1062 1899 l 1
 1054 1875 l 2
 1021 1777 947 1677 827 1677 c 0
 698 1677 627 1775 603 1869 c 2
 597 1893 l 1
912 1542 m 1
 1385 151 l 1
 1552 98 l 1
 1542 0 l 1
 916 0 l 1
 930 90 l 1
 1138 157 l 1
 1006 526 l 1
 496 526 l 1
 359 151 l 1
 586 98 l 1
 572 0 l 1
 2 0 l 1
 14 90 l 1
 195 157 l 1
 727 1504 l 1
 912 1542 l 1
542 649 m 1
 970 649 l 1
 767 1257 l 1
 542 649 l 1
EndSplineSet
Validated: 1
EndChar

StartChar: Acaron
Encoding: 261 461 5
Width: 1554
VWidth: 0
Flags: HW
HStem: 0 98<558.863 572 930 952.337 1532.04 1542> 526 123<542 970> 1522 20G<814.632 918.801>
DStem2: 195 157 359 151 0.367339 0.930087<54.6632 453.771 585.07 979.094> 667 1932 569 1857 0.735191 -0.67786<0 251.695> 727 1504 767 1257 0.367339 0.930087<-1390.94 -994.48 -863.182 -215.038> 912 1542 767 1257 0.321939 -0.94676<223.145 864.129 992.171 1384.02> 860 1757 854 1673 0.692049 0.72185<0 227.244>
LayerCount: 2
Fore
SplineSet
787 1656 m 1
 569 1857 l 1
 667 1932 l 1
 848 1757 l 1
 860 1757 l 1
 1010 1928 l 1
 1063 1891 l 1
 854 1673 l 1
 787 1656 l 1
912 1542 m 1
 1385 151 l 1
 1552 98 l 1
 1542 0 l 1
 916 0 l 1
 930 90 l 1
 1138 157 l 1
 1006 526 l 1
 496 526 l 1
 359 151 l 1
 586 98 l 1
 572 0 l 1
 2 0 l 1
 14 90 l 1
 195 157 l 1
 727 1504 l 1
 912 1542 l 1
542 649 m 1
 970 649 l 1
 767 1257 l 1
 542 649 l 1
EndSplineSet
Validated: 1
EndChar

StartChar: Acircumflex
Encoding: 262 194 6
Width: 1554
VWidth: 0
Flags: HW
HStem: 0 98<558.863 572 930 952.337 1532.04 1542> 526 123<542 970> 1522 20G<814.632 918.801>
DStem2: 195 157 359 151 0.367339 0.930087<54.6632 453.771 585.07 979.094> 727 1504 767 1257 0.367339 0.930087<-1390.94 -994.48 -863.182 -215.038> 912 1542 767 1257 0.321939 -0.94676<223.145 864.129 992.171 1384.02>
LayerCount: 2
Fore
SplineSet
858 1928 m 1
 1074 1703 l 1
 1014 1658 l 1
 815 1791 l 1
 803 1791 l 1
 633 1656 l 1
 587 1693 l 1
 791 1911 l 1
 858 1928 l 1
912 1542 m 1
 1385 151 l 1
 1552 98 l 1
 1542 0 l 1
 916 0 l 1
 930 90 l 1
 1138 157 l 1
 1006 526 l 1
 496 526 l 1
 359 151 l 1
 586 98 l 1
 572 0 l 1
 2 0 l 1
 14 90 l 1
 195 157 l 1
 727 1504 l 1
 912 1542 l 1
542 649 m 1
 970 649 l 1
 767 1257 l 1
 542 649 l 1
EndSplineSet
Validated: 1
EndChar

StartChar: Adieresis
Encoding: 263 196 7
Width: 1554
VWidth: 0
Flags: HW
HStem: 0 98<558.863 572 930 952.337 1532.04 1542> 526 123<542 970> 1522 20G<814.632 918.801> 1669 192<577.24 751.144 902.24 1078.32>
VStem: 561 206<1686.74 1843.53> 886 209<1688.09 1842.21>
DStem2: 195 157 359 151 0.367339 0.930087<54.6632 453.771 585.07 979.094> 727 1504 767 1257 0.367339 0.930087<-1390.94 -994.48 -863.182 -215.038> 912 1542 767 1257 0.321939 -0.94676<223.145 864.129 992.171 1384.02>
LayerCount: 2
Fore
SplineSet
988 1861 m 0
 1042 1861 1095 1823 1095 1767 c 0
 1095 1707 1042 1669 988 1669 c 0
 936 1669 886 1707 886 1767 c 0
 886 1825 938 1861 988 1861 c 0
663 1861 m 0
 717 1861 767 1823 767 1767 c 0
 767 1707 717 1669 663 1669 c 0
 611 1669 561 1707 561 1767 c 0
 561 1825 613 1861 663 1861 c 0
912 1542 m 1
 1385 151 l 1
 1552 98 l 1
 1542 0 l 1
 916 0 l 1
 930 90 l 1
 1138 157 l 1
 1006 526 l 1
 496 526 l 1
 359 151 l 1
 586 98 l 1
 572 0 l 1
 2 0 l 1
 14 90 l 1
 195 157 l 1
 727 1504 l 1
 912 1542 l 1
542 649 m 1
 970 649 l 1
 767 1257 l 1
 542 649 l 1
EndSplineSet
Validated: 1
EndChar

StartChar: Agrave
Encoding: 264 192 8
Width: 1554
VWidth: 0
Flags: HW
HStem: 0 98<558.863 572 930 952.337 1532.04 1542> 526 123<542 970> 1522 20G<814.632 918.801>
DStem2: 195 157 359 151 0.367339 0.930087<54.6632 453.771 585.07 979.094> 727 1504 767 1257 0.367339 0.930087<-1390.94 -994.48 -863.182 -215.038> 912 1542 767 1257 0.319585 -0.947558<223.714 864.705 992.759 1384.59>
LayerCount: 2
Fore
SplineSet
579 2024 m 1
 719 2070 l 1
 880 1664 l 1
 810 1622 l 1
 579 2024 l 1
912 1542 m 1
 1385 151 l 1
 1552 98 l 1
 1542 0 l 1
 916 0 l 1
 930 90 l 1
 1138 157 l 1
 1006 526 l 1
 496 526 l 1
 359 151 l 1
 586 98 l 1
 572 0 l 1
 2 0 l 1
 14 90 l 1
 195 157 l 1
 727 1504 l 1
 912 1542 l 1
542 649 m 1
 970 649 l 1
 767 1257 l 1
 542 649 l 1
EndSplineSet
Validated: 1
EndChar

StartChar: Amacron
Encoding: 265 256 9
Width: 1554
VWidth: 0
Flags: HW
HStem: 0 98<558.863 572 930 952.337 1532.04 1542> 526 123<542 970> 1522 20G<814.632 918.801> 1683 122<569 1089>
DStem2: 195 157 359 151 0.367339 0.930087<54.6632 453.771 585.07 979.094> 727 1504 767 1257 0.367339 0.930087<-1390.94 -994.48 -863.182 -215.038> 912 1542 767 1257 0.321939 -0.94676<223.145 864.129 992.171 1384.02>
LayerCount: 2
Fore
SplineSet
569 1805 m 1
 1105 1805 l 1
 1089 1683 l 1
 553 1683 l 1
 569 1805 l 1
912 1542 m 1
 1385 151 l 1
 1552 98 l 1
 1542 0 l 1
 916 0 l 1
 930 90 l 1
 1138 157 l 1
 1006 526 l 1
 496 526 l 1
 359 151 l 1
 586 98 l 1
 572 0 l 1
 2 0 l 1
 14 90 l 1
 195 157 l 1
 727 1504 l 1
 912 1542 l 1
542 649 m 1
 970 649 l 1
 767 1257 l 1
 542 649 l 1
EndSplineSet
Validated: 1
EndChar

StartChar: Aogonek
Encoding: 266 260 10
Width: 1554
VWidth: 0
Flags: HW
HStem: -470 62<1477.61 1487.71> 0 98<558.863 572 930 952.337 1532.04 1542> 526 123<542 970> 1522 20G<814.632 918.801>
VStem: 1189 180<-314.166 -126.165>
DStem2: 195 157 359 151 0.367339 0.930087<54.6632 453.771 585.07 979.094> 727 1504 767 1257 0.367339 0.930087<-1390.94 -994.48 -863.182 -215.038> 912 1542 767 1257 0.321939 -0.94676<223.145 864.129 992.171 1384.02>
LayerCount: 2
Fore
SplineSet
1369 -181 m 0
 1369 -257 1410 -344 1520 -408 c 1
 1478 -470 l 1
 1303 -452 1189 -357 1189 -253 c 0
 1189 -190 1209 -126 1352 0 c 1
 916 0 l 1
 930 90 l 1
 1138 157 l 1
 1006 526 l 1
 496 526 l 1
 359 151 l 1
 586 98 l 1
 572 0 l 1
 2 0 l 1
 14 90 l 1
 195 157 l 1
 727 1504 l 1
 912 1542 l 1
 1385 151 l 1
 1552 98 l 1
 1542 0 l 1
 1442 -0 l 1
 1372 -115 1369 -159 1369 -181 c 0
542 649 m 1
 970 649 l 1
 767 1257 l 1
 542 649 l 1
EndSplineSet
Validated: 1
EndChar

StartChar: Aring
Encoding: 267 197 11
Width: 1554
VWidth: 0
Flags: HW
HStem: 0 98<558.863 572 930 952.337 1532.04 1542> 526 123<542 970> 1522 20G<814.632 918.801> 1662 59<766.478 905.23> 2014 58<756.745 891.974>
VStem: 633 86<1753.09 1987.58> 940 86<1744.95 1979.92>
DStem2: 195 157 359 151 0.367339 0.930087<54.6632 453.771 585.07 979.094> 727 1504 767 1257 0.367339 0.930087<-1390.94 -994.48 -863.182 -215.038> 912 1542 767 1257 0.321939 -0.94676<223.145 864.129 992.171 1384.02>
LayerCount: 2
Fore
SplineSet
823 2014 m 0
 751 2014 719 1945 719 1877 c 0
 719 1803 757 1721 835 1721 c 0
 901 1721 940 1771 940 1859 c 0
 940 1935 899 2014 823 2014 c 0
837 2072 m 0
 953 2072 1026 1989 1026 1875 c 0
 1026 1765 945 1662 821 1662 c 0
 709 1662 633 1739 633 1863 c 0
 633 1975 723 2072 837 2072 c 0
912 1542 m 1
 1385 151 l 1
 1552 98 l 1
 1542 0 l 1
 916 0 l 1
 930 90 l 1
 1138 157 l 1
 1006 526 l 1
 496 526 l 1
 359 151 l 1
 586 98 l 1
 572 0 l 1
 2 0 l 1
 14 90 l 1
 195 157 l 1
 727 1504 l 1
 912 1542 l 1
542 649 m 1
 970 649 l 1
 767 1257 l 1
 542 649 l 1
EndSplineSet
Validated: 1
EndChar

StartChar: Atilde
Encoding: 268 195 12
Width: 1554
VWidth: 0
Flags: HW
HStem: 0 98<558.863 572 930 952.337 1532.04 1542> 526 123<542 970> 1522 20G<814.632 918.801> 1692 127<870.082 1041.08> 1731 125<605.662 767.238>
DStem2: 195 157 359 151 0.367339 0.930087<54.6632 453.771 585.07 979.094> 707 1855 665 1731 0.990312 -0.138863<-15.751 264.039> 727 1504 767 1257 0.367339 0.930087<-1390.94 -994.48 -863.182 -215.038> 912 1542 767 1257 0.321939 -0.94676<223.145 864.129 992.171 1384.02>
LayerCount: 2
Fore
SplineSet
543 1683 m 1xe8
 543 1683 583 1856 691 1856 c 0xe8
 696 1856 702 1856 707 1855 c 2
 978 1819 l 1
 983 1819 l 2
 1014 1819 1051 1869 1051 1869 c 1
 1109 1867 l 1
 1109 1867 1064 1692 951 1692 c 0xf0
 946 1692 941 1692 936 1693 c 2
 665 1731 l 1
 662 1731 l 2
 627 1731 589 1673 589 1673 c 1
 543 1683 l 1xe8
912 1542 m 1
 1385 151 l 1
 1552 98 l 1
 1542 0 l 1
 916 0 l 1
 930 90 l 1
 1138 157 l 1
 1006 526 l 1
 496 526 l 1
 359 151 l 1
 586 98 l 1
 572 0 l 1
 2 0 l 1
 14 90 l 1
 195 157 l 1
 727 1504 l 1
 912 1542 l 1
542 649 m 1
 970 649 l 1
 767 1257 l 1
 542 649 l 1
EndSplineSet
Validated: 1
EndChar

StartChar: B
Encoding: 269 66 13
Width: 1371
VWidth: 0
Flags: HW
HStem: 0 116<478 915.957> 0 90<40 91.5593> 735 102<478 857.349> 1379 93<48 119.228> 1424 104<483.548 792.494>
VStem: 245 233<147 735 837 1343> 950 229<996.84 1277.45> 1066 239<270.881 585.407>
LayerCount: 2
Fore
SplineSet
749 735 m 2xa5
 478 735 l 1
 478 116 l 1
 745 116 l 2
 956 116 1066 265 1066 422 c 0
 1066 573 962 735 749 735 c 2xa5
928 827 m 1
 928 817 l 1
 1177 803 1305 623 1305 462 c 0
 1305 233 1147 0 657 0 c 2xad
 28 0 l 1
 40 90 l 1
 245 147 l 1
 245 1343 l 1
 36 1379 l 1
 48 1472 l 1x75
 225 1498 432 1528 647 1528 c 0
 1024 1528 1179 1358 1179 1175 c 0x2e
 1179 1049 1119 897 928 827 c 1
478 1416 m 1
 478 837 l 1
 791 837 l 1
 895 881 950 967 950 1106 c 0x2e
 950 1257 869 1424 574 1424 c 0
 544 1424 510 1422 478 1416 c 1
EndSplineSet
Validated: 1
EndChar

StartChar: C
Encoding: 270 67 14
Width: 1351
VWidth: 0
Flags: HW
HStem: -30 165<669.948 1022.61> 1428 116<600.862 984.17>
VStem: 60 261<527.056 993.244> 1138 107<1034 1110.55>
LayerCount: 2
Fore
SplineSet
321 801 m 0
 321 365 584 135 873 135 c 0
 1036 135 1193 221 1297 317 c 1
 1341 225 l 1
 1245 109 1032 -30 779 -30 c 0
 406 -30 60 231 60 717 c 0
 60 1076 287 1544 843 1544 c 0
 1004 1544 1167 1510 1283 1422 c 1
 1245 1018 l 1
 1138 1034 l 1
 1088 1301 l 1
 1032 1373 930 1428 773 1428 c 0
 520 1428 321 1193 321 801 c 0
EndSplineSet
Validated: 1
EndChar

StartChar: Cacute
Encoding: 271 262 15
Width: 1351
VWidth: 0
Flags: HW
HStem: -30 165<669.948 1022.61> 1428 116<600.862 984.17>
VStem: 60 261<527.056 993.244> 1138 107<1034 1110.55>
LayerCount: 2
Fore
SplineSet
1006 2032 m 1
 783 1646 l 1
 721 1685 l 1
 870 2080 l 1
 1006 2032 l 1
321 801 m 0
 321 365 584 135 873 135 c 0
 1036 135 1193 221 1297 317 c 1
 1341 225 l 1
 1245 109 1032 -30 779 -30 c 0
 406 -30 60 231 60 717 c 0
 60 1076 287 1544 843 1544 c 0
 1004 1544 1167 1510 1283 1422 c 1
 1245 1018 l 1
 1138 1034 l 1
 1088 1301 l 1
 1032 1373 930 1428 773 1428 c 0
 520 1428 321 1193 321 801 c 0
EndSplineSet
Validated: 1
EndChar

StartChar: Ccaron
Encoding: 272 268 16
Width: 1351
VWidth: 0
Flags: HW
HStem: -30 165<669.948 1022.61> 1428 116<600.862 984.17>
VStem: 60 261<527.056 993.244> 1138 107<1034 1110.55>
DStem2: 659 1932 561 1857 0.735191 -0.67786<0 251.695> 852 1757 846 1673 0.692049 0.72185<0 227.244>
LayerCount: 2
Fore
SplineSet
779 1656 m 1
 561 1857 l 1
 659 1932 l 1
 840 1757 l 1
 852 1757 l 1
 1002 1928 l 1
 1055 1891 l 1
 846 1673 l 1
 779 1656 l 1
321 801 m 0
 321 365 584 135 873 135 c 0
 1036 135 1193 221 1297 317 c 1
 1341 225 l 1
 1245 109 1032 -30 779 -30 c 0
 406 -30 60 231 60 717 c 0
 60 1076 287 1544 843 1544 c 0
 1004 1544 1167 1510 1283 1422 c 1
 1245 1018 l 1
 1138 1034 l 1
 1088 1301 l 1
 1032 1373 930 1428 773 1428 c 0
 520 1428 321 1193 321 801 c 0
EndSplineSet
Validated: 1
EndChar

StartChar: Ccedilla
Encoding: 273 199 17
Width: 1351
VWidth: 0
Flags: HW
HStem: -30 165<675.068 793> 1428 116<600.862 984.17>
VStem: 60 261<527.056 993.244> 787 162<-369.819 -214.37> 1138 107<1034 1110.55>
LayerCount: 2
Fore
SplineSet
841 -92 m 1
 887 -132 949 -193 949 -275 c 0
 949 -371 847 -432 706 -474 c 1
 682 -402 l 1
 752 -378 787 -337 787 -301 c 0
 787 -259 742 -209 698 -167 c 1
 793 -30 l 1
 779 -30 l 2
 406 -30 60 231 60 717 c 0
 60 1076 287 1544 843 1544 c 0
 1004 1544 1167 1510 1283 1422 c 1
 1245 1018 l 1
 1138 1034 l 1
 1088 1301 l 1
 1032 1373 930 1428 773 1428 c 0
 520 1428 321 1193 321 801 c 0
 321 365 584 135 873 135 c 0
 1036 135 1193 221 1297 317 c 1
 1341 225 l 1
 1259 126 1093 11 890 -21 c 1
 841 -92 l 1
EndSplineSet
Validated: 1
EndChar

StartChar: Cdotaccent
Encoding: 274 266 18
Width: 1351
VWidth: 0
Flags: HW
HStem: -30 165<669.948 1022.61> 1428 116<600.862 984.17> 1648 288<739.5 944.5>
VStem: 60 261<527.056 993.244> 696 293<1692.75 1894.42> 1138 107<1034 1110.55>
LayerCount: 2
Fore
SplineSet
840 1936 m 0
 920 1936 989 1875 989 1797 c 0
 989 1715 920 1648 840 1648 c 0
 760 1648 696 1717 696 1799 c 0
 696 1877 764 1936 840 1936 c 0
321 801 m 0
 321 365 584 135 873 135 c 0
 1036 135 1193 221 1297 317 c 1
 1341 225 l 1
 1245 109 1032 -30 779 -30 c 0
 406 -30 60 231 60 717 c 0
 60 1076 287 1544 843 1544 c 0
 1004 1544 1167 1510 1283 1422 c 1
 1245 1018 l 1
 1138 1034 l 1
 1088 1301 l 1
 1032 1373 930 1428 773 1428 c 0
 520 1428 321 1193 321 801 c 0
EndSplineSet
Validated: 1
EndChar

StartChar: D
Encoding: 275 68 19
Width: 1610
VWidth: 0
Flags: HW
HStem: 0 126<480 914.765> 0 90<38 82.7198> 1377 93<48 121.228> 1405 125<485.421 884.466>
VStem: 247 233<157 1341> 1293 257<533.906 996.189>
LayerCount: 2
Fore
SplineSet
480 1399 m 1x9c
 480 126 l 1
 657 126 l 2
 1089 126 1293 402 1293 727 c 0
 1293 1100 1076 1405 628 1405 c 0
 578 1405 530 1405 480 1399 c 1x9c
1550 795 m 0
 1550 379 1244 0 622 0 c 2x9c
 22 0 l 1
 38 90 l 1
 247 157 l 1
 247 1341 l 1
 38 1377 l 1
 48 1470 l 1x6c
 287 1508 496 1530 673 1530 c 0
 1356 1530 1550 1170 1550 795 c 0
EndSplineSet
Validated: 1
EndChar

StartChar: Dcaron
Encoding: 276 270 20
Width: 1610
VWidth: 0
Flags: HW
HStem: 0 126<480 914.765> 0 90<38 82.7198> 1377 93<48 121.228> 1405 125<485.421 884.466>
VStem: 247 233<157 1341> 1293 257<533.906 996.189>
DStem2: 606 1932 508 1857 0.735191 -0.67786<0 251.695> 799 1757 793 1673 0.692049 0.72185<0 227.244>
LayerCount: 2
Fore
SplineSet
726 1656 m 1x0c
 508 1857 l 1
 606 1932 l 1
 787 1757 l 1
 799 1757 l 1
 949 1928 l 1
 1002 1891 l 1
 793 1673 l 1
 726 1656 l 1x0c
480 1399 m 1
 480 126 l 1
 657 126 l 2
 1089 126 1293 402 1293 727 c 0
 1293 1100 1076 1405 628 1405 c 0x9c
 578 1405 530 1405 480 1399 c 1
1550 795 m 0
 1550 379 1244 0 622 0 c 2x9c
 22 0 l 1
 38 90 l 1
 247 157 l 1
 247 1341 l 1
 38 1377 l 1
 48 1470 l 1x6c
 287 1508 496 1530 673 1530 c 0
 1356 1530 1550 1170 1550 795 c 0
EndSplineSet
Validated: 1
EndChar

StartChar: Dcroat
Encoding: 277 272 21
Width: 1610
VWidth: 0
Flags: HW
HStem: 0 126<480 952.797> 0 90<38 82.7198> 1379 93<48 121.228> 1407 125<485.421 886.669>
VStem: 247 233<157 693 817 1343> 1305 261<559.047 990.787>
DStem2: 42 787 28 675 0.997231 0.0743608<0 197.443 439.018 730.795>
LayerCount: 2
Fore
SplineSet
1566 801 m 0x1c
 1566 405 1245 0 645 0 c 2x9c
 22 0 l 1
 38 90 l 1
 247 157 l 1
 247 693 l 1
 28 675 l 1
 42 787 l 1
 247 803 l 1
 247 1343 l 1
 38 1379 l 1
 48 1472 l 1x6c
 287 1510 496 1532 673 1532 c 0
 1356 1532 1566 1176 1566 801 c 0x1c
480 707 m 1
 480 126 l 1
 737 126 l 2
 1137 126 1305 416 1305 727 c 0
 1305 1100 1082 1407 628 1407 c 0
 578 1407 530 1405 480 1399 c 1
 480 817 l 1
 793 843 l 1
 779 731 l 1
 480 707 l 1
EndSplineSet
Validated: 1
EndChar

StartChar: E
Encoding: 278 69 22
Width: 1307
VWidth: 0
Flags: HW
HStem: 0 116<486 1090> 0 90<48 99.0563> 709 114<486 821> 1401 111<486 1060> 1420 92<42 92.1227>
VStem: 251 235<147 709 823 1369> 861 105<512 572.339> 1110 105<1140 1214.83>
LayerCount: 2
Fore
SplineSet
42 1512 m 1x6f
 1253 1512 l 1x6f
 1215 1124 l 1
 1110 1140 l 1
 1060 1401 l 1
 486 1401 l 1
 486 823 l 1
 839 823 l 1
 891 968 l 1
 1006 984 l 1
 966 512 l 1
 861 496 l 1
 821 709 l 1
 486 709 l 1
 486 116 l 1
 1090 116 l 1xb7
 1209 396 l 1
 1309 381 l 1
 1273 0 l 1
 38 0 l 1
 48 90 l 1
 251 147 l 1
 251 1369 l 1
 30 1420 l 1
 42 1512 l 1x6f
EndSplineSet
Validated: 1
EndChar

StartChar: Eacute
Encoding: 279 201 23
Width: 1307
VWidth: 0
Flags: HW
HStem: 0 116<486 1090> 0 90<48 99.0563> 709 114<486 821> 1401 111<486 1060> 1420 92<42 92.1227>
VStem: 251 235<147 709 823 1369> 861 105<512 572.339> 1110 105<1140 1214.83>
LayerCount: 2
Fore
SplineSet
883 2032 m 1x27
 660 1646 l 1
 598 1685 l 1
 747 2080 l 1
 883 2032 l 1x27
42 1512 m 1x6f
 1253 1512 l 1x6f
 1215 1124 l 1
 1110 1140 l 1
 1060 1401 l 1
 486 1401 l 1
 486 823 l 1
 839 823 l 1
 891 968 l 1
 1006 984 l 1
 966 512 l 1
 861 496 l 1
 821 709 l 1
 486 709 l 1
 486 116 l 1
 1090 116 l 1xb7
 1209 396 l 1
 1309 381 l 1
 1273 0 l 1
 38 0 l 1
 48 90 l 1
 251 147 l 1
 251 1369 l 1
 30 1420 l 1
 42 1512 l 1x6f
EndSplineSet
Validated: 1
EndChar

StartChar: Ecaron
Encoding: 280 282 24
Width: 1307
VWidth: 0
Flags: HW
HStem: 0 116<486 1090> 0 90<48 99.0563> 709 114<486 821> 1401 111<486 1060> 1420 92<42 92.1227>
VStem: 251 235<147 709 823 1369> 861 105<512 572.339> 1110 105<1140 1214.83>
DStem2: 536 1932 438 1857 0.735191 -0.67786<0 251.695> 729 1757 723 1673 0.692049 0.72185<0 227.244>
LayerCount: 2
Fore
SplineSet
656 1656 m 1x27
 438 1857 l 1
 536 1932 l 1
 717 1757 l 1
 729 1757 l 1
 879 1928 l 1
 932 1891 l 1
 723 1673 l 1
 656 1656 l 1x27
42 1512 m 1x6f
 1253 1512 l 1x6f
 1215 1124 l 1
 1110 1140 l 1
 1060 1401 l 1
 486 1401 l 1
 486 823 l 1
 839 823 l 1
 891 968 l 1
 1006 984 l 1
 966 512 l 1
 861 496 l 1
 821 709 l 1
 486 709 l 1
 486 116 l 1
 1090 116 l 1xb7
 1209 396 l 1
 1309 381 l 1
 1273 0 l 1
 38 0 l 1
 48 90 l 1
 251 147 l 1
 251 1369 l 1
 30 1420 l 1
 42 1512 l 1x6f
EndSplineSet
Validated: 1
EndChar

StartChar: Ecircumflex
Encoding: 281 202 25
Width: 1307
VWidth: 0
Flags: HW
HStem: 0 116<486 1090> 0 90<48 99.0563> 709 114<486 821> 1401 111<486 1060> 1420 92<42 92.1227>
VStem: 251 235<147 709 823 1369> 861 105<512 572.339> 1110 105<1140 1214.83>
LayerCount: 2
Fore
SplineSet
771 1922 m 1x27
 987 1697 l 1
 927 1652 l 1
 728 1785 l 1
 716 1785 l 1
 546 1650 l 1
 500 1687 l 1
 704 1905 l 1
 771 1922 l 1x27
42 1512 m 1x6f
 1253 1512 l 1x6f
 1215 1124 l 1
 1110 1140 l 1
 1060 1401 l 1
 486 1401 l 1
 486 823 l 1
 839 823 l 1
 891 968 l 1
 1006 984 l 1
 966 512 l 1
 861 496 l 1
 821 709 l 1
 486 709 l 1
 486 116 l 1
 1090 116 l 1xb7
 1209 396 l 1
 1309 381 l 1
 1273 0 l 1
 38 0 l 1
 48 90 l 1
 251 147 l 1
 251 1369 l 1
 30 1420 l 1
 42 1512 l 1x6f
EndSplineSet
Validated: 1
EndChar

StartChar: Edieresis
Encoding: 282 203 26
Width: 1307
VWidth: 0
Flags: HW
HStem: 0 116<486 1090> 0 90<48 99.0563> 709 114<486 821> 1401 111<486 1060> 1420 92<42 92.1227> 1669 192<446.24 620.144 771.24 947.324>
VStem: 251 235<147 709 823 1369> 430 206<1686.74 1843.53> 755 209<1688.09 1842.21> 861 105<512 572.339> 1110 105<1140 1214.83>
LayerCount: 2
Fore
SplineSet
857 1861 m 0x24a0
 911 1861 964 1823 964 1767 c 0
 964 1707 911 1669 857 1669 c 0
 805 1669 755 1707 755 1767 c 0
 755 1825 807 1861 857 1861 c 0x24a0
532 1861 m 0
 586 1861 636 1823 636 1767 c 0
 636 1707 586 1669 532 1669 c 0
 480 1669 430 1707 430 1767 c 0x2520
 430 1825 482 1861 532 1861 c 0
42 1512 m 1x6e60
 1253 1512 l 1x6e60
 1215 1124 l 1
 1110 1140 l 1
 1060 1401 l 1
 486 1401 l 1
 486 823 l 1
 839 823 l 1
 891 968 l 1
 1006 984 l 1
 966 512 l 1
 861 496 l 1
 821 709 l 1
 486 709 l 1
 486 116 l 1
 1090 116 l 1xb660
 1209 396 l 1
 1309 381 l 1
 1273 0 l 1
 38 0 l 1
 48 90 l 1
 251 147 l 1
 251 1369 l 1
 30 1420 l 1
 42 1512 l 1x6e60
EndSplineSet
Validated: 1
EndChar

StartChar: Edotaccent
Encoding: 283 278 27
Width: 1307
VWidth: 0
Flags: HW
HStem: 0 116<486 1090> 0 90<48 99.0563> 709 114<486 821> 1401 111<486 1060> 1420 92<42 92.1227> 1649 261<599.598 792.743>
VStem: 251 235<147 709 823 1369> 566 261<1683.15 1875.95> 861 105<512 572.339> 1110 105<1140 1214.83>
LayerCount: 2
Fore
SplineSet
827 1780 m 0x27c0
 827 1707 768 1649 695 1649 c 0
 623 1649 566 1708 566 1780 c 0
 566 1851 624 1910 695 1910 c 0
 767 1910 827 1852 827 1780 c 0x27c0
42 1512 m 1x6fc0
 1253 1512 l 1x6fc0
 1215 1124 l 1
 1110 1140 l 1
 1060 1401 l 1
 486 1401 l 1
 486 823 l 1
 839 823 l 1
 891 968 l 1
 1006 984 l 1
 966 512 l 1
 861 496 l 1
 821 709 l 1
 486 709 l 1
 486 116 l 1
 1090 116 l 1xb7c0
 1209 396 l 1
 1309 381 l 1
 1273 0 l 1
 38 0 l 1
 48 90 l 1
 251 147 l 1
 251 1369 l 1
 30 1420 l 1
 42 1512 l 1x6fc0
EndSplineSet
Validated: 1
EndChar

StartChar: Egrave
Encoding: 284 200 28
Width: 1307
VWidth: 0
Flags: HW
HStem: 0 116<486 1090> 0 90<48 99.0563> 709 114<486 821> 1401 111<486 1060> 1420 92<42 92.1227>
VStem: 251 235<147 709 823 1369> 861 105<512 572.339> 1110 105<1140 1214.83>
LayerCount: 2
Fore
SplineSet
508 2024 m 1x27
 648 2070 l 1
 809 1664 l 1
 739 1622 l 1
 508 2024 l 1x27
42 1512 m 1x6f
 1253 1512 l 1x6f
 1215 1124 l 1
 1110 1140 l 1
 1060 1401 l 1
 486 1401 l 1
 486 823 l 1
 839 823 l 1
 891 968 l 1
 1006 984 l 1
 966 512 l 1
 861 496 l 1
 821 709 l 1
 486 709 l 1
 486 116 l 1
 1090 116 l 1xb7
 1209 396 l 1
 1309 381 l 1
 1273 0 l 1
 38 0 l 1
 48 90 l 1
 251 147 l 1
 251 1369 l 1
 30 1420 l 1
 42 1512 l 1x6f
EndSplineSet
Validated: 1
EndChar

StartChar: Emacron
Encoding: 285 274 29
Width: 1307
VWidth: 0
Flags: HW
HStem: 0 116<486 1090> 0 90<48 99.0563> 709 114<486 821> 1401 111<486 1060> 1420 92<42 92.1227> 1683 122<438 958>
VStem: 251 235<147 709 823 1369> 861 105<512 572.339> 1110 105<1140 1214.83>
LayerCount: 2
Fore
SplineSet
438 1805 m 1x2780
 974 1805 l 1
 958 1683 l 1
 422 1683 l 1
 438 1805 l 1x2780
42 1512 m 1x6f80
 1253 1512 l 1x6f80
 1215 1124 l 1
 1110 1140 l 1
 1060 1401 l 1
 486 1401 l 1
 486 823 l 1
 839 823 l 1
 891 968 l 1
 1006 984 l 1
 966 512 l 1
 861 496 l 1
 821 709 l 1
 486 709 l 1
 486 116 l 1
 1090 116 l 1xb780
 1209 396 l 1
 1309 381 l 1
 1273 0 l 1
 38 0 l 1
 48 90 l 1
 251 147 l 1
 251 1369 l 1
 30 1420 l 1
 42 1512 l 1x6f80
EndSplineSet
Validated: 1
EndChar

StartChar: Eng
Encoding: 286 330 30
Width: 1626
VWidth: 0
Flags: HW
HStem: -466 21G<973.785 1021> 0 90<48 99.0563 563.049 616> 1420 92<42 81.9386 1040 1089.25 1540.08 1602>
VStem: 251 155<147 1169> 1251 148<331 1369>
DStem2: 470 1512 406 1169 0.5516 -0.834109<250.797 1415.88>
LayerCount: 2
Fore
SplineSet
1040 1512 m 1
 1618 1512 l 1
 1602 1420 l 1
 1399 1373 l 1
 1399 183 l 2
 1399 -160 1224 -333 1039 -436 c 2
 985 -466 l 1
 925 -359 l 1
 1028 -283 1134 -180 1176 19 c 1
 406 1169 l 1
 406 139 l 1
 628 98 l 1
 616 0 l 1
 38 0 l 1
 48 90 l 1
 251 147 l 1
 251 1359 l 1
 30 1420 l 1
 42 1512 l 1
 470 1512 l 1
 1251 331 l 1
 1251 1369 l 1
 1026 1420 l 1
 1040 1512 l 1
EndSplineSet
Validated: 1
EndChar

StartChar: Eogonek
Encoding: 287 280 31
Width: 1307
VWidth: 0
Flags: HW
HStem: -470 62<1234.61 1244.71> 0 116<486 1090> 0 90<48 99.0563> 709 114<486 821> 1401 111<486 1060> 1420 92<42 92.1227>
VStem: 251 235<147 709 823 1369> 861 105<512 572.339> 946 180<-314.166 -126.165> 1110 105<1140 1214.83>
LayerCount: 2
Fore
SplineSet
1126 -181 m 0xb280
 1126 -257 1167 -344 1277 -408 c 1
 1235 -470 l 1
 1060 -452 946 -357 946 -253 c 0
 946 -190 966 -126 1109 -0 c 1
 38 0 l 1
 48 90 l 1
 251 147 l 1
 251 1369 l 1
 30 1420 l 1
 42 1512 l 1
 1253 1512 l 1xb680
 1215 1124 l 1
 1110 1140 l 1
 1060 1401 l 1
 486 1401 l 1
 486 823 l 1
 839 823 l 1
 891 968 l 1
 1006 984 l 1
 966 512 l 1
 861 496 l 1
 821 709 l 1
 486 709 l 1
 486 116 l 1
 1090 116 l 1xdb40
 1209 396 l 1
 1309 381 l 1
 1273 0 l 1
 1199 0 l 1
 1129 -115 1126 -159 1126 -181 c 0xb280
EndSplineSet
Validated: 1
EndChar

StartChar: Eth
Encoding: 288 208 32
Width: 1606
VWidth: 0
Flags: HW
HStem: 0 126<480 952.797> 0 90<38 82.7198> 1379 93<48 121.228> 1407 125<485.421 886.669>
VStem: 247 233<157 693 817 1343> 1305 261<559.047 990.787>
DStem2: 42 787 28 675 0.997231 0.0743608<0 197.443 439.018 730.795>
LayerCount: 2
Fore
SplineSet
1566 801 m 0x1c
 1566 405 1245 0 645 0 c 2x9c
 22 0 l 1
 38 90 l 1
 247 157 l 1
 247 693 l 1
 28 675 l 1
 42 787 l 1
 247 803 l 1
 247 1343 l 1
 38 1379 l 1
 48 1472 l 1x6c
 287 1510 496 1532 673 1532 c 0
 1356 1532 1566 1176 1566 801 c 0x1c
480 707 m 1
 480 126 l 1
 737 126 l 2
 1137 126 1305 416 1305 727 c 0
 1305 1100 1082 1407 628 1407 c 0
 578 1407 530 1405 480 1399 c 1
 480 817 l 1
 793 843 l 1
 779 731 l 1
 480 707 l 1
EndSplineSet
Validated: 1
EndChar

StartChar: Euro
Encoding: 289 8364 33
Width: 1351
VWidth: 0
Flags: HW
HStem: -30 132<612.994 957.627> 590 129<-34 60 337 898> 803 129<-26 64 327 954> 1428 116<568.824 918.504>
VStem: 60 261<719 803> 1058 107<1034 1110.55> 1078 107<401.446 478>
LayerCount: 2
Fore
SplineSet
1028 211 m 1xfc
 1078 478 l 1
 1185 494 l 1xfa
 1223 135 l 1
 1070 15 942 -30 743 -30 c 0
 404 -30 116 186 68 590 c 1
 -56 590 l 1
 -34 719 l 1
 60 719 l 1
 60 747 62 775 64 803 c 1
 -48 803 l 1
 -26 932 l 1
 82 932 l 1
 144 1239 353 1544 803 1544 c 0
 964 1544 1087 1510 1203 1422 c 1
 1165 1018 l 1
 1058 1034 l 1
 1008 1301 l 1
 952 1373 890 1428 733 1428 c 0
 510 1428 359 1245 327 932 c 1
 990 932 l 1
 954 803 l 1
 321 803 l 1
 321 801 l 2
 321 773 321 745 323 719 c 1
 934 719 l 1
 898 590 l 1
 337 590 l 1
 387 269 562 102 803 102 c 0
 879 102 970 131 1028 211 c 1xfc
EndSplineSet
Validated: 1
EndChar

StartChar: F
Encoding: 290 70 34
Width: 1250
VWidth: 0
Flags: HW
HStem: 0 90<48 99.0563 702.778 757> 703 112<486 819> 1401 111<486 1052> 1420 92<42 92.1227>
VStem: 251 235<149 703 815 1369> 857 107<502 566.621> 1094 107<1138 1227.77>
LayerCount: 2
Fore
SplineSet
42 1512 m 1xde
 1251 1512 l 1xde
 1201 1122 l 1
 1094 1138 l 1
 1052 1401 l 1
 486 1401 l 1xee
 486 815 l 1
 835 815 l 1
 887 962 l 1
 996 978 l 1
 964 502 l 1
 857 484 l 1
 819 703 l 1
 486 703 l 1
 484 149 l 1
 773 102 l 1
 757 0 l 1
 38 0 l 1
 48 90 l 1
 251 147 l 1
 251 1369 l 1
 30 1420 l 1
 42 1512 l 1xde
EndSplineSet
Validated: 1
EndChar

StartChar: G
Encoding: 291 71 35
Width: 1552
VWidth: 0
Flags: HW
HStem: -38 132<696.891 1120.51> 574 101<861 936.444> 1412 120<610.104 1032.55>
VStem: 60 263<513.685 975.093> 1134 239<124.309 528> 1237 106<1040 1115.92>
LayerCount: 2
Fore
SplineSet
1373 1414 m 1xf8
 1343 1022 l 1
 1237 1040 l 1xf4
 1193 1273 l 1
 1137 1329 990 1412 799 1412 c 0
 560 1412 323 1233 323 787 c 0
 323 426 538 94 924 94 c 0
 1022 94 1100 125 1134 145 c 1
 1134 528 l 1
 847 574 l 1
 861 675 l 1
 1538 675 l 1
 1524 584 l 1
 1373 534 l 1
 1373 96 l 1
 1212 0 1030 -38 787 -38 c 0
 297 -38 60 289 60 703 c 0
 60 1225 455 1532 859 1532 c 0
 1074 1532 1253 1486 1373 1414 c 1xf8
EndSplineSet
Validated: 1
EndChar

StartChar: Gbreve
Encoding: 292 286 36
Width: 1552
VWidth: 0
Flags: HW
HStem: -38 132<696.891 1120.51> 574 101<861 936.444> 1412 120<610.104 1032.55> 1677 132<781.148 1019.97>
VStem: 60 263<513.685 975.093> 669 66<1866.07 1902.98> 1134 239<124.309 528> 1237 106<1040 1115.92>
LayerCount: 2
Fore
SplineSet
669 1893 m 1xfe
 725 1932 l 1
 735 1911 l 1
 759 1863 817 1809 899 1809 c 0
 985 1809 1040 1861 1072 1913 c 1
 1084 1934 l 1
 1134 1899 l 1
 1126 1875 l 2
 1093 1777 1019 1677 899 1677 c 0
 770 1677 699 1775 675 1869 c 2
 669 1893 l 1xfe
1373 1414 m 1
 1343 1022 l 1
 1237 1040 l 1xfd
 1193 1273 l 1
 1137 1329 990 1412 799 1412 c 0
 560 1412 323 1233 323 787 c 0
 323 426 538 94 924 94 c 0
 1022 94 1100 125 1134 145 c 1
 1134 528 l 1
 847 574 l 1
 861 675 l 1
 1538 675 l 1
 1524 584 l 1
 1373 534 l 1
 1373 96 l 1
 1212 0 1030 -38 787 -38 c 0
 297 -38 60 289 60 703 c 0
 60 1225 455 1532 859 1532 c 0
 1074 1532 1253 1486 1373 1414 c 1
EndSplineSet
Validated: 1
EndChar

StartChar: Gcommaaccent
Encoding: 293 290 37
Width: 1552
VWidth: 0
Flags: HW
HStem: -474 65<751.148 803.14> -38 132<696.891 1120.51> 574 101<861 936.444> 1412 120<610.104 1032.55>
VStem: 60 263<513.685 975.093> 847 134<-368.775 -235.05> 1134 239<124.309 528> 1237 106<1040 1115.92>
LayerCount: 2
Fore
SplineSet
858 -103 m 0xfc
 906 -103 981 -139 981 -247 c 0
 981 -313 936 -431 756 -474 c 1
 734 -409 l 1
 820 -388 847 -344 847 -300 c 0
 847 -260 777 -207 750 -204 c 1
 761 -152 800 -103 858 -103 c 0xfc
1373 1414 m 1xfe
 1343 1022 l 1
 1237 1040 l 1xfd
 1193 1273 l 1
 1137 1329 990 1412 799 1412 c 0
 560 1412 323 1233 323 787 c 0
 323 426 538 94 924 94 c 0
 1022 94 1100 125 1134 145 c 1
 1134 528 l 1
 847 574 l 1
 861 675 l 1
 1538 675 l 1
 1524 584 l 1
 1373 534 l 1
 1373 96 l 1
 1212 0 1030 -38 787 -38 c 0
 297 -38 60 289 60 703 c 0
 60 1225 455 1532 859 1532 c 0
 1074 1532 1253 1486 1373 1414 c 1xfe
EndSplineSet
Validated: 1
EndChar

StartChar: Gdotaccent
Encoding: 294 288 38
Width: 1552
VWidth: 0
Flags: HW
HStem: -38 132<696.891 1120.51> 574 101<861 936.444> 1412 120<610.104 1032.55> 1648 288<754.5 959.5>
VStem: 60 263<513.685 975.093> 711 293<1692.75 1894.42> 1134 239<124.309 528> 1237 106<1040 1115.92>
LayerCount: 2
Fore
SplineSet
855 1936 m 0xfc
 935 1936 1004 1875 1004 1797 c 0
 1004 1715 935 1648 855 1648 c 0
 775 1648 711 1717 711 1799 c 0
 711 1877 779 1936 855 1936 c 0xfc
1373 1414 m 1xfe
 1343 1022 l 1
 1237 1040 l 1xfd
 1193 1273 l 1
 1137 1329 990 1412 799 1412 c 0
 560 1412 323 1233 323 787 c 0
 323 426 538 94 924 94 c 0
 1022 94 1100 125 1134 145 c 1
 1134 528 l 1
 847 574 l 1
 861 675 l 1
 1538 675 l 1
 1524 584 l 1
 1373 534 l 1
 1373 96 l 1
 1212 0 1030 -38 787 -38 c 0
 297 -38 60 289 60 703 c 0
 60 1225 455 1532 859 1532 c 0
 1074 1532 1253 1486 1373 1414 c 1xfe
EndSplineSet
Validated: 1
EndChar

StartChar: Germandbls
Encoding: 295 7838 39
Width: 1566
VWidth: 0
Flags: HW
HStem: -30 124<887.384 1222.09> 0 90<46 97.0563> 1434 110<660.356 939.591>
VStem: 249 235<147 1205.56> 630 117<374.646 446> 647 210<1003.93 1219.86> 1301 225<197.07 431.772>
LayerCount: 2
Fore
SplineSet
1068 1373 m 0x76
 964 1373 857 1270 857 1146 c 0x76
 857 787 1526 840 1526 390 c 0
 1526 111 1301 -30 1024 -30 c 0
 849 -30 682 37 614 149 c 1
 630 464 l 1
 747 446 l 1
 791 227 l 1
 835 157 938 94 1052 94 c 0xba
 1181 94 1301 136 1301 309 c 0
 1301 622 647 578 647 1024 c 0
 647 1225 771 1386 944 1426 c 1
 946 1430 l 1
 922 1432 863 1434 839 1434 c 0
 598 1434 482 1269 482 956 c 2
 484 0 l 1
 36 0 l 1
 46 90 l 1
 249 147 l 1
 249 928 l 2
 249 1362 490 1544 855 1544 c 0
 1084 1544 1448 1492 1448 1275 c 0
 1448 1181 1395 1140 1299 1108 c 1
 1255 1237 1209 1373 1068 1373 c 0x76
EndSplineSet
Validated: 1
EndChar

StartChar: Germandbls.alt
Encoding: 296 -1 40
Width: 1566
VWidth: 0
Flags: HW
HStem: -30 124<904.351 1209.73> 0 90<46 97.0563> 1434 110<649.158 1120.1>
VStem: 249 235<147 1175.28> 630 125<397.605 466> 1301 225<213.586 454.428>
DStem2: 729 849 1036 928 0.590391 0.807117<245.012 669.048>
LayerCount: 2
Fore
SplineSet
1036 928 m 1x7c
 1144 852 1526 735 1526 410 c 0
 1526 131 1301 -30 1024 -30 c 0
 849 -30 682 47 614 159 c 1
 630 484 l 1
 755 466 l 1
 803 237 l 1
 847 167 938 94 1052 94 c 0xbc
 1181 94 1301 156 1301 329 c 0
 1301 534 958 673 757 789 c 1
 729 849 l 1
 1124 1389 l 1
 1124 1395 l 1
 1072 1417 863 1434 839 1434 c 0
 598 1434 482 1301 482 865 c 1
 484 0 l 1
 36 0 l 1
 46 90 l 1
 249 147 l 1
 249 837 l 2
 249 1377 490 1544 855 1544 c 0
 1056 1544 1333 1522 1405 1498 c 1
 1407 1410 l 1
 1036 928 l 1x7c
EndSplineSet
Validated: 1
EndChar

StartChar: Germandbls.alt2
Encoding: 297 -1 41
Width: 1566
VWidth: 0
Flags: HW
HStem: -30 124<894.528 1222.09> 0 90<46 97.0563> 1078 21G<1273 1394.45> 1434 110<660.356 942.516>
VStem: 249 235<147 1205.56> 630 125<387.605 456> 647 210<1023.73 1233.9> 1273 120<1092 1191.01> 1301 225<197.07 432.458>
LayerCount: 2
Fore
SplineSet
1241 1313 m 1x7b
 1205 1341 1142 1375 1058 1375 c 0
 970 1375 857 1291 857 1167 c 0x7b
 857 808 1526 840 1526 390 c 0
 1526 111 1301 -30 1024 -30 c 0
 849 -30 682 37 614 149 c 1
 630 474 l 1
 755 456 l 1
 803 227 l 1
 847 157 938 94 1052 94 c 0
 1181 94 1301 136 1301 309 c 0xbc80
 1301 622 647 598 647 1044 c 0
 647 1245 771 1386 944 1426 c 1
 946 1430 l 1
 922 1432 863 1434 839 1434 c 0
 598 1434 482 1269 482 956 c 2
 484 0 l 1
 36 0 l 1
 46 90 l 1
 249 147 l 1
 249 928 l 2
 249 1362 490 1544 855 1544 c 0
 1084 1544 1302 1496 1418 1422 c 1
 1393 1078 l 1
 1273 1092 l 1
 1241 1313 l 1x7b
EndSplineSet
Validated: 1
EndChar

StartChar: H
Encoding: 298 72 42
Width: 1722
VWidth: 0
Flags: HW
HStem: 0 90<48 99.0563 647.171 697 1050 1100.55 1644.34 1697> 717 124<488 1251> 1420 92<42 92.1227 630.471 693 1042 1090.68 1629.08 1691>
VStem: 251 237<147 717 841 1369> 1251 237<147 719 841 1369>
LayerCount: 2
Fore
SplineSet
697 0 m 1
 38 0 l 1
 48 90 l 1
 251 147 l 1
 251 1369 l 1
 30 1420 l 1
 42 1512 l 1
 705 1512 l 1
 693 1420 l 1
 488 1373 l 1
 488 841 l 1
 1251 841 l 1
 1251 1369 l 1
 1028 1420 l 1
 1042 1512 l 1
 1705 1512 l 1
 1691 1420 l 1
 1488 1373 l 1
 1488 139 l 1
 1709 98 l 1
 1697 0 l 1
 1036 0 l 1
 1050 90 l 1
 1251 147 l 1
 1251 719 l 1
 488 717 l 1
 488 139 l 1
 713 98 l 1
 697 0 l 1
EndSplineSet
Validated: 1
EndChar

StartChar: Hbar
Encoding: 299 294 43
Width: 1722
VWidth: 0
Flags: HW
HStem: 0 90<48 99.0563 647.171 697 1050 1100.55 1644.34 1697> 717 124<488 1251> 1058 117<124 251 488 1251 1488 1605> 1420 92<42 92.1227 630.471 693 1042 1090.68 1629.08 1691>
VStem: 251 237<147 717 841 1058 1175 1369> 1251 237<147 719 841 1058 1175 1369>
LayerCount: 2
Fore
SplineSet
114 1058 m 1
 124 1175 l 1
 251 1175 l 1
 251 1369 l 1
 30 1420 l 1
 42 1512 l 1
 705 1512 l 1
 693 1420 l 1
 488 1373 l 1
 488 1175 l 1
 1251 1175 l 1
 1251 1369 l 1
 1028 1420 l 1
 1042 1512 l 1
 1705 1512 l 1
 1691 1420 l 1
 1488 1373 l 1
 1488 1175 l 1
 1615 1175 l 1
 1605 1058 l 1
 1488 1058 l 1
 1488 139 l 1
 1709 98 l 1
 1697 0 l 1
 1036 0 l 1
 1050 90 l 1
 1251 147 l 1
 1251 719 l 1
 488 717 l 1
 488 139 l 1
 713 98 l 1
 697 0 l 1
 38 0 l 1
 48 90 l 1
 251 147 l 1
 251 1058 l 1
 114 1058 l 1
1251 1058 m 1
 488 1058 l 1
 488 841 l 1
 1251 841 l 1
 1251 1058 l 1
EndSplineSet
Validated: 1
EndChar

StartChar: I
Encoding: 300 73 44
Width: 730
VWidth: 0
Flags: HW
HStem: 0 90<48 99.0563 642.342 695> 1420 92<42 92.1227 629.861 693>
VStem: 251 235<147 1369>
LayerCount: 2
Fore
SplineSet
695 0 m 1
 38 0 l 1
 48 90 l 1
 251 147 l 1
 251 1369 l 1
 30 1420 l 1
 42 1512 l 1
 705 1512 l 1
 693 1420 l 1
 486 1373 l 1
 486 139 l 1
 707 98 l 1
 695 0 l 1
EndSplineSet
Validated: 1
EndChar

StartChar: Iacute
Encoding: 301 205 45
Width: 730
VWidth: 0
Flags: HW
HStem: 0 90<48 99.0563 642.342 695> 1420 92<42 92.1227 629.861 693>
VStem: 251 235<147 1369>
LayerCount: 2
Fore
SplineSet
606 2032 m 1
 383 1646 l 1
 321 1685 l 1
 470 2080 l 1
 606 2032 l 1
695 0 m 1
 38 0 l 1
 48 90 l 1
 251 147 l 1
 251 1369 l 1
 30 1420 l 1
 42 1512 l 1
 705 1512 l 1
 693 1420 l 1
 486 1373 l 1
 486 139 l 1
 707 98 l 1
 695 0 l 1
EndSplineSet
Validated: 1
EndChar

StartChar: Icaron
Encoding: 302 463 46
Width: 730
VWidth: 0
Flags: HW
HStem: 0 90<48 99.0563 642.342 695> 1420 92<42 92.1227 629.861 693>
VStem: 251 235<147 1369>
DStem2: 209 1932 111 1857 0.735191 -0.67786<0 251.695> 402 1757 396 1673 0.692049 0.72185<0 227.244>
LayerCount: 2
Fore
SplineSet
329 1656 m 1
 111 1857 l 1
 209 1932 l 1
 390 1757 l 1
 402 1757 l 1
 552 1928 l 1
 605 1891 l 1
 396 1673 l 1
 329 1656 l 1
695 0 m 1
 38 0 l 1
 48 90 l 1
 251 147 l 1
 251 1369 l 1
 30 1420 l 1
 42 1512 l 1
 705 1512 l 1
 693 1420 l 1
 486 1373 l 1
 486 139 l 1
 707 98 l 1
 695 0 l 1
EndSplineSet
Validated: 1
EndChar

StartChar: Icircumflex
Encoding: 303 206 47
Width: 730
VWidth: 0
Flags: HW
HStem: 0 90<48 99.0563 642.342 695> 1420 92<42 92.1227 629.861 693>
VStem: 251 235<147 1369>
LayerCount: 2
Fore
SplineSet
400 1928 m 1
 616 1703 l 1
 556 1658 l 1
 357 1791 l 1
 345 1791 l 1
 175 1656 l 1
 129 1693 l 1
 333 1911 l 1
 400 1928 l 1
695 0 m 1
 38 0 l 1
 48 90 l 1
 251 147 l 1
 251 1369 l 1
 30 1420 l 1
 42 1512 l 1
 705 1512 l 1
 693 1420 l 1
 486 1373 l 1
 486 139 l 1
 707 98 l 1
 695 0 l 1
EndSplineSet
Validated: 1
EndChar

StartChar: Idieresis
Encoding: 304 207 48
Width: 730
VWidth: 0
Flags: HW
HStem: 0 90<48 99.0563 642.342 695> 1420 92<42 92.1227 629.861 693> 1669 192<119.24 293.144 444.24 620.324>
VStem: 103 206<1686.74 1843.53> 251 235<147 1369> 428 209<1688.09 1842.21>
LayerCount: 2
Fore
SplineSet
530 1861 m 0xe4
 584 1861 637 1823 637 1767 c 0
 637 1707 584 1669 530 1669 c 0
 478 1669 428 1707 428 1767 c 0
 428 1825 480 1861 530 1861 c 0xe4
205 1861 m 0
 259 1861 309 1823 309 1767 c 0
 309 1707 259 1669 205 1669 c 0
 153 1669 103 1707 103 1767 c 0xf0
 103 1825 155 1861 205 1861 c 0
695 0 m 1
 38 0 l 1
 48 90 l 1
 251 147 l 1
 251 1369 l 1
 30 1420 l 1
 42 1512 l 1
 705 1512 l 1
 693 1420 l 1
 486 1373 l 1
 486 139 l 1xe8
 707 98 l 1
 695 0 l 1
EndSplineSet
Validated: 1
EndChar

StartChar: Idotaccent
Encoding: 305 304 49
Width: 730
VWidth: 0
Flags: HW
HStem: 0 90<48 99.0563 642.342 695> 1420 92<42 92.1227 629.861 693> 1654 288<264.5 469.5>
VStem: 221 293<1698.75 1900.42> 251 235<147 1369>
LayerCount: 2
Fore
SplineSet
365 1942 m 0xf0
 445 1942 514 1881 514 1803 c 0
 514 1721 445 1654 365 1654 c 0
 285 1654 221 1723 221 1805 c 0
 221 1883 289 1942 365 1942 c 0xf0
695 0 m 1
 38 0 l 1
 48 90 l 1
 251 147 l 1
 251 1369 l 1
 30 1420 l 1
 42 1512 l 1
 705 1512 l 1
 693 1420 l 1
 486 1373 l 1
 486 139 l 1xe8
 707 98 l 1
 695 0 l 1
EndSplineSet
Validated: 1
EndChar

StartChar: Igrave
Encoding: 306 204 50
Width: 730
VWidth: 0
Flags: HW
HStem: 0 90<48 99.0563 642.342 695> 1420 92<42 92.1227 629.861 693>
VStem: 251 235<147 1369>
LayerCount: 2
Fore
SplineSet
131 2024 m 1
 271 2070 l 1
 432 1664 l 1
 362 1622 l 1
 131 2024 l 1
695 0 m 1
 38 0 l 1
 48 90 l 1
 251 147 l 1
 251 1369 l 1
 30 1420 l 1
 42 1512 l 1
 705 1512 l 1
 693 1420 l 1
 486 1373 l 1
 486 139 l 1
 707 98 l 1
 695 0 l 1
EndSplineSet
Validated: 1
EndChar

StartChar: Imacron
Encoding: 307 298 51
Width: 730
VWidth: 0
Flags: HW
HStem: 0 90<48 99.0563 642.342 695> 1420 92<42 92.1227 629.861 693> 1683 122<111 631>
VStem: 251 235<147 1369>
LayerCount: 2
Fore
SplineSet
111 1805 m 1
 647 1805 l 1
 631 1683 l 1
 95 1683 l 1
 111 1805 l 1
695 0 m 1
 38 0 l 1
 48 90 l 1
 251 147 l 1
 251 1369 l 1
 30 1420 l 1
 42 1512 l 1
 705 1512 l 1
 693 1420 l 1
 486 1373 l 1
 486 139 l 1
 707 98 l 1
 695 0 l 1
EndSplineSet
Validated: 1
EndChar

StartChar: Iogonek
Encoding: 308 302 52
Width: 730
VWidth: 0
Flags: HW
HStem: -470 62<712.609 722.711> 0 90<48 99.0563 651.266 695> 1420 92<42 92.1227 629.861 693>
VStem: 251 235<147 1369> 424 180<-314.166 -126.165>
LayerCount: 2
Fore
SplineSet
604 -181 m 0xe8
 604 -257 645 -344 755 -408 c 1
 713 -470 l 1
 538 -452 424 -357 424 -253 c 0xe8
 424 -190 444 -126 587 -0 c 1
 38 0 l 1
 48 90 l 1
 251 147 l 1
 251 1369 l 1
 30 1420 l 1
 42 1512 l 1
 705 1512 l 1
 693 1420 l 1
 486 1373 l 1
 486 139 l 1xf0
 707 98 l 1
 695 0 l 1
 677 -0 l 1
 607 -115 604 -159 604 -181 c 0xe8
EndSplineSet
Validated: 1
EndChar

StartChar: J
Encoding: 309 74 53
Width: 720
VWidth: 0
Flags: HW
HStem: 1420 92<42 92.1227 629.861 693>
VStem: 249 235<66.1851 1369>
LayerCount: 2
Fore
SplineSet
28 -396 m 1
 -38 -289 l 1
 151 -110 249 44 249 239 c 2
 251 1369 l 1
 30 1420 l 1
 42 1512 l 1
 705 1512 l 1
 693 1420 l 1
 486 1373 l 1
 484 468 l 2
 482 -30 377 -167 28 -396 c 1
EndSplineSet
Validated: 1
EndChar

StartChar: K
Encoding: 310 75 54
Width: 1477
VWidth: 0
Flags: HW
HStem: -26 21G<1211.5 1338> 0 90<42 86.7198 662.711 703> 1420 92<38 75.8188 642.435 695 821 858.535 1351.18 1405>
VStem: 251 235<157 1359>
DStem2: 701 970 737 795 0.62436 0.781137<-114.222 493.67>
LayerCount: 2
Fore
SplineSet
22 1420 m 1
 38 1512 l 1
 707 1512 l 1
 695 1420 l 1
 486 1363 l 1
 486 151 l 1
 717 98 l 1
 703 0 l 1
 30 0 l 1
 42 90 l 1
 251 157 l 1
 251 1359 l 1
 22 1420 l 1
516 761 m 1
 550 795 663 920 701 970 c 2
 1000 1363 l 1
 811 1420 l 1
 821 1512 l 1
 1420 1512 l 1
 1405 1420 l 1
 1191 1363 l 1
 737 795 l 1
 1014 468 l 2
 1198 250 1285 148 1440 100 c 2
 1486 86 l 1
 1472 2 l 1
 1416 -18 1363 -26 1313 -26 c 0
 1110 -26 962 126 823 317 c 2
 518 735 l 1
 516 761 l 1
EndSplineSet
Validated: 1
EndChar

StartChar: Kcommaaccent
Encoding: 311 310 55
Width: 1477
VWidth: 0
Flags: HW
HStem: -499 65<766.148 818.14> -26 21G<1211.5 1338> 0 90<42 86.7198 662.711 703> 1420 92<38 75.8188 642.435 695 821 858.535 1351.18 1405>
VStem: 251 235<157 1359> 862 134<-393.775 -260.05>
DStem2: 701 970 737 795 0.62436 0.781137<-114.222 493.67>
LayerCount: 2
Fore
SplineSet
873 -128 m 0
 921 -128 996 -164 996 -272 c 0
 996 -338 951 -456 771 -499 c 1
 749 -434 l 1
 835 -413 862 -369 862 -325 c 0
 862 -285 792 -232 765 -229 c 1
 776 -177 815 -128 873 -128 c 0
518 735 m 1
 516 761 l 1
 550 795 663 920 701 970 c 2
 1000 1363 l 1
 811 1420 l 1
 821 1512 l 1
 1420 1512 l 1
 1405 1420 l 1
 1191 1363 l 1
 737 795 l 1
 1014 468 l 2
 1198 250 1285 148 1440 100 c 2
 1486 86 l 1
 1472 2 l 1
 1416 -18 1363 -26 1313 -26 c 0
 1110 -26 962 126 823 317 c 2
 518 735 l 1
486 151 m 1
 717 98 l 1
 703 0 l 1
 30 0 l 1
 42 90 l 1
 251 157 l 1
 251 1359 l 1
 22 1420 l 1
 38 1512 l 1
 707 1512 l 1
 695 1420 l 1
 486 1363 l 1
 486 151 l 1
EndSplineSet
Validated: 1
EndChar

StartChar: L
Encoding: 312 76 56
Width: 1295
VWidth: 0
Flags: HW
HStem: 0 116<494 1032> 0 90<56 107.056> 1420 92<46 83.8188 650.435 703>
VStem: 259 235<147 1359>
LayerCount: 2
Fore
SplineSet
715 1512 m 1x70
 703 1420 l 1
 494 1363 l 1
 494 116 l 1
 1032 116 l 1xb0
 1191 418 l 1
 1295 402 l 1
 1249 0 l 1
 46 0 l 1
 56 90 l 1
 259 147 l 1
 259 1359 l 1
 30 1420 l 1
 46 1512 l 1
 715 1512 l 1x70
EndSplineSet
Validated: 1
EndChar

StartChar: Lacute
Encoding: 313 313 57
Width: 1295
VWidth: 0
Flags: HW
HStem: 0 116<494 1032> 0 90<56 107.056> 1420 92<46 83.8188 650.435 703>
VStem: 259 235<147 1359>
LayerCount: 2
Fore
SplineSet
576 2032 m 1x30
 353 1646 l 1
 291 1685 l 1
 440 2080 l 1
 576 2032 l 1x30
715 1512 m 1
 703 1420 l 1
 494 1363 l 1
 494 116 l 1
 1032 116 l 1xb0
 1191 418 l 1
 1295 402 l 1
 1249 0 l 1
 46 0 l 1
 56 90 l 1x70
 259 147 l 1
 259 1359 l 1
 30 1420 l 1
 46 1512 l 1
 715 1512 l 1
EndSplineSet
Validated: 1
EndChar

StartChar: Lcaron
Encoding: 314 317 58
Width: 1295
VWidth: 0
Flags: HW
HStem: 0 116<494 1032> 0 90<56 107.056> 912 84<804.221 878.788> 1337 221<850.169 968.154> 1420 92<46 83.8188 650.435 703>
VStem: 259 235<147 1359> 1002 167<1124.71 1396.5>
LayerCount: 2
Fore
SplineSet
781 996 m 1x36
 940 1038 1002 1129 1002 1207 c 0
 1002 1275 947 1337 861 1337 c 0
 849 1337 837 1337 825 1335 c 1
 815 1361 807 1383 807 1411 c 0
 807 1509 894 1558 956 1558 c 0
 1040 1558 1169 1488 1169 1305 c 0
 1169 1191 1128 996 809 912 c 1
 781 996 l 1x36
715 1512 m 1x6e
 703 1420 l 1
 494 1363 l 1
 494 116 l 1
 1032 116 l 1xae
 1191 418 l 1
 1295 402 l 1
 1249 0 l 1
 46 0 l 1
 56 90 l 1
 259 147 l 1
 259 1359 l 1
 30 1420 l 1
 46 1512 l 1
 715 1512 l 1x6e
EndSplineSet
Validated: 1
EndChar

StartChar: Lcommaaccent
Encoding: 315 315 59
Width: 1295
VWidth: 0
Flags: HW
HStem: -454 65<557.148 609.14> 0 116<494 1032> 0 90<56 107.056> 1420 92<46 83.8188 650.435 703>
VStem: 259 235<147 1359> 653 134<-348.775 -215.05>
LayerCount: 2
Fore
SplineSet
664 -83 m 0x9c
 712 -83 787 -119 787 -227 c 0
 787 -293 742 -411 562 -454 c 1
 540 -389 l 1
 626 -368 653 -324 653 -280 c 0
 653 -240 583 -187 556 -184 c 1
 567 -132 606 -83 664 -83 c 0x9c
715 1512 m 1
 703 1420 l 1
 494 1363 l 1
 494 116 l 1
 1032 116 l 1xdc
 1191 418 l 1
 1295 402 l 1
 1249 0 l 1
 46 0 l 1
 56 90 l 1xbc
 259 147 l 1
 259 1359 l 1
 30 1420 l 1
 46 1512 l 1
 715 1512 l 1
EndSplineSet
Validated: 1
EndChar

StartChar: Lslash
Encoding: 316 321 60
Width: 1295
VWidth: 0
Flags: HW
HStem: 0 116<494 1032> 0 90<56 107.056> 1420 92<46 83.8188 650.435 703>
VStem: 259 235<147 726 1003 1359>
DStem2: 71 756 72 616 0.861042 0.508535<0 146.62 489.829 621.851>
LayerCount: 2
Fore
SplineSet
715 1512 m 1x70
 703 1420 l 1
 494 1363 l 1
 494 1003 l 1
 668 1104 l 1
 668 968 l 1
 494 865 l 1
 494 116 l 1
 1032 116 l 1xb0
 1191 418 l 1
 1295 402 l 1
 1249 0 l 1
 46 0 l 1
 56 90 l 1
 259 147 l 1
 259 726 l 1
 72 616 l 1
 71 756 l 1
 259 866 l 1
 259 1359 l 1
 30 1420 l 1
 46 1512 l 1
 715 1512 l 1x70
EndSplineSet
Validated: 1
EndChar

StartChar: M
Encoding: 317 77 61
Width: 2023
VWidth: 0
Flags: HW
HStem: 0 90<28 79.0563 548.464 598 1371 1421.55 1955.34 2008> 1420 92<110 158.685 1877.47 1940>
DStem2: 231 147 390 139 0.0718271 0.997417<3.44117 1042.37> 693 1277 468 1175 0.344327 -0.93885<18.289 955.994> 1010 375 1040 62 0.371667 0.928366<0 969.001> 1735 1373 1504 1221 0.0517942 -0.998658<139.831 1215.91>
LayerCount: 2
Fore
SplineSet
885 38 m 1
 468 1175 l 1
 390 139 l 1
 614 98 l 1
 598 0 l 1
 14 0 l 1
 28 90 l 1
 231 147 l 1
 319 1369 l 1
 96 1420 l 1
 110 1512 l 1
 596 1512 l 1
 693 1277 l 1
 1010 375 l 1
 1387 1317 l 1
 1472 1512 l 1
 1952 1512 l 1
 1940 1420 l 1
 1735 1373 l 1
 1799 139 l 1
 2020 98 l 1
 2008 0 l 1
 1357 0 l 1
 1371 90 l 1
 1572 147 l 1
 1504 1221 l 1
 1040 62 l 1
 885 38 l 1
EndSplineSet
Validated: 1
EndChar

StartChar: N
Encoding: 318 78 62
Width: 1626
VWidth: 0
Flags: HW
HStem: 0 90<48 99.0563 563.049 616> 1420 92<42 81.9386 1040 1089.25 1540.08 1602>
VStem: 251 155<147 1169> 1251 148<331 1369>
DStem2: 470 1512 406 1169 0.556449 -0.830882<249.38 1415.86>
LayerCount: 2
Fore
SplineSet
1213 -36 m 1
 406 1169 l 1
 406 139 l 1
 628 98 l 1
 616 0 l 1
 38 0 l 1
 48 90 l 1
 251 147 l 1
 251 1359 l 1
 30 1420 l 1
 42 1512 l 1
 470 1512 l 1
 1251 331 l 1
 1251 1369 l 1
 1026 1420 l 1
 1040 1512 l 1
 1618 1512 l 1
 1602 1420 l 1
 1399 1373 l 1
 1399 2 l 1
 1213 -36 l 1
EndSplineSet
Validated: 1
EndChar

StartChar: Nacute
Encoding: 319 323 63
Width: 1626
VWidth: 0
Flags: HW
HStem: 0 90<48 99.0563 563.049 616> 1420 92<42 81.9386 1040 1089.25 1540.08 1602>
VStem: 251 155<147 1169> 1251 148<331 1369>
DStem2: 470 1512 406 1169 0.556449 -0.830882<249.38 1415.86>
LayerCount: 2
Fore
SplineSet
982 2032 m 1
 759 1646 l 1
 697 1685 l 1
 846 2080 l 1
 982 2032 l 1
1213 -36 m 1
 406 1169 l 1
 406 139 l 1
 628 98 l 1
 616 0 l 1
 38 0 l 1
 48 90 l 1
 251 147 l 1
 251 1359 l 1
 30 1420 l 1
 42 1512 l 1
 470 1512 l 1
 1251 331 l 1
 1251 1369 l 1
 1026 1420 l 1
 1040 1512 l 1
 1618 1512 l 1
 1602 1420 l 1
 1399 1373 l 1
 1399 2 l 1
 1213 -36 l 1
EndSplineSet
Validated: 1
EndChar

StartChar: Ncaron
Encoding: 320 327 64
Width: 1626
VWidth: 0
Flags: HW
HStem: 0 90<48 99.0563 563.049 616> 1420 92<42 81.9386 1040 1089.25 1540.08 1602>
VStem: 251 155<147 1169> 1251 148<331 1369>
DStem2: 470 1512 406 1169 0.556449 -0.830882<249.38 1415.86> 635 1932 537 1857 0.735191 -0.67786<0 251.695> 828 1757 822 1673 0.692049 0.72185<0 227.244>
LayerCount: 2
Fore
SplineSet
755 1656 m 1
 537 1857 l 1
 635 1932 l 1
 816 1757 l 1
 828 1757 l 1
 978 1928 l 1
 1031 1891 l 1
 822 1673 l 1
 755 1656 l 1
1213 -36 m 1
 406 1169 l 1
 406 139 l 1
 628 98 l 1
 616 0 l 1
 38 0 l 1
 48 90 l 1
 251 147 l 1
 251 1359 l 1
 30 1420 l 1
 42 1512 l 1
 470 1512 l 1
 1251 331 l 1
 1251 1369 l 1
 1026 1420 l 1
 1040 1512 l 1
 1618 1512 l 1
 1602 1420 l 1
 1399 1373 l 1
 1399 2 l 1
 1213 -36 l 1
EndSplineSet
Validated: 1
EndChar

StartChar: Ncommaaccent
Encoding: 321 325 65
Width: 1626
VWidth: 0
Flags: HW
HStem: -474 65<719.148 771.14> 0 90<48 99.0563 563.049 616> 1420 92<42 81.9386 1040 1089.25 1540.08 1602>
VStem: 251 155<147 1169> 815 134<-368.775 -235.05> 1251 148<331 1369>
DStem2: 470 1512 406 1169 0.556449 -0.830882<249.38 1415.86>
LayerCount: 2
Fore
SplineSet
826 -103 m 0
 874 -103 949 -139 949 -247 c 0
 949 -313 904 -431 724 -474 c 1
 702 -409 l 1
 788 -388 815 -344 815 -300 c 0
 815 -260 745 -207 718 -204 c 1
 729 -152 768 -103 826 -103 c 0
1213 -36 m 1
 406 1169 l 1
 406 139 l 1
 628 98 l 1
 616 0 l 1
 38 0 l 1
 48 90 l 1
 251 147 l 1
 251 1359 l 1
 30 1420 l 1
 42 1512 l 1
 470 1512 l 1
 1251 331 l 1
 1251 1369 l 1
 1026 1420 l 1
 1040 1512 l 1
 1618 1512 l 1
 1602 1420 l 1
 1399 1373 l 1
 1399 2 l 1
 1213 -36 l 1
EndSplineSet
Validated: 1
EndChar

StartChar: Ntilde
Encoding: 322 209 66
Width: 1626
VWidth: 0
Flags: HW
HStem: 0 90<48 99.0563 563.049 616> 1420 92<42 81.9386 1040 1089.25 1540.08 1602> 1692 127<837.082 1008.08> 1731 125<572.662 734.238>
VStem: 251 155<147 1169> 1251 148<331 1369>
DStem2: 470 1512 406 1169 0.556449 -0.830882<249.38 1415.86> 674 1855 632 1731 0.990312 -0.138863<-15.751 264.039>
LayerCount: 2
Fore
SplineSet
510 1683 m 1xdc
 510 1683 550 1856 658 1856 c 0xdc
 663 1856 669 1856 674 1855 c 2
 945 1819 l 1
 950 1819 l 2
 981 1819 1018 1869 1018 1869 c 1
 1076 1867 l 1
 1076 1867 1031 1692 918 1692 c 0xec
 913 1692 908 1692 903 1693 c 2
 632 1731 l 1
 629 1731 l 2
 594 1731 556 1673 556 1673 c 1
 510 1683 l 1xdc
1213 -36 m 1
 406 1169 l 1
 406 139 l 1
 628 98 l 1
 616 0 l 1
 38 0 l 1
 48 90 l 1
 251 147 l 1
 251 1359 l 1
 30 1420 l 1
 42 1512 l 1
 470 1512 l 1
 1251 331 l 1
 1251 1369 l 1
 1026 1420 l 1
 1040 1512 l 1
 1618 1512 l 1
 1602 1420 l 1
 1399 1373 l 1
 1399 2 l 1
 1213 -36 l 1
EndSplineSet
Validated: 1
EndChar

StartChar: O
Encoding: 323 79 67
Width: 1608
VWidth: 0
Flags: HW
HStem: -32 128<630.55 1023.12> 1430 118<573.43 969.25>
VStem: 60 271<497.461 1038> 1277 271<483.578 1020.5>
LayerCount: 2
Fore
SplineSet
787 1430 m 0
 422 1430 331 1140 331 823 c 0
 331 466 470 96 821 96 c 0
 1190 96 1277 402 1277 697 c 0
 1277 1042 1136 1430 787 1430 c 0
1548 753 m 0
 1548 333 1267 -32 761 -32 c 0
 341 -32 60 313 60 753 c 0
 60 1221 361 1548 845 1548 c 0
 1285 1548 1548 1179 1548 753 c 0
EndSplineSet
Validated: 1
EndChar

StartChar: OE
Encoding: 324 338 68
Width: 2009
VWidth: 0
Flags: HW
HStem: -32 128<593.536 942.813> 0 116<1193 1793> 709 114<1193 1524> 1401 111<1193 1763> 1430 118<546.301 925.654>
VStem: 60 271<479.628 1062.88> 958 235<128.082 709 823 1391.01> 1564 105<512 572.339> 1813 104<1140 1214.83>
LayerCount: 2
Fore
SplineSet
60 753 m 0xa780
 60 990 123 1182 243 1329 c 0
 363 1476 544 1548 785 1548 c 0xaf80
 869 1548 946 1536 1010 1512 c 1
 1956 1512 l 1
 1917 1124 l 1
 1813 1140 l 1
 1763 1401 l 1
 1193 1401 l 1
 1193 823 l 1
 1542 823 l 1
 1594 968 l 1
 1709 984 l 1
 1669 512 l 1
 1564 496 l 1
 1524 709 l 1
 1193 709 l 1
 1193 116 l 1
 1793 116 l 1
 1911 396 l 1
 2012 381 l 1
 1976 0 l 1
 954 0 l 1x7780
 874 -20 789 -32 701 -32 c 0
 289 -32 60 301 60 753 c 0xa780
753 96 m 0
 825 96 894 113 958 149 c 1
 958 1369 l 1
 890 1409 811 1430 727 1430 c 0
 462 1430 331 1229 331 823 c 0
 331 506 438 96 753 96 c 0
EndSplineSet
Validated: 1
EndChar

StartChar: Oacute
Encoding: 325 211 69
Width: 1608
VWidth: 0
Flags: HW
HStem: -32 128<630.55 1023.12> 1430 118<573.43 969.25>
VStem: 60 271<497.461 1038> 1277 271<483.578 1020.5>
LayerCount: 2
Fore
SplineSet
1039 2026 m 1
 816 1640 l 1
 754 1679 l 1
 903 2074 l 1
 1039 2026 l 1
1548 753 m 0
 1548 333 1267 -32 761 -32 c 0
 341 -32 60 313 60 753 c 0
 60 1221 361 1548 845 1548 c 0
 1285 1548 1548 1179 1548 753 c 0
787 1430 m 0
 422 1430 331 1140 331 823 c 0
 331 466 470 96 821 96 c 0
 1190 96 1277 402 1277 697 c 0
 1277 1042 1136 1430 787 1430 c 0
EndSplineSet
Validated: 1
EndChar

StartChar: Ocaron
Encoding: 326 465 70
Width: 1608
VWidth: 0
Flags: HW
HStem: -32 128<630.55 1023.12> 1430 118<573.43 969.25>
VStem: 60 271<497.461 1038> 1277 271<483.578 1020.5>
DStem2: 655 1932 557 1857 0.735191 -0.67786<0 251.695> 848 1757 842 1673 0.692049 0.72185<0 227.244>
LayerCount: 2
Fore
SplineSet
775 1656 m 1
 557 1857 l 1
 655 1932 l 1
 836 1757 l 1
 848 1757 l 1
 998 1928 l 1
 1051 1891 l 1
 842 1673 l 1
 775 1656 l 1
787 1430 m 0
 422 1430 331 1140 331 823 c 0
 331 466 470 96 821 96 c 0
 1190 96 1277 402 1277 697 c 0
 1277 1042 1136 1430 787 1430 c 0
1548 753 m 0
 1548 333 1267 -32 761 -32 c 0
 341 -32 60 313 60 753 c 0
 60 1221 361 1548 845 1548 c 0
 1285 1548 1548 1179 1548 753 c 0
EndSplineSet
Validated: 1
EndChar

StartChar: Ocircumflex
Encoding: 327 212 71
Width: 1608
VWidth: 0
Flags: HW
HStem: -32 128<630.55 1023.12> 1430 118<573.43 969.25>
VStem: 60 271<497.461 1038> 1277 271<483.578 1020.5>
LayerCount: 2
Fore
SplineSet
846 1928 m 1
 1062 1703 l 1
 1002 1658 l 1
 803 1791 l 1
 791 1791 l 1
 621 1656 l 1
 575 1693 l 1
 779 1911 l 1
 846 1928 l 1
787 1430 m 0
 422 1430 331 1140 331 823 c 0
 331 466 470 96 821 96 c 0
 1190 96 1277 402 1277 697 c 0
 1277 1042 1136 1430 787 1430 c 0
1548 753 m 0
 1548 333 1267 -32 761 -32 c 0
 341 -32 60 313 60 753 c 0
 60 1221 361 1548 845 1548 c 0
 1285 1548 1548 1179 1548 753 c 0
EndSplineSet
Validated: 1
EndChar

StartChar: Odieresis
Encoding: 328 214 72
Width: 1608
VWidth: 0
Flags: HW
HStem: -32 128<630.55 1023.12> 1430 118<573.43 969.25> 1669 192<565.24 739.144 890.24 1066.32>
VStem: 60 271<497.461 1038> 549 206<1686.74 1843.53> 874 209<1688.09 1842.21> 1277 271<483.578 1020.5>
LayerCount: 2
Fore
SplineSet
976 1861 m 0
 1030 1861 1083 1823 1083 1767 c 0
 1083 1707 1030 1669 976 1669 c 0
 924 1669 874 1707 874 1767 c 0
 874 1825 926 1861 976 1861 c 0
651 1861 m 0
 705 1861 755 1823 755 1767 c 0
 755 1707 705 1669 651 1669 c 0
 599 1669 549 1707 549 1767 c 0
 549 1825 601 1861 651 1861 c 0
787 1430 m 0
 422 1430 331 1140 331 823 c 0
 331 466 470 96 821 96 c 0
 1190 96 1277 402 1277 697 c 0
 1277 1042 1136 1430 787 1430 c 0
1548 753 m 0
 1548 333 1267 -32 761 -32 c 0
 341 -32 60 313 60 753 c 0
 60 1221 361 1548 845 1548 c 0
 1285 1548 1548 1179 1548 753 c 0
EndSplineSet
Validated: 1
EndChar

StartChar: Ograve
Encoding: 329 210 73
Width: 1608
VWidth: 0
Flags: HW
HStem: -32 128<630.55 1023.12> 1430 118<573.43 969.25>
VStem: 60 271<497.461 1038> 1277 271<483.578 1020.5>
LayerCount: 2
Fore
SplineSet
627 2024 m 1
 767 2070 l 1
 928 1664 l 1
 858 1622 l 1
 627 2024 l 1
787 1430 m 0
 422 1430 331 1140 331 823 c 0
 331 466 470 96 821 96 c 0
 1190 96 1277 402 1277 697 c 0
 1277 1042 1136 1430 787 1430 c 0
1548 753 m 0
 1548 333 1267 -32 761 -32 c 0
 341 -32 60 313 60 753 c 0
 60 1221 361 1548 845 1548 c 0
 1285 1548 1548 1179 1548 753 c 0
EndSplineSet
Validated: 1
EndChar

StartChar: Ohungarumlaut
Encoding: 330 336 74
Width: 1608
VWidth: 0
Flags: HW
HStem: -32 128<630.55 1023.12> 1430 118<573.43 969.25>
VStem: 60 271<497.461 1038> 1277 271<483.578 1020.5>
LayerCount: 2
Fore
SplineSet
1245 1861 m 1
 892 1658 l 1
 858 1719 l 1
 1157 1962 l 1
 1245 1861 l 1
1000 1867 m 1
 635 1658 l 1
 601 1719 l 1
 910 1972 l 1
 1000 1867 l 1
787 1430 m 0
 422 1430 331 1140 331 823 c 0
 331 466 470 96 821 96 c 0
 1190 96 1277 402 1277 697 c 0
 1277 1042 1136 1430 787 1430 c 0
1548 753 m 0
 1548 333 1267 -32 761 -32 c 0
 341 -32 60 313 60 753 c 0
 60 1221 361 1548 845 1548 c 0
 1285 1548 1548 1179 1548 753 c 0
EndSplineSet
Validated: 1
EndChar

StartChar: Omacron
Encoding: 331 332 75
Width: 1608
VWidth: 0
Flags: HW
HStem: -32 128<630.55 1023.12> 1430 118<573.43 969.25> 1683 122<557 1077>
VStem: 60 271<497.461 1038> 1277 271<483.578 1020.5>
LayerCount: 2
Fore
SplineSet
557 1805 m 1
 1093 1805 l 1
 1077 1683 l 1
 541 1683 l 1
 557 1805 l 1
787 1430 m 0
 422 1430 331 1140 331 823 c 0
 331 466 470 96 821 96 c 0
 1190 96 1277 402 1277 697 c 0
 1277 1042 1136 1430 787 1430 c 0
1548 753 m 0
 1548 333 1267 -32 761 -32 c 0
 341 -32 60 313 60 753 c 0
 60 1221 361 1548 845 1548 c 0
 1285 1548 1548 1179 1548 753 c 0
EndSplineSet
Validated: 1
EndChar

StartChar: Oslash
Encoding: 332 216 76
Width: 1608
VWidth: 0
Flags: HW
HStem: -32 128<629.823 1023.12> 1430 118<573.43 973.05>
VStem: 60 271<497.1 1038> 1277 271<483.578 1025.81>
DStem2: 263 -135 442 -125 0.473428 0.880832<93.552 251.475 1836.69 1951.47> 501 245 570 178 0.471145 0.882056<0 1172.47>
LayerCount: 2
Fore
SplineSet
1548 753 m 0
 1548 333 1267 -32 761 -32 c 0
 673 -32 590 -16 515 12 c 1
 442 -125 l 1
 263 -135 l 1
 379 83 l 1
 179 220 60 466 60 753 c 0
 60 1221 361 1548 845 1548 c 0
 951 1548 1047 1526 1131 1488 c 1
 1183 1586 l 1
 1367 1596 l 1
 1264 1406 l 1
 1446 1260 1548 1017 1548 753 c 0
787 1430 m 0
 422 1430 331 1140 331 823 c 0
 331 606 382 386 501 245 c 1
 1072 1314 l 1
 999 1386 905 1430 787 1430 c 0
1138 1234 m 1
 570 178 l 1
 637 126 720 96 821 96 c 0
 1190 96 1277 402 1277 697 c 0
 1277 887 1235 1090 1138 1234 c 1
EndSplineSet
Validated: 1
EndChar

StartChar: Otilde
Encoding: 333 213 77
Width: 1608
VWidth: 0
Flags: HW
HStem: -32 128<630.55 1023.12> 1430 118<573.43 969.25> 1692 127<857.082 1028.08> 1731 125<592.662 754.238>
VStem: 60 271<497.461 1038> 1277 271<483.578 1020.5>
DStem2: 694 1855 652 1731 0.990312 -0.138863<-15.751 264.039>
LayerCount: 2
Fore
SplineSet
530 1683 m 1xdc
 530 1683 570 1856 678 1856 c 0xdc
 683 1856 689 1856 694 1855 c 2
 965 1819 l 1
 970 1819 l 2
 1001 1819 1038 1869 1038 1869 c 1
 1096 1867 l 1
 1096 1867 1051 1692 938 1692 c 0xec
 933 1692 928 1692 923 1693 c 2
 652 1731 l 1
 649 1731 l 2
 614 1731 576 1673 576 1673 c 1
 530 1683 l 1xdc
787 1430 m 0
 422 1430 331 1140 331 823 c 0
 331 466 470 96 821 96 c 0
 1190 96 1277 402 1277 697 c 0
 1277 1042 1136 1430 787 1430 c 0
1548 753 m 0
 1548 333 1267 -32 761 -32 c 0
 341 -32 60 313 60 753 c 0
 60 1221 361 1548 845 1548 c 0
 1285 1548 1548 1179 1548 753 c 0
EndSplineSet
Validated: 1
EndChar

StartChar: P
Encoding: 334 80 78
Width: 1226
VWidth: 0
Flags: HW
HStem: 0 90<40 91.5593 695.264 749> 600 107<556 812.188> 1379 93<48 119.228> 1426 100<479.95 803.659>
VStem: 245 233<149 1343> 986 251<893.785 1244.76>
LayerCount: 2
Fore
SplineSet
1237 1084 m 0xdc
 1237 795 972 600 677 600 c 0
 633 600 594 602 556 604 c 1
 534 705 l 1
 598 707 l 2
 859 715 986 823 986 1040 c 0
 986 1247 879 1426 602 1426 c 0xdc
 552 1426 478 1418 478 1418 c 1
 478 149 l 1
 765 102 l 1
 749 0 l 1
 28 0 l 1
 40 90 l 1
 245 147 l 1
 245 1343 l 1
 36 1379 l 1
 48 1472 l 1xec
 205 1496 421 1526 628 1526 c 0
 945 1526 1237 1439 1237 1084 c 0xdc
EndSplineSet
Validated: 1
EndChar

StartChar: Q
Encoding: 335 81 79
Width: 1622
VWidth: 0
Flags: HW
HStem: -468 133<1325.79 1506.44> -32 21G<567 786> 1420 128<598.735 982.255>
VStem: 74 247<536.04 1024.09> 1329 251<494.539 971.765>
LayerCount: 2
Fore
SplineSet
809 1420 m 0
 504 1420 321 1204 321 827 c 0
 321 536 450 108 912 82 c 1
 1239 164 1329 410 1329 685 c 0
 1329 1042 1130 1420 809 1420 c 0
855 -26 m 1
 843 -30 795 -32 777 -32 c 0
 357 -32 74 299 74 739 c 0
 74 1209 395 1548 877 1548 c 0
 1311 1548 1580 1191 1580 765 c 0
 1580 408 1365 82 996 -8 c 1
 1068 -173 1173 -277 1522 -335 c 1
 1522 -365 1518 -404 1510 -426 c 1
 1434 -462 1363 -468 1295 -468 c 0
 1074 -468 877 -303 855 -26 c 1
EndSplineSet
Validated: 1
EndChar

StartChar: R
Encoding: 336 82 80
Width: 1475
VWidth: 0
Flags: HW
HStem: -26 21G<1218.5 1338> 0 90<40 91.5593 654.89 695> 653 110<478 689> 1375 93<48 119.228> 1422 102<480.722 799.542>
VStem: 245 233<153 653 763 1339> 962 251<981.346 1262.81>
LayerCount: 2
Fore
SplineSet
1213 1146 m 0xee
 1213 989 1094 811 865 729 c 1
 865 727 l 1
 1084 424 l 2
 1227 227 1289 140 1440 94 c 2
 1480 82 l 1
 1462 -2 l 1
 1410 -20 1361 -26 1315 -26 c 0
 1122 -26 989 118 883 307 c 2
 689 653 l 1
 478 653 l 1
 478 153 l 1
 707 100 l 1
 695 0 l 1
 28 0 l 1
 40 90 l 1
 245 147 l 1
 245 1339 l 1
 36 1375 l 1
 48 1468 l 1xf6
 227 1496 423 1524 604 1524 c 0
 965 1524 1213 1429 1213 1146 c 0xee
719 763 m 1
 839 803 962 905 962 1078 c 0
 962 1277 839 1422 624 1422 c 0xee
 538 1422 478 1416 478 1416 c 1
 478 763 l 1
 719 763 l 1
EndSplineSet
Validated: 1
EndChar

StartChar: Racute
Encoding: 337 340 81
Width: 1475
VWidth: 0
Flags: HW
HStem: -26 21G<1218.5 1338> 0 90<40 91.5593 654.89 695> 653 110<478 689> 1375 93<48 119.228> 1422 102<480.722 799.542>
VStem: 245 233<153 653 763 1339> 962 251<981.346 1262.81>
LayerCount: 2
Fore
SplineSet
867 2032 m 1xe6
 644 1646 l 1
 582 1685 l 1
 731 2080 l 1
 867 2032 l 1xe6
1213 1146 m 0
 1213 989 1094 811 865 729 c 1
 865 727 l 1
 1084 424 l 2
 1227 227 1289 140 1440 94 c 2
 1480 82 l 1
 1462 -2 l 1
 1410 -20 1361 -26 1315 -26 c 0
 1122 -26 989 118 883 307 c 2
 689 653 l 1
 478 653 l 1
 478 153 l 1
 707 100 l 1
 695 0 l 1
 28 0 l 1
 40 90 l 1
 245 147 l 1
 245 1339 l 1
 36 1375 l 1
 48 1468 l 1xf6
 227 1496 423 1524 604 1524 c 0xee
 965 1524 1213 1429 1213 1146 c 0
719 763 m 1
 839 803 962 905 962 1078 c 0
 962 1277 839 1422 624 1422 c 0xee
 538 1422 478 1416 478 1416 c 1
 478 763 l 1
 719 763 l 1
EndSplineSet
Validated: 1
EndChar

StartChar: Rcaron
Encoding: 338 344 82
Width: 1475
VWidth: 0
Flags: HW
HStem: -26 21G<1218.5 1338> 0 90<40 91.5593 654.89 695> 653 110<478 689> 1375 93<48 119.228> 1422 102<480.722 799.542>
VStem: 245 233<153 653 763 1339> 962 251<981.346 1262.81>
DStem2: 520 1932 422 1857 0.735191 -0.67786<0 251.695> 713 1757 707 1673 0.692049 0.72185<0 227.244>
LayerCount: 2
Fore
SplineSet
640 1656 m 1xe6
 422 1857 l 1
 520 1932 l 1
 701 1757 l 1
 713 1757 l 1
 863 1928 l 1
 916 1891 l 1
 707 1673 l 1
 640 1656 l 1xe6
1213 1146 m 0
 1213 989 1094 811 865 729 c 1
 865 727 l 1
 1084 424 l 2
 1227 227 1289 140 1440 94 c 2
 1480 82 l 1
 1462 -2 l 1
 1410 -20 1361 -26 1315 -26 c 0
 1122 -26 989 118 883 307 c 2
 689 653 l 1
 478 653 l 1
 478 153 l 1
 707 100 l 1
 695 0 l 1
 28 0 l 1
 40 90 l 1
 245 147 l 1
 245 1339 l 1
 36 1375 l 1
 48 1468 l 1xf6
 227 1496 423 1524 604 1524 c 0xee
 965 1524 1213 1429 1213 1146 c 0
719 763 m 1
 839 803 962 905 962 1078 c 0
 962 1277 839 1422 624 1422 c 0xee
 538 1422 478 1416 478 1416 c 1
 478 763 l 1
 719 763 l 1
EndSplineSet
Validated: 1
EndChar

StartChar: Rcommaaccent
Encoding: 339 342 83
Width: 1475
VWidth: 0
Flags: HW
HStem: -474 65<761.148 813.14> -26 21G<1218.5 1338> 0 90<40 91.5593 654.89 695> 653 110<478 689> 1375 93<48 119.228> 1422 102<480.722 799.542>
VStem: 245 233<153 653 763 1339> 857 134<-368.775 -235.05> 962 251<981.346 1262.81>
LayerCount: 2
Fore
SplineSet
868 -103 m 0xf3
 916 -103 991 -139 991 -247 c 0
 991 -313 946 -431 766 -474 c 1
 744 -409 l 1
 830 -388 857 -344 857 -300 c 0
 857 -260 787 -207 760 -204 c 1
 771 -152 810 -103 868 -103 c 0xf3
1213 1146 m 0xf680
 1213 989 1094 811 865 729 c 1
 865 727 l 1
 1084 424 l 2
 1227 227 1289 140 1440 94 c 2
 1480 82 l 1
 1462 -2 l 1
 1410 -20 1361 -26 1315 -26 c 0
 1122 -26 989 118 883 307 c 2
 689 653 l 1
 478 653 l 1
 478 153 l 1
 707 100 l 1
 695 0 l 1
 28 0 l 1
 40 90 l 1
 245 147 l 1
 245 1339 l 1
 36 1375 l 1
 48 1468 l 1xfa80
 227 1496 423 1524 604 1524 c 0
 965 1524 1213 1429 1213 1146 c 0xf680
719 763 m 1
 839 803 962 905 962 1078 c 0
 962 1277 839 1422 624 1422 c 0xf680
 538 1422 478 1416 478 1416 c 1
 478 763 l 1
 719 763 l 1
EndSplineSet
Validated: 1
EndChar

StartChar: S
Encoding: 340 83 84
Width: 1050
VWidth: 0
Flags: HW
HStem: -30 124<334.685 655.365> 1078 21G<753 874.57> 1440 104<370.803 650.943>
VStem: 70 125<384.632 456> 84 209<1088.38 1299.98> 753 120<1092 1196.38> 781 223<248.14 468.387>
LayerCount: 2
Fore
SplineSet
873 1078 m 1xec
 753 1092 l 1
 721 1325 l 1
 699 1369 614 1440 516 1440 c 0
 394 1440 293 1370 293 1211 c 0xec
 293 862 1004 888 1004 430 c 0
 1004 151 741 -30 464 -30 c 0
 289 -30 132 53 54 149 c 1
 70 474 l 1
 195 456 l 1
 241 227 l 1
 285 157 378 94 492 94 c 0
 621 94 781 168 781 349 c 0xf2
 781 664 84 662 84 1114 c 0
 84 1389 317 1544 556 1544 c 0
 687 1544 804 1502 900 1422 c 1
 900 1412 873 1078 873 1078 c 1xec
EndSplineSet
Validated: 1
EndChar

StartChar: Sacute
Encoding: 341 346 85
Width: 1050
VWidth: 0
Flags: HW
HStem: -30 124<334.685 655.365> 1078 21G<753 874.57> 1440 104<370.803 650.943>
VStem: 70 125<384.632 456> 84 209<1088.38 1299.98> 753 120<1092 1196.38> 781 223<248.14 468.387>
LayerCount: 2
Fore
SplineSet
729 2030 m 1xe0
 506 1644 l 1
 444 1683 l 1
 593 2078 l 1
 729 2030 l 1xe0
873 1078 m 1xec
 753 1092 l 1
 721 1325 l 1
 699 1369 614 1440 516 1440 c 0
 394 1440 293 1370 293 1211 c 0xec
 293 862 1004 888 1004 430 c 0
 1004 151 741 -30 464 -30 c 0
 289 -30 132 53 54 149 c 1
 70 474 l 1
 195 456 l 1
 241 227 l 1
 285 157 378 94 492 94 c 0
 621 94 781 168 781 349 c 0xf2
 781 664 84 662 84 1114 c 0
 84 1389 317 1544 556 1544 c 0
 687 1544 804 1502 900 1422 c 1
 900 1412 873 1078 873 1078 c 1xec
EndSplineSet
Validated: 1
EndChar

StartChar: Scaron
Encoding: 342 352 86
Width: 1050
VWidth: 0
Flags: W
HStem: -30 124<334.685 655.365> 1078 21G<753 874.57> 1440 104<370.803 650.943>
VStem: 70 125<384.632 456> 84 209<1088.38 1299.98> 753 120<1092 1196.38> 781 223<248.14 468.387>
DStem2: 382 1930 284 1855 0.735191 -0.67786<0 251.695> 575 1755 569 1671 0.692049 0.72185<0 227.244>
LayerCount: 2
Fore
SplineSet
502 1654 m 1xe0
 284 1855 l 1
 382 1930 l 1
 563 1755 l 1
 575 1755 l 1
 725 1926 l 1
 778 1889 l 1
 569 1671 l 1
 502 1654 l 1xe0
873 1078 m 1xec
 753 1092 l 1
 721 1325 l 1
 699 1369 614 1440 516 1440 c 0
 394 1440 293 1370 293 1211 c 0xec
 293 862 1004 888 1004 430 c 0
 1004 151 741 -30 464 -30 c 0
 289 -30 132 53 54 149 c 1
 70 474 l 1
 195 456 l 1
 241 227 l 1
 285 157 378 94 492 94 c 0
 621 94 781 168 781 349 c 0xf2
 781 664 84 662 84 1114 c 0
 84 1389 317 1544 556 1544 c 0
 687 1544 804 1502 900 1422 c 1
 900 1412 873 1078 873 1078 c 1xec
EndSplineSet
Validated: 1
EndChar

StartChar: Scedilla
Encoding: 343 350 87
Width: 1050
VWidth: 0
Flags: HW
HStem: -30 124<337.078 474> 1078 21G<753 874.57> 1440 104<370.803 650.943>
VStem: 70 125<384.632 456> 84 209<1088.38 1299.98> 468 162<-369.819 -214.37> 753 120<1092 1196.38> 781 223<244.59 468.387>
LayerCount: 2
Fore
SplineSet
522 -92 m 1xed
 568 -132 630 -193 630 -275 c 0
 630 -371 528 -432 387 -474 c 1
 363 -402 l 1
 433 -378 468 -337 468 -301 c 0
 468 -259 423 -209 379 -167 c 1
 474 -30 l 1
 464 -30 l 2
 289 -30 132 53 54 149 c 1
 70 474 l 1
 195 456 l 1
 241 227 l 1
 285 157 378 94 492 94 c 0
 621 94 781 168 781 349 c 0xf5
 781 664 84 662 84 1114 c 0
 84 1389 317 1544 556 1544 c 0
 687 1544 804 1502 900 1422 c 1
 900 1412 873 1078 873 1078 c 1
 753 1092 l 1xee
 721 1325 l 1
 699 1369 614 1440 516 1440 c 0
 394 1440 293 1370 293 1211 c 0
 293 862 1004 888 1004 430 c 0
 1004 187 805 19 571 -21 c 1
 522 -92 l 1xed
EndSplineSet
Validated: 1
EndChar

StartChar: Scommaaccent
Encoding: 344 536 88
Width: 1050
VWidth: 0
Flags: HW
HStem: -469 65<391.148 443.14> -30 124<334.685 655.365> 1078 21G<753 874.57> 1440 104<370.803 650.943>
VStem: 70 125<384.632 456> 84 209<1088.38 1299.98> 487 134<-363.775 -230.05> 753 120<1092 1196.38> 781 223<248.14 468.387>
LayerCount: 2
Fore
SplineSet
498 -98 m 0xf2
 546 -98 621 -134 621 -242 c 0
 621 -308 576 -426 396 -469 c 1
 374 -404 l 1
 460 -383 487 -339 487 -295 c 0
 487 -255 417 -202 390 -199 c 1
 401 -147 440 -98 498 -98 c 0xf2
873 1078 m 1xf7
 753 1092 l 1
 721 1325 l 1
 699 1369 614 1440 516 1440 c 0
 394 1440 293 1370 293 1211 c 0xf7
 293 862 1004 888 1004 430 c 0
 1004 151 741 -30 464 -30 c 0
 289 -30 132 53 54 149 c 1
 70 474 l 1
 195 456 l 1
 241 227 l 1
 285 157 378 94 492 94 c 0
 621 94 781 168 781 349 c 0xfa80
 781 664 84 662 84 1114 c 0
 84 1389 317 1544 556 1544 c 0
 687 1544 804 1502 900 1422 c 1
 900 1412 873 1078 873 1078 c 1xf7
EndSplineSet
Validated: 1
EndChar

StartChar: T
Encoding: 345 84 89
Width: 1361
VWidth: 0
Flags: HW
HStem: 0 90<349 400.559 946.171 996> 1401 111<195 554 787 1157>
VStem: 20 111<1122 1172.08> 554 233<147 1401> 1205 114<1120 1203.93>
LayerCount: 2
Fore
SplineSet
10 1512 m 1
 1361 1512 l 1
 1319 1102 l 1
 1205 1120 l 1
 1157 1401 l 1
 787 1401 l 1
 787 139 l 1
 1012 98 l 1
 996 0 l 1
 339 0 l 1
 349 90 l 1
 554 147 l 1
 554 1401 l 1
 195 1401 l 1
 131 1106 l 1
 20 1122 l 1
 10 1512 l 1
EndSplineSet
Validated: 1
EndChar

StartChar: Tbar
Encoding: 346 358 90
Width: 1361
VWidth: 0
Flags: HW
HStem: 0 90<349 400.559 946.171 996> 1401 111<195 554 787 1157> 1677 122<421 941>
VStem: 20 111<1122 1172.08> 554 233<147 1401> 1205 114<1120 1203.93>
LayerCount: 2
Fore
SplineSet
421 1799 m 1
 957 1799 l 1
 941 1677 l 1
 405 1677 l 1
 421 1799 l 1
10 1512 m 1
 1361 1512 l 1
 1319 1102 l 1
 1205 1120 l 1
 1157 1401 l 1
 787 1401 l 1
 787 139 l 1
 1012 98 l 1
 996 0 l 1
 339 0 l 1
 349 90 l 1
 554 147 l 1
 554 1401 l 1
 195 1401 l 1
 131 1106 l 1
 20 1122 l 1
 10 1512 l 1
EndSplineSet
Validated: 1
EndChar

StartChar: Tcaron
Encoding: 347 356 91
Width: 1361
VWidth: 0
Flags: HW
HStem: 0 90<349 400.559 946.171 996> 1401 111<195 554 787 1157>
VStem: 20 111<1122 1172.08> 554 233<147 1401> 1205 114<1120 1203.93>
DStem2: 502 1932 404 1857 0.735191 -0.67786<0 251.695> 695 1757 689 1673 0.692049 0.72185<0 227.244>
LayerCount: 2
Fore
SplineSet
622 1656 m 1
 404 1857 l 1
 502 1932 l 1
 683 1757 l 1
 695 1757 l 1
 845 1928 l 1
 898 1891 l 1
 689 1673 l 1
 622 1656 l 1
10 1512 m 1
 1361 1512 l 1
 1319 1102 l 1
 1205 1120 l 1
 1157 1401 l 1
 787 1401 l 1
 787 139 l 1
 1012 98 l 1
 996 0 l 1
 339 0 l 1
 349 90 l 1
 554 147 l 1
 554 1401 l 1
 195 1401 l 1
 131 1106 l 1
 20 1122 l 1
 10 1512 l 1
EndSplineSet
Validated: 1
EndChar

StartChar: Tcedilla
Encoding: 348 354 92
Width: 1361
VWidth: 0
Flags: HW
HStem: 0 90<349 400.559 946.171 996> 1401 111<195 554 787 1157>
VStem: 20 111<1122 1172.08> 554 233<147 1401> 651 162<-369.819 -214.37> 1205 114<1120 1203.93>
LayerCount: 2
Fore
SplineSet
705 -92 m 1xf4
 751 -132 813 -193 813 -275 c 0
 813 -371 711 -432 570 -474 c 1
 546 -402 l 1
 616 -378 651 -337 651 -301 c 0xec
 651 -259 606 -209 562 -167 c 1
 678 0 l 1
 339 0 l 1
 349 90 l 1
 554 147 l 1
 554 1401 l 1
 195 1401 l 1
 131 1106 l 1
 20 1122 l 1
 10 1512 l 1
 1361 1512 l 1
 1319 1102 l 1
 1205 1120 l 1
 1157 1401 l 1
 787 1401 l 1
 787 139 l 1
 1012 98 l 1
 996 0 l 1
 768 0 l 1
 705 -92 l 1xf4
EndSplineSet
Validated: 1
EndChar

StartChar: Tcommaaccent
Encoding: 349 538 93
Width: 1361
VWidth: 0
Flags: HW
HStem: -474 65<546.148 598.14> 0 90<349 400.559 946.171 996> 1401 111<195 554 787 1157>
VStem: 20 111<1122 1172.08> 554 233<147 1401> 642 134<-368.775 -235.05> 1205 114<1120 1203.93>
LayerCount: 2
Fore
SplineSet
653 -103 m 0xf6
 701 -103 776 -139 776 -247 c 0
 776 -313 731 -431 551 -474 c 1
 529 -409 l 1
 615 -388 642 -344 642 -300 c 0
 642 -260 572 -207 545 -204 c 1
 556 -152 595 -103 653 -103 c 0xf6
10 1512 m 1
 1361 1512 l 1
 1319 1102 l 1
 1205 1120 l 1
 1157 1401 l 1
 787 1401 l 1
 787 139 l 1
 1012 98 l 1
 996 0 l 1
 339 0 l 1
 349 90 l 1
 554 147 l 1
 554 1401 l 1xfa
 195 1401 l 1
 131 1106 l 1
 20 1122 l 1
 10 1512 l 1
EndSplineSet
Validated: 1
EndChar

StartChar: Thorn
Encoding: 350 222 94
Width: 1236
VWidth: 0
Flags: HW
HStem: -2 90<40 91.5593 695.264 749> 315 111<554.127 817.945> 1126 119<478 801.916> 1420 92<36 86.1227 621.861 685>
VStem: 245 233<147 1121.81 1241 1369> 986 251<606.283 950.843>
LayerCount: 2
Fore
SplineSet
245 145 m 1
 245 1369 l 1
 24 1420 l 1
 36 1512 l 1
 697 1512 l 1
 685 1420 l 1
 478 1373 l 1
 478 1241 l 1
 528 1243 578 1245 628 1245 c 0
 945 1245 1237 1158 1237 803 c 0
 1237 514 992 315 697 315 c 0
 653 315 606 317 556 323 c 1
 546 353 536 378 536 426 c 1
 558 424 578 426 598 426 c 0
 859 426 986 542 986 759 c 0
 986 966 871 1126 606 1126 c 0
 556 1126 478 1118 478 1118 c 1
 478 147 l 1
 765 100 l 1
 749 -2 l 1
 28 -2 l 1
 40 88 l 1
 245 145 l 1
EndSplineSet
Validated: 1
EndChar

StartChar: U
Encoding: 351 85 95
Width: 1664
VWidth: 0
Flags: HW
HStem: -32 161<683.712 1090.16> 1420 92<26 73.2471 610.471 673 1080 1130.12 1586.39 1648>
VStem: 235 233<363.083 1369> 1287 153<339.539 1369>
LayerCount: 2
Fore
SplineSet
891 129 m 0
 1136 129 1286 269 1287 586 c 2
 1289 1369 l 1
 1068 1420 l 1
 1080 1512 l 1
 1662 1512 l 1
 1648 1420 l 1
 1446 1373 l 1
 1440 626 l 2
 1436 188 1253 -32 831 -32 c 0
 550 -32 235 58 235 570 c 2
 235 1369 l 1
 10 1420 l 1
 26 1512 l 1
 685 1512 l 1
 673 1420 l 1
 468 1373 l 1
 468 620 l 2
 468 273 642 129 891 129 c 0
EndSplineSet
Validated: 1
EndChar

StartChar: Uacute
Encoding: 352 218 96
Width: 1664
VWidth: 0
Flags: HW
HStem: -32 161<683.712 1090.16> 1420 92<26 73.2471 610.471 673 1080 1130.12 1586.39 1648>
VStem: 235 233<363.083 1369> 1287 153<339.539 1369>
LayerCount: 2
Fore
SplineSet
891 129 m 0
 1136 129 1286 269 1287 586 c 2
 1289 1369 l 1
 1068 1420 l 1
 1080 1512 l 1
 1662 1512 l 1
 1648 1420 l 1
 1446 1373 l 1
 1440 626 l 2
 1436 188 1253 -32 831 -32 c 0
 550 -32 235 58 235 570 c 2
 235 1369 l 1
 10 1420 l 1
 26 1512 l 1
 685 1512 l 1
 673 1420 l 1
 468 1373 l 1
 468 620 l 2
 468 273 642 129 891 129 c 0
971 2074 m 1
 1107 2026 l 1
 884 1640 l 1
 822 1679 l 1
 971 2074 l 1
EndSplineSet
Validated: 1
EndChar

StartChar: Ucaron
Encoding: 353 467 97
Width: 1664
VWidth: 0
Flags: HW
HStem: -32 161<683.712 1090.16> 1420 92<26 73.2471 610.471 673 1080 1130.12 1586.39 1648>
VStem: 235 233<363.083 1369> 1287 153<339.539 1369>
DStem2: 715 1932 617 1857 0.735191 -0.67786<0 251.695> 908 1757 902 1673 0.692049 0.72185<0 227.244>
LayerCount: 2
Fore
SplineSet
835 1656 m 1
 617 1857 l 1
 715 1932 l 1
 896 1757 l 1
 908 1757 l 1
 1058 1928 l 1
 1111 1891 l 1
 902 1673 l 1
 835 1656 l 1
891 129 m 0
 1136 129 1286 269 1287 586 c 2
 1289 1369 l 1
 1068 1420 l 1
 1080 1512 l 1
 1662 1512 l 1
 1648 1420 l 1
 1446 1373 l 1
 1440 626 l 2
 1436 188 1253 -32 831 -32 c 0
 550 -32 235 58 235 570 c 2
 235 1369 l 1
 10 1420 l 1
 26 1512 l 1
 685 1512 l 1
 673 1420 l 1
 468 1373 l 1
 468 620 l 2
 468 273 642 129 891 129 c 0
EndSplineSet
Validated: 1
EndChar

StartChar: Ucircumflex
Encoding: 354 219 98
Width: 1664
VWidth: 0
Flags: HW
HStem: -32 161<683.712 1090.16> 1420 92<26 73.2471 610.471 673 1080 1130.12 1586.39 1648>
VStem: 235 233<363.083 1369> 1287 153<339.539 1369>
LayerCount: 2
Fore
SplineSet
906 1928 m 1
 1122 1703 l 1
 1062 1658 l 1
 863 1791 l 1
 851 1791 l 1
 681 1656 l 1
 635 1693 l 1
 839 1911 l 1
 906 1928 l 1
891 129 m 0
 1136 129 1286 269 1287 586 c 2
 1289 1369 l 1
 1068 1420 l 1
 1080 1512 l 1
 1662 1512 l 1
 1648 1420 l 1
 1446 1373 l 1
 1440 626 l 2
 1436 188 1253 -32 831 -32 c 0
 550 -32 235 58 235 570 c 2
 235 1369 l 1
 10 1420 l 1
 26 1512 l 1
 685 1512 l 1
 673 1420 l 1
 468 1373 l 1
 468 620 l 2
 468 273 642 129 891 129 c 0
EndSplineSet
Validated: 1
EndChar

StartChar: Udieresis
Encoding: 355 220 99
Width: 1664
VWidth: 0
Flags: HW
HStem: -32 161<683.712 1090.16> 1420 92<26 73.2471 610.471 673 1080 1130.12 1586.39 1648> 1669 192<625.24 799.144 950.24 1126.32>
VStem: 235 233<363.083 1369> 609 206<1686.74 1843.53> 934 209<1688.09 1842.21> 1287 153<339.539 1369>
LayerCount: 2
Fore
SplineSet
1036 1861 m 0
 1090 1861 1143 1823 1143 1767 c 0
 1143 1707 1090 1669 1036 1669 c 0
 984 1669 934 1707 934 1767 c 0
 934 1825 986 1861 1036 1861 c 0
711 1861 m 0
 765 1861 815 1823 815 1767 c 0
 815 1707 765 1669 711 1669 c 0
 659 1669 609 1707 609 1767 c 0
 609 1825 661 1861 711 1861 c 0
891 129 m 0
 1136 129 1286 269 1287 586 c 2
 1289 1369 l 1
 1068 1420 l 1
 1080 1512 l 1
 1662 1512 l 1
 1648 1420 l 1
 1446 1373 l 1
 1440 626 l 2
 1436 188 1253 -32 831 -32 c 0
 550 -32 235 58 235 570 c 2
 235 1369 l 1
 10 1420 l 1
 26 1512 l 1
 685 1512 l 1
 673 1420 l 1
 468 1373 l 1
 468 620 l 2
 468 273 642 129 891 129 c 0
EndSplineSet
Validated: 1
EndChar

StartChar: Udieresisacute
Encoding: 356 471 100
Width: 1664
VWidth: 0
Flags: HW
HStem: -32 161<683.712 1090.16> 1420 92<26 73.2471 610.471 673 1080 1130.12 1586.39 1648> 1649 192<625.24 799.144 950.24 1126.32>
VStem: 235 233<363.083 1369> 609 206<1666.74 1823.53> 934 209<1668.09 1822.21> 1287 153<339.539 1369>
LayerCount: 2
Fore
SplineSet
891 129 m 0
 1136 129 1286 269 1287 586 c 2
 1289 1369 l 1
 1068 1420 l 1
 1080 1512 l 1
 1662 1512 l 1
 1648 1420 l 1
 1446 1373 l 1
 1440 626 l 2
 1436 188 1253 -32 831 -32 c 0
 550 -32 235 58 235 570 c 2
 235 1369 l 1
 10 1420 l 1
 26 1512 l 1
 685 1512 l 1
 673 1420 l 1
 468 1373 l 1
 468 620 l 2
 468 273 642 129 891 129 c 0
1036 1841 m 0
 1090 1841 1143 1803 1143 1747 c 0
 1143 1687 1090 1649 1036 1649 c 0
 984 1649 934 1687 934 1747 c 0
 934 1805 986 1841 1036 1841 c 0
711 1841 m 0
 765 1841 815 1803 815 1747 c 0
 815 1687 765 1649 711 1649 c 0
 659 1649 609 1687 609 1747 c 0
 609 1805 661 1841 711 1841 c 0
1102 2221 m 1
 879 1835 l 1
 817 1874 l 1
 966 2269 l 1
 1102 2221 l 1
EndSplineSet
Validated: 1
EndChar

StartChar: Udieresiscaron
Encoding: 357 473 101
Width: 1664
VWidth: 0
Flags: HW
HStem: -32 161<683.712 1090.16> 1420 92<26 73.2471 610.471 673 1080 1130.12 1586.39 1648> 1625 192<625.24 799.144 950.24 1126.32>
VStem: 235 233<363.083 1369> 609 206<1642.74 1799.53> 934 209<1644.09 1798.21> 1287 153<339.539 1369>
DStem2: 726 2087 628 2012 0.735191 -0.67786<0 251.695> 919 1912 913 1828 0.692049 0.72185<0 227.244>
LayerCount: 2
Fore
SplineSet
891 129 m 0
 1136 129 1286 269 1287 586 c 2
 1289 1369 l 1
 1068 1420 l 1
 1080 1512 l 1
 1662 1512 l 1
 1648 1420 l 1
 1446 1373 l 1
 1440 626 l 2
 1436 188 1253 -32 831 -32 c 0
 550 -32 235 58 235 570 c 2
 235 1369 l 1
 10 1420 l 1
 26 1512 l 1
 685 1512 l 1
 673 1420 l 1
 468 1373 l 1
 468 620 l 2
 468 273 642 129 891 129 c 0
1036 1817 m 0
 1090 1817 1143 1779 1143 1723 c 0
 1143 1663 1090 1625 1036 1625 c 0
 984 1625 934 1663 934 1723 c 0
 934 1781 986 1817 1036 1817 c 0
711 1817 m 0
 765 1817 815 1779 815 1723 c 0
 815 1663 765 1625 711 1625 c 0
 659 1625 609 1663 609 1723 c 0
 609 1781 661 1817 711 1817 c 0
846 1811 m 1
 628 2012 l 1
 726 2087 l 1
 907 1912 l 1
 919 1912 l 1
 1069 2083 l 1
 1122 2046 l 1
 913 1828 l 1
 846 1811 l 1
EndSplineSet
Validated: 1
EndChar

StartChar: Udieresisgrave
Encoding: 358 475 102
Width: 1664
VWidth: 0
Flags: HW
HStem: -32 161<683.712 1090.16> 1420 92<26 73.2471 610.471 673 1080 1130.12 1586.39 1648> 1627 192<625.24 799.144 950.24 1126.32>
VStem: 235 233<363.083 1369> 609 206<1644.74 1801.53> 934 209<1646.09 1800.21> 1287 153<339.539 1369>
LayerCount: 2
Fore
SplineSet
891 129 m 0
 1136 129 1286 269 1287 586 c 2
 1289 1369 l 1
 1068 1420 l 1
 1080 1512 l 1
 1662 1512 l 1
 1648 1420 l 1
 1446 1373 l 1
 1440 626 l 2
 1436 188 1253 -32 831 -32 c 0
 550 -32 235 58 235 570 c 2
 235 1369 l 1
 10 1420 l 1
 26 1512 l 1
 685 1512 l 1
 673 1420 l 1
 468 1373 l 1
 468 620 l 2
 468 273 642 129 891 129 c 0
1036 1819 m 0
 1090 1819 1143 1781 1143 1725 c 0
 1143 1665 1090 1627 1036 1627 c 0
 984 1627 934 1665 934 1725 c 0
 934 1783 986 1819 1036 1819 c 0
711 1819 m 0
 765 1819 815 1781 815 1725 c 0
 815 1665 765 1627 711 1627 c 0
 659 1627 609 1665 609 1725 c 0
 609 1783 661 1819 711 1819 c 0
627 2190 m 1
 767 2236 l 1
 928 1830 l 1
 858 1788 l 1
 627 2190 l 1
EndSplineSet
Validated: 1
EndChar

StartChar: Udieresismacron
Encoding: 359 469 103
Width: 1664
VWidth: 0
Flags: HW
HStem: -32 161<683.712 1090.16> 1420 92<26 73.2471 610.471 673 1080 1130.12 1586.39 1648> 1607 192<625.24 799.144 950.24 1126.32> 1852 122<617 1137>
VStem: 235 233<363.083 1369> 609 206<1624.74 1781.53> 934 209<1626.09 1780.21> 1287 153<339.539 1369>
LayerCount: 2
Fore
SplineSet
891 129 m 0
 1136 129 1286 269 1287 586 c 2
 1289 1369 l 1
 1068 1420 l 1
 1080 1512 l 1
 1662 1512 l 1
 1648 1420 l 1
 1446 1373 l 1
 1440 626 l 2
 1436 188 1253 -32 831 -32 c 0
 550 -32 235 58 235 570 c 2
 235 1369 l 1
 10 1420 l 1
 26 1512 l 1
 685 1512 l 1
 673 1420 l 1
 468 1373 l 1
 468 620 l 2
 468 273 642 129 891 129 c 0
1036 1799 m 0
 1090 1799 1143 1761 1143 1705 c 0
 1143 1645 1090 1607 1036 1607 c 0
 984 1607 934 1645 934 1705 c 0
 934 1763 986 1799 1036 1799 c 0
711 1799 m 0
 765 1799 815 1761 815 1705 c 0
 815 1645 765 1607 711 1607 c 0
 659 1607 609 1645 609 1705 c 0
 609 1763 661 1799 711 1799 c 0
617 1974 m 1
 1153 1974 l 1
 1137 1852 l 1
 601 1852 l 1
 617 1974 l 1
EndSplineSet
Validated: 1
EndChar

StartChar: Ugrave
Encoding: 360 217 104
Width: 1664
VWidth: 0
Flags: HW
HStem: -32 161<683.712 1090.16> 1420 92<26 73.2471 610.471 673 1080 1130.12 1586.39 1648>
VStem: 235 233<363.083 1369> 1287 153<339.539 1369>
LayerCount: 2
Fore
SplineSet
611 2018 m 1
 751 2064 l 1
 912 1658 l 1
 842 1616 l 1
 611 2018 l 1
891 129 m 0
 1136 129 1286 269 1287 586 c 2
 1289 1369 l 1
 1068 1420 l 1
 1080 1512 l 1
 1662 1512 l 1
 1648 1420 l 1
 1446 1373 l 1
 1440 626 l 2
 1436 188 1253 -32 831 -32 c 0
 550 -32 235 58 235 570 c 2
 235 1369 l 1
 10 1420 l 1
 26 1512 l 1
 685 1512 l 1
 673 1420 l 1
 468 1373 l 1
 468 620 l 2
 468 273 642 129 891 129 c 0
EndSplineSet
Validated: 1
EndChar

StartChar: Uhungarumlaut
Encoding: 361 368 105
Width: 1664
VWidth: 0
Flags: HW
HStem: -32 161<683.712 1090.16> 1420 92<26 73.2471 610.471 673 1080 1130.12 1586.39 1648>
VStem: 235 233<363.083 1369> 1287 153<339.539 1369>
LayerCount: 2
Fore
SplineSet
1305 1861 m 1
 952 1658 l 1
 918 1719 l 1
 1217 1962 l 1
 1305 1861 l 1
1060 1867 m 1
 695 1658 l 1
 661 1719 l 1
 970 1972 l 1
 1060 1867 l 1
891 129 m 0
 1136 129 1286 269 1287 586 c 2
 1289 1369 l 1
 1068 1420 l 1
 1080 1512 l 1
 1662 1512 l 1
 1648 1420 l 1
 1446 1373 l 1
 1440 626 l 2
 1436 188 1253 -32 831 -32 c 0
 550 -32 235 58 235 570 c 2
 235 1369 l 1
 10 1420 l 1
 26 1512 l 1
 685 1512 l 1
 673 1420 l 1
 468 1373 l 1
 468 620 l 2
 468 273 642 129 891 129 c 0
EndSplineSet
Validated: 1
EndChar

StartChar: Umacron
Encoding: 362 362 106
Width: 1664
VWidth: 0
Flags: HW
HStem: -32 161<683.712 1090.16> 1420 92<26 73.2471 610.471 673 1080 1130.12 1586.39 1648> 1677 122<612 1132>
VStem: 235 233<363.083 1369> 1287 153<339.539 1369>
LayerCount: 2
Fore
SplineSet
612 1799 m 1
 1148 1799 l 1
 1132 1677 l 1
 596 1677 l 1
 612 1799 l 1
891 129 m 0
 1136 129 1286 269 1287 586 c 2
 1289 1369 l 1
 1068 1420 l 1
 1080 1512 l 1
 1662 1512 l 1
 1648 1420 l 1
 1446 1373 l 1
 1440 626 l 2
 1436 188 1253 -32 831 -32 c 0
 550 -32 235 58 235 570 c 2
 235 1369 l 1
 10 1420 l 1
 26 1512 l 1
 685 1512 l 1
 673 1420 l 1
 468 1373 l 1
 468 620 l 2
 468 273 642 129 891 129 c 0
EndSplineSet
Validated: 1
EndChar

StartChar: Uogonek
Encoding: 363 370 107
Width: 1664
VWidth: 0
Flags: HW
HStem: -470 62<1081.61 1091.71> -32 161<683.712 1007.9> 1420 92<26 73.2471 610.471 673 1080 1130.12 1586.39 1648>
VStem: 235 233<363.083 1369> 793 180<-314.166 -126.639> 1287 153<345.759 1369>
LayerCount: 2
Fore
SplineSet
973 -181 m 0
 973 -257 1014 -344 1124 -408 c 1
 1082 -470 l 1
 907 -452 793 -357 793 -253 c 0
 793 -195 811 -136 926 -28 c 1
 896 -31 864 -32 831 -32 c 0
 550 -32 235 58 235 570 c 2
 235 1369 l 1
 10 1420 l 1
 26 1512 l 1
 685 1512 l 1
 673 1420 l 1
 468 1373 l 1
 468 620 l 2
 468 273 642 129 891 129 c 0
 1136 129 1286 269 1287 586 c 2
 1289 1369 l 1
 1068 1420 l 1
 1080 1512 l 1
 1662 1512 l 1
 1648 1420 l 1
 1446 1373 l 1
 1440 626 l 2
 1437 268 1314 56 1040 -10 c 1
 976 -118 973 -160 973 -181 c 0
EndSplineSet
Validated: 1
EndChar

StartChar: Uring
Encoding: 364 366 108
Width: 1664
VWidth: 0
Flags: HW
HStem: -32 161<683.712 1090.16> 1420 92<26 73.2471 610.471 673 1080 1130.12 1586.39 1648> 1626 59<815.478 954.23> 1978 58<805.745 940.974>
VStem: 235 233<363.083 1369> 682 86<1717.09 1951.58> 989 86<1708.95 1943.92> 1287 153<339.539 1369>
LayerCount: 2
Fore
SplineSet
891 129 m 0
 1136 129 1286 269 1287 586 c 2
 1289 1369 l 1
 1068 1420 l 1
 1080 1512 l 1
 1662 1512 l 1
 1648 1420 l 1
 1446 1373 l 1
 1440 626 l 2
 1436 188 1253 -32 831 -32 c 0
 550 -32 235 58 235 570 c 2
 235 1369 l 1
 10 1420 l 1
 26 1512 l 1
 685 1512 l 1
 673 1420 l 1
 468 1373 l 1
 468 620 l 2
 468 273 642 129 891 129 c 0
872 1978 m 0
 800 1978 768 1909 768 1841 c 0
 768 1767 806 1685 884 1685 c 0
 950 1685 989 1735 989 1823 c 0
 989 1899 948 1978 872 1978 c 0
886 2036 m 0
 1002 2036 1075 1953 1075 1839 c 0
 1075 1729 994 1626 870 1626 c 0
 758 1626 682 1703 682 1827 c 0
 682 1939 772 2036 886 2036 c 0
EndSplineSet
Validated: 1
EndChar

StartChar: V
Encoding: 365 86 109
Width: 1562
VWidth: 0
Flags: HW
HStem: -30 21G<681.709 791.222> 1420 92<14 51.7544 592.471 655 1006 1058.68 1501.5 1550>
DStem2: 450 1373 179 1369 0.342498 -0.939519<0 1133.21> 829 305 873 6 0.354345 0.935115<0 1133.16>
LayerCount: 2
Fore
SplineSet
689 -30 m 1
 179 1369 l 1
 2 1420 l 1
 14 1512 l 1
 667 1512 l 1
 655 1420 l 1
 450 1373 l 1
 829 305 l 1
 1219 1369 l 1
 996 1420 l 1
 1006 1512 l 1
 1560 1512 l 1
 1550 1420 l 1
 1391 1373 l 1
 873 6 l 1
 689 -30 l 1
EndSplineSet
Validated: 1
EndChar

StartChar: W
Encoding: 366 87 110
Width: 2242
VWidth: 0
Flags: HW
HStem: -30 21G<570.325 685.444 1432.64 1542.44> 1420 92<20 57.5056 565.776 628 1687 1734.84 2173.55 2219>
DStem2: 424 1373 179 1369 0.272995 -0.962015<0 1082.95> 719 331 773 6 0.288645 0.957436<0 906.589> 1275 1482 1120 1157 0.258777 -0.965937<273.819 1172.3> 1576 349 1626 6 0.308913 0.95109<0 1068.04>
LayerCount: 2
Fore
SplineSet
1438 -30 m 1
 1120 1157 l 1
 773 6 l 1
 576 -30 l 1
 179 1369 l 1
 10 1420 l 1
 20 1512 l 1
 645 1512 l 1
 628 1420 l 1
 424 1373 l 1
 719 331 l 1
 1060 1452 l 1
 1275 1482 l 1
 1576 349 l 1
 1893 1369 l 1
 1673 1420 l 1
 1687 1512 l 1
 2233 1512 l 1
 2219 1420 l 1
 2070 1373 l 1
 1626 6 l 1
 1438 -30 l 1
EndSplineSet
Validated: 1
EndChar

StartChar: Wacute
Encoding: 367 7810 111
Width: 2242
VWidth: 0
Flags: HW
HStem: -30 21G<570.325 685.444 1432.64 1542.44> 1420 92<20 57.5056 565.776 628 1687 1734.84 2173.55 2219>
DStem2: 424 1373 179 1369 0.272995 -0.962015<0 1082.95> 719 331 773 6 0.288645 0.957436<0 906.589> 1275 1482 1120 1157 0.258777 -0.965937<273.819 1172.3> 1576 349 1626 6 0.308913 0.95109<0 1068.04>
LayerCount: 2
Fore
SplineSet
1405 2032 m 1
 1182 1646 l 1
 1120 1685 l 1
 1269 2080 l 1
 1405 2032 l 1
1438 -30 m 1
 1120 1157 l 1
 773 6 l 1
 576 -30 l 1
 179 1369 l 1
 10 1420 l 1
 20 1512 l 1
 645 1512 l 1
 628 1420 l 1
 424 1373 l 1
 719 331 l 1
 1060 1452 l 1
 1275 1482 l 1
 1576 349 l 1
 1893 1369 l 1
 1673 1420 l 1
 1687 1512 l 1
 2233 1512 l 1
 2219 1420 l 1
 2070 1373 l 1
 1626 6 l 1
 1438 -30 l 1
EndSplineSet
Validated: 1
EndChar

StartChar: Wcircumflex
Encoding: 368 372 112
Width: 2242
VWidth: 0
Flags: HW
HStem: -30 21G<570.325 685.444 1432.64 1542.44> 1420 92<20 57.5056 565.776 628 1687 1734.84 2173.55 2219>
DStem2: 424 1373 179 1369 0.272995 -0.962015<0 1082.95> 719 331 773 6 0.288645 0.957436<0 906.589> 1275 1482 1120 1157 0.258777 -0.965937<273.819 1172.3> 1576 349 1626 6 0.308913 0.95109<0 1068.04>
LayerCount: 2
Fore
SplineSet
1438 -30 m 1
 1120 1157 l 1
 773 6 l 1
 576 -30 l 1
 179 1369 l 1
 10 1420 l 1
 20 1512 l 1
 645 1512 l 1
 628 1420 l 1
 424 1373 l 1
 719 331 l 1
 1060 1452 l 1
 1275 1482 l 1
 1576 349 l 1
 1893 1369 l 1
 1673 1420 l 1
 1687 1512 l 1
 2233 1512 l 1
 2219 1420 l 1
 2070 1373 l 1
 1626 6 l 1
 1438 -30 l 1
1200 1854 m 1
 1416 1629 l 1
 1356 1584 l 1
 1157 1717 l 1
 1145 1717 l 1
 975 1582 l 1
 929 1619 l 1
 1133 1837 l 1
 1200 1854 l 1
EndSplineSet
Validated: 1
EndChar

StartChar: Wdieresis
Encoding: 369 7812 113
Width: 2242
VWidth: 0
Flags: HW
HStem: -30 21G<570.325 685.444 1432.64 1542.44> 1420 92<20 57.5056 565.776 628 1687 1734.84 2173.55 2219> 1669 192<918.24 1092.14 1243.24 1419.32>
VStem: 902 206<1686.74 1843.53> 1227 209<1688.09 1842.21>
DStem2: 424 1373 179 1369 0.272995 -0.962015<0 1082.95> 719 331 773 6 0.288645 0.957436<0 906.589> 1275 1482 1120 1157 0.258777 -0.965937<273.819 1172.3> 1576 349 1626 6 0.308913 0.95109<0 1068.04>
LayerCount: 2
Fore
SplineSet
1329 1861 m 0
 1383 1861 1436 1823 1436 1767 c 0
 1436 1707 1383 1669 1329 1669 c 0
 1277 1669 1227 1707 1227 1767 c 0
 1227 1825 1279 1861 1329 1861 c 0
1004 1861 m 0
 1058 1861 1108 1823 1108 1767 c 0
 1108 1707 1058 1669 1004 1669 c 0
 952 1669 902 1707 902 1767 c 0
 902 1825 954 1861 1004 1861 c 0
1438 -30 m 1
 1120 1157 l 1
 773 6 l 1
 576 -30 l 1
 179 1369 l 1
 10 1420 l 1
 20 1512 l 1
 645 1512 l 1
 628 1420 l 1
 424 1373 l 1
 719 331 l 1
 1060 1452 l 1
 1275 1482 l 1
 1576 349 l 1
 1893 1369 l 1
 1673 1420 l 1
 1687 1512 l 1
 2233 1512 l 1
 2219 1420 l 1
 2070 1373 l 1
 1626 6 l 1
 1438 -30 l 1
EndSplineSet
Validated: 1
EndChar

StartChar: Wgrave
Encoding: 370 7808 114
Width: 2242
VWidth: 0
Flags: HW
HStem: -30 21G<570.325 685.444 1432.64 1542.44> 1420 92<20 57.5056 565.776 628 1687 1734.84 2173.55 2219>
DStem2: 424 1373 179 1369 0.272995 -0.962015<0 1082.95> 719 331 773 6 0.288645 0.957436<0 906.589> 1275 1482 1120 1157 0.258777 -0.965937<273.819 1172.3> 1576 349 1626 6 0.308913 0.95109<0 1068.04>
LayerCount: 2
Fore
SplineSet
900 2024 m 1
 1040 2070 l 1
 1201 1664 l 1
 1131 1622 l 1
 900 2024 l 1
1438 -30 m 1
 1120 1157 l 1
 773 6 l 1
 576 -30 l 1
 179 1369 l 1
 10 1420 l 1
 20 1512 l 1
 645 1512 l 1
 628 1420 l 1
 424 1373 l 1
 719 331 l 1
 1060 1452 l 1
 1275 1482 l 1
 1576 349 l 1
 1893 1369 l 1
 1673 1420 l 1
 1687 1512 l 1
 2233 1512 l 1
 2219 1420 l 1
 2070 1373 l 1
 1626 6 l 1
 1438 -30 l 1
EndSplineSet
Validated: 1
EndChar

StartChar: X
Encoding: 371 88 115
Width: 1461
VWidth: 0
Flags: HW
HStem: 0 90<503.631 540 835 884.044 1399.73 1432> 1418 94<54 78.87 622.609 665 914 951.862 1391.51 1434>
DStem2: 173 147 357 143 0.606846 0.794819<108.48 108.48 974.572 1537.46> 476 1363 207 1365 0.547687 -0.836683<0 542.198 731.118 871.388 1205.93 1320.83>
LayerCount: 2
Fore
SplineSet
867 799 m 1
 1283 139 l 1
 1448 98 l 1
 1432 0 l 1
 819 0 l 1
 835 90 l 1
 1030 147 l 1
 711 643 l 1
 357 143 l 1
 558 102 l 1
 540 0 l 1
 4 0 l 1
 20 92 l 1
 173 147 l 1
 618 747 l 1
 207 1365 l 1
 40 1418 l 1
 54 1512 l 1
 679 1512 l 1
 665 1418 l 1
 476 1363 l 1
 777 912 l 1
 1106 1369 l 1
 900 1418 l 1
 914 1512 l 1
 1444 1512 l 1
 1434 1420 l 1
 1279 1373 l 1
 867 799 l 1
EndSplineSet
Validated: 1
EndChar

StartChar: Y
Encoding: 372 89 116
Width: 1471
VWidth: 0
Flags: HW
HStem: 0 90<452 497.775 1009.78 1056> 1420 92<54 84.9434 598.131 657 912 962.404 1393.94 1440>
VStem: 634 235<147 614>
DStem2: 464 1373 205 1369 0.494029 -0.869445<0 682.938> 801 779 869 643 0.498694 0.866778<0 671.48>
LayerCount: 2
Fore
SplineSet
869 643 m 1
 869 139 l 1
 1068 98 l 1
 1056 0 l 1
 440 0 l 1
 452 90 l 1
 634 147 l 1
 634 614 l 1
 205 1369 l 1
 38 1420 l 1
 54 1512 l 1
 671 1512 l 1
 657 1420 l 1
 464 1373 l 1
 801 779 l 1
 1122 1369 l 1
 900 1420 l 1
 912 1512 l 1
 1452 1512 l 1
 1440 1420 l 1
 1289 1373 l 1
 869 643 l 1
EndSplineSet
Validated: 1
EndChar

StartChar: Yacute
Encoding: 373 221 117
Width: 1471
VWidth: 0
Flags: HW
HStem: 0 90<452 497.775 1009.78 1056> 1420 92<54 84.9434 598.131 657 912 962.404 1393.94 1440>
VStem: 634 235<147 614>
DStem2: 464 1373 205 1369 0.494029 -0.869445<0 682.938> 801 779 869 643 0.498694 0.866778<0 671.48>
LayerCount: 2
Fore
SplineSet
971 2026 m 1
 748 1640 l 1
 686 1679 l 1
 835 2074 l 1
 971 2026 l 1
869 643 m 1
 869 139 l 1
 1068 98 l 1
 1056 0 l 1
 440 0 l 1
 452 90 l 1
 634 147 l 1
 634 614 l 1
 205 1369 l 1
 38 1420 l 1
 54 1512 l 1
 671 1512 l 1
 657 1420 l 1
 464 1373 l 1
 801 779 l 1
 1122 1369 l 1
 900 1420 l 1
 912 1512 l 1
 1452 1512 l 1
 1440 1420 l 1
 1289 1373 l 1
 869 643 l 1
EndSplineSet
Validated: 1
EndChar

StartChar: Ycircumflex
Encoding: 374 374 118
Width: 1471
VWidth: 0
Flags: HW
HStem: 0 90<452 497.775 1009.78 1056> 1420 92<54 84.9434 598.131 657 912 962.404 1393.94 1440>
VStem: 634 235<147 614>
DStem2: 464 1373 205 1369 0.494029 -0.869445<0 682.938> 801 779 869 643 0.498694 0.866778<0 671.48>
LayerCount: 2
Fore
SplineSet
763 1922 m 1
 979 1697 l 1
 919 1652 l 1
 720 1785 l 1
 708 1785 l 1
 538 1650 l 1
 492 1687 l 1
 696 1905 l 1
 763 1922 l 1
869 643 m 1
 869 139 l 1
 1068 98 l 1
 1056 0 l 1
 440 0 l 1
 452 90 l 1
 634 147 l 1
 634 614 l 1
 205 1369 l 1
 38 1420 l 1
 54 1512 l 1
 671 1512 l 1
 657 1420 l 1
 464 1373 l 1
 801 779 l 1
 1122 1369 l 1
 900 1420 l 1
 912 1512 l 1
 1452 1512 l 1
 1440 1420 l 1
 1289 1373 l 1
 869 643 l 1
EndSplineSet
Validated: 1
EndChar

StartChar: Ydieresis
Encoding: 375 376 119
Width: 1471
VWidth: 0
Flags: HW
HStem: 0 90<452 497.775 1009.78 1056> 1420 92<54 84.9434 598.131 657 912 962.404 1393.94 1440> 1683 192<485.24 659.144 810.24 986.324>
VStem: 469 206<1700.74 1857.53> 634 235<147 614> 794 209<1702.09 1856.21>
DStem2: 464 1373 205 1369 0.494029 -0.869445<0 682.938> 801 779 869 643 0.498694 0.866778<0 671.48>
LayerCount: 2
Fore
SplineSet
571 1875 m 0xf0
 625 1875 675 1837 675 1781 c 0
 675 1721 625 1683 571 1683 c 0
 519 1683 469 1721 469 1781 c 0
 469 1839 521 1875 571 1875 c 0xf0
896 1875 m 0
 950 1875 1003 1837 1003 1781 c 0
 1003 1721 950 1683 896 1683 c 0
 844 1683 794 1721 794 1781 c 0xe4
 794 1839 846 1875 896 1875 c 0
869 643 m 1xe8
 869 139 l 1
 1068 98 l 1
 1056 0 l 1
 440 0 l 1
 452 90 l 1
 634 147 l 1
 634 614 l 1
 205 1369 l 1
 38 1420 l 1
 54 1512 l 1
 671 1512 l 1
 657 1420 l 1
 464 1373 l 1
 801 779 l 1
 1122 1369 l 1
 900 1420 l 1
 912 1512 l 1
 1452 1512 l 1
 1440 1420 l 1
 1289 1373 l 1
 869 643 l 1xe8
EndSplineSet
Validated: 1
EndChar

StartChar: Ygrave
Encoding: 376 7922 120
Width: 1471
VWidth: 0
Flags: HW
HStem: 0 90<452 497.775 1009.78 1056> 1420 92<54 84.9434 598.131 657 912 962.404 1393.94 1440>
VStem: 634 235<147 614>
DStem2: 464 1373 205 1369 0.494029 -0.869445<0 682.938> 801 779 869 643 0.498694 0.866778<0 671.48>
LayerCount: 2
Fore
SplineSet
475 2018 m 1
 615 2064 l 1
 776 1658 l 1
 706 1616 l 1
 475 2018 l 1
869 643 m 1
 869 139 l 1
 1068 98 l 1
 1056 0 l 1
 440 0 l 1
 452 90 l 1
 634 147 l 1
 634 614 l 1
 205 1369 l 1
 38 1420 l 1
 54 1512 l 1
 671 1512 l 1
 657 1420 l 1
 464 1373 l 1
 801 779 l 1
 1122 1369 l 1
 900 1420 l 1
 912 1512 l 1
 1452 1512 l 1
 1440 1420 l 1
 1289 1373 l 1
 869 643 l 1
EndSplineSet
Validated: 1
EndChar

StartChar: Z
Encoding: 377 90 121
Width: 1226
VWidth: 0
Flags: HW
HStem: 0 122<261 954> 1098 21G<59.9091 165.288> 1397 115<253 906>
DStem2: 0 126 261 122 0.582422 0.812886<148.761 1560.85>
LayerCount: 2
Fore
SplineSet
62 1512 m 1
 1191 1512 l 1
 1191 1420 l 1
 261 122 l 1
 954 122 l 1
 1104 426 l 1
 1217 408 l 1
 1148 0 l 1
 10 0 l 1
 0 126 l 1
 906 1397 l 1
 253 1397 l 1
 159 1098 l 1
 50 1120 l 1
 62 1512 l 1
EndSplineSet
Validated: 1
EndChar

StartChar: Zacute
Encoding: 378 377 122
Width: 1226
VWidth: 0
Flags: HW
HStem: 0 122<261 954> 1098 21G<59.9091 165.288> 1397 115<253 906>
DStem2: 0 126 261 122 0.582422 0.812886<148.761 1560.85>
LayerCount: 2
Fore
SplineSet
803 2032 m 1
 580 1646 l 1
 518 1685 l 1
 667 2080 l 1
 803 2032 l 1
62 1512 m 1
 1191 1512 l 1
 1191 1420 l 1
 261 122 l 1
 954 122 l 1
 1104 426 l 1
 1217 408 l 1
 1148 0 l 1
 10 0 l 1
 0 126 l 1
 906 1397 l 1
 253 1397 l 1
 159 1098 l 1
 50 1120 l 1
 62 1512 l 1
EndSplineSet
Validated: 1
EndChar

StartChar: Zcaron
Encoding: 379 381 123
Width: 1226
VWidth: 0
Flags: HW
HStem: 0 122<261 954> 1098 21G<59.9091 165.288> 1397 115<253 906>
DStem2: 0 126 261 122 0.582422 0.812886<148.761 1560.85> 456 1932 358 1857 0.735191 -0.67786<0 251.695> 649 1757 643 1673 0.692049 0.72185<0 227.244>
LayerCount: 2
Fore
SplineSet
576 1656 m 1
 358 1857 l 1
 456 1932 l 1
 637 1757 l 1
 649 1757 l 1
 799 1928 l 1
 852 1891 l 1
 643 1673 l 1
 576 1656 l 1
62 1512 m 1
 1191 1512 l 1
 1191 1420 l 1
 261 122 l 1
 954 122 l 1
 1104 426 l 1
 1217 408 l 1
 1148 0 l 1
 10 0 l 1
 0 126 l 1
 906 1397 l 1
 253 1397 l 1
 159 1098 l 1
 50 1120 l 1
 62 1512 l 1
EndSplineSet
Validated: 1
EndChar

StartChar: Zdotaccent
Encoding: 380 379 124
Width: 1226
VWidth: 0
Flags: HW
HStem: 0 122<261 954> 1098 21G<59.9091 165.288> 1397 115<253 906> 1654 288<511.5 716.5>
VStem: 468 293<1698.75 1900.42>
DStem2: 0 126 261 122 0.582422 0.812886<148.761 1560.85>
LayerCount: 2
Fore
SplineSet
612 1942 m 0
 692 1942 761 1881 761 1803 c 0
 761 1721 692 1654 612 1654 c 0
 532 1654 468 1723 468 1805 c 0
 468 1883 536 1942 612 1942 c 0
62 1512 m 1
 1191 1512 l 1
 1191 1420 l 1
 261 122 l 1
 954 122 l 1
 1104 426 l 1
 1217 408 l 1
 1148 0 l 1
 10 0 l 1
 0 126 l 1
 906 1397 l 1
 253 1397 l 1
 159 1098 l 1
 50 1120 l 1
 62 1512 l 1
EndSplineSet
Validated: 1
EndChar

StartChar: a
Encoding: 381 97 125
Width: 1054
VWidth: 0
Flags: HW
HStem: -30 150<254.5 503.679> 2 104<974 1020> 520 70<519.006 641> 978 118<338.857 549.413>
VStem: 80 213<157.862 354.908> 122 169<781.485 929.05> 641 198<189.138 520 586.94 879.067>
LayerCount: 2
Fore
SplineSet
641 520 m 1xba
 376 468 293 377 293 261 c 0
 293 199 340 120 430 120 c 0
 514 120 601 183 641 229 c 1
 641 520 l 1xba
853 -22 m 0
 712 -22 665 69 665 141 c 2
 665 159 l 1
 651 159 l 1
 619 95 518 -30 319 -30 c 0
 190 -30 80 56 80 205 c 0xba
 80 384 244 562 641 590 c 1
 641 657 l 2
 641 822 595 978 426 978 c 0
 310 978 309 870 291 719 c 1
 227 719 122 725 122 845 c 0
 122 978 369 1096 538 1096 c 0
 755 1096 839 978 839 721 c 2
 839 279 l 2
 839 167 860 135 974 116 c 2
 1034 106 l 1
 1020 2 l 1x76
 962 -6 925 -22 853 -22 c 0
EndSplineSet
Validated: 1
EndChar

StartChar: aacute
Encoding: 382 225 126
Width: 1054
VWidth: 0
Flags: HW
HStem: -30 150<254.5 503.679> 2 104<974 1020> 520 70<519.006 641> 978 118<338.857 549.413>
VStem: 80 213<157.862 354.908> 122 169<781.485 929.05> 641 198<189.138 520 586.94 879.067>
LayerCount: 2
Fore
SplineSet
707 1584 m 1x32
 484 1198 l 1
 422 1237 l 1
 571 1632 l 1
 707 1584 l 1x32
641 520 m 1
 376 468 293 377 293 261 c 0
 293 199 340 120 430 120 c 0xba
 514 120 601 183 641 229 c 1
 641 520 l 1
853 -22 m 0
 712 -22 665 69 665 141 c 2
 665 159 l 1
 651 159 l 1
 619 95 518 -30 319 -30 c 0
 190 -30 80 56 80 205 c 0xba
 80 384 244 562 641 590 c 1
 641 657 l 2
 641 822 595 978 426 978 c 0
 310 978 309 870 291 719 c 1
 227 719 122 725 122 845 c 0
 122 978 369 1096 538 1096 c 0
 755 1096 839 978 839 721 c 2
 839 279 l 2
 839 167 860 135 974 116 c 2
 1034 106 l 1
 1020 2 l 1x76
 962 -6 925 -22 853 -22 c 0
EndSplineSet
Validated: 1
EndChar

StartChar: abreve
Encoding: 383 259 127
Width: 1054
VWidth: 0
Flags: HW
HStem: -30 150<254.5 503.679> 2 104<974 1020> 520 70<519.006 641> 978 118<338.857 549.413> 1229 132<402.148 640.971>
VStem: 80 213<157.862 354.908> 122 169<781.485 929.05> 290 66<1418.07 1454.98> 641 198<189.138 520 586.94 879.067>
LayerCount: 2
Fore
SplineSet
290 1445 m 1x3980
 346 1484 l 1
 356 1463 l 1
 380 1415 438 1361 520 1361 c 0
 606 1361 661 1413 693 1465 c 1
 705 1486 l 1
 755 1451 l 1
 747 1427 l 2
 714 1329 640 1229 520 1229 c 0
 391 1229 320 1327 296 1421 c 2
 290 1445 l 1x3980
641 520 m 1
 376 468 293 377 293 261 c 0
 293 199 340 120 430 120 c 0xbc80
 514 120 601 183 641 229 c 1
 641 520 l 1
853 -22 m 0
 712 -22 665 69 665 141 c 2
 665 159 l 1
 651 159 l 1
 619 95 518 -30 319 -30 c 0
 190 -30 80 56 80 205 c 0xbc80
 80 384 244 562 641 590 c 1
 641 657 l 2
 641 822 595 978 426 978 c 0
 310 978 309 870 291 719 c 1
 227 719 122 725 122 845 c 0
 122 978 369 1096 538 1096 c 0
 755 1096 839 978 839 721 c 2
 839 279 l 2
 839 167 860 135 974 116 c 2
 1034 106 l 1
 1020 2 l 1x7a80
 962 -6 925 -22 853 -22 c 0
EndSplineSet
Validated: 1
EndChar

StartChar: acaron
Encoding: 384 462 128
Width: 1054
VWidth: 0
Flags: HW
HStem: -30 150<254.5 503.679> 2 104<974 1020> 520 70<519.006 641> 978 118<338.857 549.413>
VStem: 80 213<157.862 354.908> 122 169<781.485 929.05> 641 198<189.138 520 586.94 879.067>
DStem2: 359 1484 261 1409 0.735191 -0.67786<0 251.695> 552 1309 546 1225 0.692049 0.72185<0 227.244>
LayerCount: 2
Fore
SplineSet
479 1208 m 1x32
 261 1409 l 1
 359 1484 l 1
 540 1309 l 1
 552 1309 l 1
 702 1480 l 1
 755 1443 l 1
 546 1225 l 1
 479 1208 l 1x32
641 520 m 1
 376 468 293 377 293 261 c 0
 293 199 340 120 430 120 c 0xba
 514 120 601 183 641 229 c 1
 641 520 l 1
853 -22 m 0
 712 -22 665 69 665 141 c 2
 665 159 l 1
 651 159 l 1
 619 95 518 -30 319 -30 c 0
 190 -30 80 56 80 205 c 0xba
 80 384 244 562 641 590 c 1
 641 657 l 2
 641 822 595 978 426 978 c 0
 310 978 309 870 291 719 c 1
 227 719 122 725 122 845 c 0
 122 978 369 1096 538 1096 c 0
 755 1096 839 978 839 721 c 2
 839 279 l 2
 839 167 860 135 974 116 c 2
 1034 106 l 1
 1020 2 l 1x76
 962 -6 925 -22 853 -22 c 0
EndSplineSet
Validated: 1
EndChar

StartChar: acircumflex
Encoding: 385 226 129
Width: 1054
VWidth: 0
Flags: HW
HStem: -30 150<254.5 503.679> 2 104<974 1020> 520 70<519.006 641> 978 118<338.857 549.413>
VStem: 80 213<157.862 354.908> 122 169<781.485 929.05> 641 198<189.138 520 586.94 879.067>
LayerCount: 2
Fore
SplineSet
551 1480 m 1x32
 767 1255 l 1
 707 1210 l 1
 508 1343 l 1
 496 1343 l 1
 326 1208 l 1
 280 1245 l 1
 484 1463 l 1
 551 1480 l 1x32
641 520 m 1
 376 468 293 377 293 261 c 0
 293 199 340 120 430 120 c 0xba
 514 120 601 183 641 229 c 1
 641 520 l 1
853 -22 m 0
 712 -22 665 69 665 141 c 2
 665 159 l 1
 651 159 l 1
 619 95 518 -30 319 -30 c 0
 190 -30 80 56 80 205 c 0xba
 80 384 244 562 641 590 c 1
 641 657 l 2
 641 822 595 978 426 978 c 0
 310 978 309 870 291 719 c 1
 227 719 122 725 122 845 c 0
 122 978 369 1096 538 1096 c 0
 755 1096 839 978 839 721 c 2
 839 279 l 2
 839 167 860 135 974 116 c 2
 1034 106 l 1
 1020 2 l 1x76
 962 -6 925 -22 853 -22 c 0
EndSplineSet
Validated: 1
EndChar

StartChar: acute
Encoding: 386 180 130
Width: 752
VWidth: 0
Flags: HW
HStem: 1640 434
VStem: 279 285
LayerCount: 2
Fore
SplineSet
564 2026 m 1
 341 1640 l 1
 279 1679 l 1
 428 2074 l 1
 564 2026 l 1
EndSplineSet
Validated: 1
EndChar

StartChar: adieresis
Encoding: 387 228 131
Width: 1054
VWidth: 0
Flags: HW
HStem: -30 150<254.5 503.679> 2 104<974 1020> 520 70<519.006 641> 978 118<338.857 549.413> 1221 192<269.24 443.144 594.24 770.324>
VStem: 80 213<157.862 354.908> 122 169<781.485 929.05> 253 206<1238.74 1395.53> 578 209<1240.09 1394.21> 641 198<189.138 520 586.94 879.067>
LayerCount: 2
Fore
SplineSet
680 1413 m 0x3880
 734 1413 787 1375 787 1319 c 0
 787 1259 734 1221 680 1221 c 0
 628 1221 578 1259 578 1319 c 0
 578 1377 630 1413 680 1413 c 0x3880
355 1413 m 0
 409 1413 459 1375 459 1319 c 0
 459 1259 409 1221 355 1221 c 0
 303 1221 253 1259 253 1319 c 0x39
 253 1377 305 1413 355 1413 c 0
641 520 m 1xbc40
 376 468 293 377 293 261 c 0
 293 199 340 120 430 120 c 0
 514 120 601 183 641 229 c 1
 641 520 l 1xbc40
853 -22 m 0
 712 -22 665 69 665 141 c 2
 665 159 l 1
 651 159 l 1
 619 95 518 -30 319 -30 c 0
 190 -30 80 56 80 205 c 0xbc40
 80 384 244 562 641 590 c 1
 641 657 l 2
 641 822 595 978 426 978 c 0
 310 978 309 870 291 719 c 1
 227 719 122 725 122 845 c 0
 122 978 369 1096 538 1096 c 0
 755 1096 839 978 839 721 c 2
 839 279 l 2
 839 167 860 135 974 116 c 2
 1034 106 l 1
 1020 2 l 1x7a40
 962 -6 925 -22 853 -22 c 0
EndSplineSet
Validated: 1
EndChar

StartChar: ae
Encoding: 388 230 132
Width: 1533
VWidth: 0
Flags: HW
HStem: -30 132<254.5 521.469 1024.07 1315.9> 498 90<457.953 641> 974 118<342.46 562.609 959.591 1175.8>
VStem: 80 213<131.009 348.875> 131 166<801.485 930.156> 641 198<320.045 498 616 819.082> 1231 215<659.774 918.398>
LayerCount: 2
Fore
SplineSet
641 498 m 1xf6
 336 450 293 363 293 247 c 0
 293 149 342 102 430 102 c 0
 528 102 641 193 641 295 c 2
 641 498 l 1xf6
839 616 m 1
 1221 661 l 1
 1227 681 1231 727 1231 747 c 0
 1231 892 1176 974 1060 974 c 0
 962 974 851 853 839 616 c 1
697 213 m 1
 643 52 492 -30 319 -30 c 0
 190 -30 80 42 80 191 c 0xf6
 80 370 201 508 641 588 c 1
 641 657 l 2
 641 822 601 974 440 974 c 0
 324 974 315 890 297 739 c 1
 233 739 131 745 131 865 c 0xee
 131 998 369 1096 538 1096 c 0
 675 1096 749 1046 783 944 c 1
 879 1040 1004 1092 1120 1092 c 0
 1297 1092 1446 964 1446 707 c 0
 1446 669 1434 584 1424 542 c 1
 839 518 l 1
 849 327 950 104 1177 104 c 0
 1263 104 1328 121 1454 189 c 1
 1478 126 l 1
 1382 26 1239 -36 1078 -36 c 0
 939 -36 801 32 713 169 c 0
 707 179 701 195 697 213 c 1
EndSplineSet
Validated: 1
EndChar

StartChar: agrave
Encoding: 389 224 133
Width: 1054
VWidth: 0
Flags: HW
HStem: -30 150<254.5 503.679> 2 104<974 1020> 520 70<519.006 641> 978 118<338.857 549.413>
VStem: 80 213<157.862 354.908> 122 169<781.485 929.05> 641 198<189.138 520 586.94 879.067>
LayerCount: 2
Fore
SplineSet
266 1570 m 1x32
 406 1616 l 1
 567 1210 l 1
 497 1168 l 1
 266 1570 l 1x32
853 -22 m 0
 712 -22 665 69 665 141 c 2
 665 159 l 1
 651 159 l 1
 619 95 518 -30 319 -30 c 0
 190 -30 80 56 80 205 c 0xba
 80 384 244 562 641 590 c 1
 641 657 l 2
 641 822 595 978 426 978 c 0
 310 978 309 870 291 719 c 1
 227 719 122 725 122 845 c 0
 122 978 369 1096 538 1096 c 0
 755 1096 839 978 839 721 c 2
 839 279 l 2
 839 167 860 135 974 116 c 2
 1034 106 l 1
 1020 2 l 1x76
 962 -6 925 -22 853 -22 c 0
641 520 m 1
 376 468 293 377 293 261 c 0
 293 199 340 120 430 120 c 0
 514 120 601 183 641 229 c 1
 641 520 l 1
EndSplineSet
Validated: 1
EndChar

StartChar: alef-hb
Encoding: 390 1488 134
Width: 1180
VWidth: 0
Flags: HW
HStem: 0 21G<165.872 432>
VStem: 169 132<394.15 570.602> 231 221<105.305 288.805> 830 145<798.067 949>
DStem2: 325 1064 143 966 0.609292 -0.792946<0 275.031 334.046 610.81 683.609 1101.81>
LayerCount: 2
Fore
SplineSet
263 1191 m 1xd0
 335 1159 l 1
 325 1064 l 1
 695 578 l 1
 699 578 l 1
 809 759 l 1
 824 787 830 806 830 818 c 0
 830 827 827 832 823 835 c 2
 671 960 l 1
 661 994 l 1
 769 1193 l 1
 831 1181 l 1
 835 1108 l 1
 926 1022 l 2
 950 999 975 972 975 926 c 0
 975 889 959 840 914 771 c 1
 739 520 l 1
 992 187 l 1
 952 -40 l 1
 916 -40 l 1
 367 675 l 1
 337 636 301 581 301 514 c 0xd0
 301 402 452 294 452 133 c 0
 452 81 440 42 424 0 c 1
 171 0 l 1
 151 78 l 1
 225 114 l 1
 229 123 231 133 231 144 c 0xb0
 231 211 169 320 169 426 c 0
 169 519 251 645 325 729 c 1
 143 966 l 1
 143 992 l 1
 263 1191 l 1xd0
EndSplineSet
Validated: 513
EndChar

StartChar: amacron
Encoding: 391 257 135
Width: 1054
VWidth: 0
Flags: HW
HStem: -30 150<254.5 503.679> 2 104<974 1020> 520 70<519.006 641> 978 118<338.857 549.413> 1235 122<261 781>
VStem: 80 213<157.862 354.908> 122 169<781.485 929.05> 641 198<189.138 520 586.94 879.067>
LayerCount: 2
Fore
SplineSet
261 1357 m 1x39
 797 1357 l 1
 781 1235 l 1
 245 1235 l 1
 261 1357 l 1x39
641 520 m 1
 376 468 293 377 293 261 c 0
 293 199 340 120 430 120 c 0xbd
 514 120 601 183 641 229 c 1
 641 520 l 1
853 -22 m 0
 712 -22 665 69 665 141 c 2
 665 159 l 1
 651 159 l 1
 619 95 518 -30 319 -30 c 0
 190 -30 80 56 80 205 c 0xbd
 80 384 244 562 641 590 c 1
 641 657 l 2
 641 822 595 978 426 978 c 0
 310 978 309 870 291 719 c 1
 227 719 122 725 122 845 c 0
 122 978 369 1096 538 1096 c 0
 755 1096 839 978 839 721 c 2
 839 279 l 2
 839 167 860 135 974 116 c 2
 1034 106 l 1
 1020 2 l 1x7b
 962 -6 925 -22 853 -22 c 0
EndSplineSet
Validated: 1
EndChar

StartChar: ampersand
Encoding: 392 38 136
Width: 1497
VWidth: 0
Flags: HW
HStem: -24 153<376.589 647.973> 926 92<982 1022 1432.86 1496> 1444 102<453.39 671.445>
VStem: 22 229<269.823 572.38> 199 195<1097.77 1347.39> 731 207<1084.19 1381.01>
DStem2: 659 857 434 765 0.678436 -0.73466<0 419.12 599.778 750.45> 779 289 807 141 0.597763 0.801673<-202.091 54.2847> 940 546 1026 462 0.533459 0.845826<0 392.97>
LayerCount: 2
Fore
SplineSet
576 940 m 1xec
 632 978 673 1016 697 1056 c 0
 721 1096 731 1143 731 1201 c 0
 731 1273 719 1331 691 1375 c 0
 663 1419 618 1444 558 1444 c 0
 506 1444 466 1423 438 1383 c 0
 410 1343 394 1297 394 1245 c 0
 394 1193 412 1136 450 1080 c 0
 488 1024 530 976 576 940 c 1xec
434 765 m 1
 414 767 l 1
 368 735 329 695 297 645 c 0
 265 595 251 538 251 478 c 0xf4
 251 418 259 363 277 311 c 0
 295 259 325 217 365 181 c 0
 405 145 458 129 516 129 c 0
 552 129 590 139 626 155 c 0
 662 171 695 195 719 221 c 0
 743 247 763 269 779 289 c 0
 795 309 807 327 815 343 c 1
 434 765 l 1
1289 879 m 1
 1026 462 l 1
 1231 241 1372 118 1444 96 c 2
 1484 84 l 1
 1466 0 l 1
 1420 -16 1371 -24 1319 -24 c 0
 1287 -24 1255 -18 1219 -2 c 0
 1183 14 1148 36 1112 64 c 0
 1076 92 1040 125 1008 155 c 0
 976 185 942 221 902 265 c 1
 858 201 823 161 807 141 c 1
 719 41 609 -16 476 -24 c 1
 444 -24 l 2
 356 -24 281 -6 217 32 c 0
 153 70 102 121 70 181 c 0
 38 241 22 309 22 381 c 0xf4
 22 570 134 724 359 853 c 1
 317 889 279 936 247 996 c 0
 215 1056 199 1119 199 1185 c 0xec
 199 1277 237 1360 313 1434 c 0
 389 1508 480 1546 582 1546 c 0
 634 1546 681 1542 721 1530 c 0
 761 1518 799 1502 831 1478 c 0
 863 1454 892 1421 910 1379 c 0
 928 1337 938 1287 938 1229 c 0
 938 1105 844 983 659 871 c 1
 659 857 l 1
 940 546 l 1
 1155 875 l 1
 970 926 l 1
 982 1018 l 1
 1508 1018 l 1
 1496 926 l 1
 1289 879 l 1
EndSplineSet
Validated: 1
EndChar

StartChar: aogonek
Encoding: 393 261 137
Width: 1054
VWidth: 0
Flags: HW
HStem: -470 62<1021.61 1031.71> -30 150<259.97 503.679> 2 104<983.562 1020> 520 70<519.006 641> 978 118<338.857 549.413>
VStem: 80 213<157.862 354.908> 122 169<781.485 929.05> 641 198<189.138 520 586.94 879.067> 733 180<-314.166 -127.557>
LayerCount: 2
Fore
SplineSet
913 -181 m 0xb880
 913 -257 954 -344 1064 -408 c 1
 1022 -470 l 1
 847 -452 733 -357 733 -253 c 0
 733 -193 752 -134 873 -22 c 1
 853 -22 l 2
 712 -22 665 69 665 141 c 2
 665 159 l 1
 651 159 l 1
 619 95 518 -30 319 -30 c 0
 190 -30 80 56 80 205 c 0xdc80
 80 384 244 562 641 590 c 1
 641 657 l 2
 641 822 595 978 426 978 c 0
 310 978 309 870 291 719 c 1
 227 719 122 725 122 845 c 0
 122 978 369 1096 538 1096 c 0
 755 1096 839 978 839 721 c 2
 839 279 l 2xdb
 839 167 860 135 974 116 c 2
 1034 106 l 1
 1020 2 l 1
 1007 0 995 -2 983 -4 c 1
 916 -116 913 -160 913 -181 c 0xb880
641 520 m 1xdd
 376 468 293 377 293 261 c 0
 293 199 340 120 430 120 c 0
 514 120 601 183 641 229 c 1
 641 520 l 1xdd
EndSplineSet
Validated: 1
EndChar

StartChar: approxequal
Encoding: 394 8776 138
Width: 1204
VWidth: 0
Flags: HW
HStem: 358 174<729.109 940.175> 413 174<209.218 416.891> 670 174<729.109 940.175> 725 174<209.218 416.891>
VStem: 100 67<341.576 370.898 653.576 682.898> 978 78<565.562 604 877.562 916>
DStem2: 331 898 273 725 0.995073 -0.0991402<-15.7864 521.851> 331 586 273 413 0.995073 -0.0991402<-15.7864 521.851>
LayerCount: 2
Fore
SplineSet
100 657 m 1x1c
 100 657 156 899 315 899 c 0x1c
 320 899 326 899 331 898 c 2
 873 844 l 1
 878 844 l 2
 923 844 978 918 978 918 c 1
 1056 916 l 1
 1056 916 992 670 833 670 c 0x2c
 827 670 821 670 815 671 c 2
 273 725 l 1
 268 725 l 2
 218 725 167 641 167 641 c 1
 100 657 l 1x1c
100 345 m 1
 100 345 156 587 315 587 c 0x4c
 320 587 326 587 331 586 c 2
 873 532 l 1
 878 532 l 2
 923 532 978 606 978 606 c 1
 1056 604 l 1
 1056 604 992 358 833 358 c 0x8c
 827 358 821 358 815 359 c 2
 273 413 l 1
 268 413 l 2x4c
 218 413 167 329 167 329 c 1
 100 345 l 1
EndSplineSet
Validated: 1
EndChar

StartChar: aring
Encoding: 395 229 139
Width: 1054
VWidth: 0
Flags: HW
HStem: -30 150<254.5 503.679> 2 104<974 1020> 520 70<519.006 641> 978 118<338.857 549.413> 1218 59<433.477 572.23> 1570 58<423.745 558.974>
VStem: 80 213<157.862 354.908> 122 169<781.485 929.05> 300 86<1309.09 1543.58> 607 86<1300.95 1535.92> 641 198<189.138 520 586.94 879.067>
LayerCount: 2
Fore
SplineSet
641 520 m 1xbea0
 376 468 293 377 293 261 c 0
 293 199 340 120 430 120 c 0
 514 120 601 183 641 229 c 1
 641 520 l 1xbea0
853 -22 m 0
 712 -22 665 69 665 141 c 2
 665 159 l 1
 651 159 l 1
 619 95 518 -30 319 -30 c 0
 190 -30 80 56 80 205 c 0xbea0
 80 384 244 562 641 590 c 1
 641 657 l 2
 641 822 595 978 426 978 c 0
 310 978 309 870 291 719 c 1
 227 719 122 725 122 845 c 0
 122 978 369 1096 538 1096 c 0
 755 1096 839 978 839 721 c 2
 839 279 l 2
 839 167 860 135 974 116 c 2
 1034 106 l 1
 1020 2 l 1x7da0
 962 -6 925 -22 853 -22 c 0
490 1570 m 0
 418 1570 386 1501 386 1433 c 0
 386 1359 424 1277 502 1277 c 0
 568 1277 607 1327 607 1415 c 0x3cc0
 607 1491 566 1570 490 1570 c 0
504 1628 m 0
 620 1628 693 1545 693 1431 c 0
 693 1321 612 1218 488 1218 c 0
 376 1218 300 1295 300 1419 c 0
 300 1531 390 1628 504 1628 c 0
EndSplineSet
Validated: 1
EndChar

StartChar: asciicircum
Encoding: 396 94 140
Width: 913
VWidth: 0
Flags: HW
HStem: 958 562
LayerCount: 2
Fore
SplineSet
486 1520 m 1
 845 1002 l 1
 777 958 l 1
 446 1305 l 1
 434 1305 l 1
 129 964 l 1
 68 1004 l 1
 420 1504 l 1
 486 1520 l 1
EndSplineSet
Validated: 1
EndChar

StartChar: asciitilde
Encoding: 397 126 141
Width: 1156
VWidth: 0
Flags: HW
HStem: 515 174<729.109 940.175> 570 174<209.218 416.891>
VStem: 100 67<498.576 527.898> 978 78<722.562 761>
DStem2: 331 743 273 570 0.995073 -0.0991402<-15.7864 521.851>
LayerCount: 2
Fore
SplineSet
100 502 m 1x70
 100 502 156 744 315 744 c 0x70
 320 744 326 744 331 743 c 2
 873 689 l 1
 878 689 l 2
 923 689 978 763 978 763 c 1
 1056 761 l 1
 1056 761 992 515 833 515 c 0xb0
 827 515 821 515 815 516 c 2
 273 570 l 1
 268 570 l 2
 218 570 167 486 167 486 c 1
 100 502 l 1x70
EndSplineSet
Validated: 1
EndChar

StartChar: asterisk
Encoding: 398 42 142
Width: 1019
VWidth: 0
Flags: HW
HStem: 1078 20G<434.566 491>
LayerCount: 2
Fore
SplineSet
863 841 m 1
 719 757 l 1
 538 1058 l 1
 600 1120 l 1
 863 841 l 1
345 721 m 1
 221 833 l 1
 452 1098 l 1
 530 1058 l 1
 345 721 l 1
76 1173 m 1
 143 1327 l 1
 466 1189 l 1
 452 1102 l 1
 76 1173 l 1
422 1572 m 1
 588 1556 l 1
 556 1207 l 1
 470 1193 l 1
 422 1572 l 1
908 1365 m 1
 944 1203 l 1
 600 1124 l 1
 560 1203 l 1
 908 1365 l 1
EndSplineSet
Validated: 1
EndChar

StartChar: at
Encoding: 399 64 143
Width: 1654
VWidth: 0
Flags: HW
HStem: -277 112<618.578 1107.2> -44 20G<1303 1326.58> 72 147<595.98 783.722 986 1194.64> 855 105<760.359 964.062> 1161 108<686.896 1142.58>
VStem: 68 189<184.33 672.231> 442 188<243.253 621.35> 1430 162<479.836 883.675>
DStem2: 902 309 1100 468 0.106876 0.994272<-8.9236 539.896>
LayerCount: 2
Fore
SplineSet
966 841 m 1
 942 847 897 855 859 855 c 0
 718 855 630 635 630 448 c 0
 630 265 671 219 733 219 c 0
 797 219 860 261 902 309 c 1
 966 841 l 1
916 1161 m 0
 516 1161 257 809 257 426 c 0
 257 67 489 -165 887 -165 c 0
 1060 -165 1247 -74 1303 -34 c 1
 1315 -24 l 1
 1359 -100 l 1
 1349 -106 l 1
 1253 -172 1092 -277 843 -277 c 0
 472 -277 68 -96 68 394 c 0
 68 878 436 1269 960 1269 c 0
 1301 1269 1592 1050 1592 717 c 0
 1592 388 1349 84 1016 84 c 0
 956 84 898 127 898 189 c 0
 898 203 900 227 900 227 c 1
 889 227 l 1
 841 155 753 72 661 72 c 0
 532 72 442 189 442 396 c 0
 442 743 719 960 924 960 c 0
 988 960 1054 956 1124 940 c 1
 1128 938 l 1
 1150 914 l 1
 1100 468 l 2
 1094 414 1084 309 1084 279 c 0
 1084 225 1092 205 1114 205 c 0
 1299 205 1430 420 1430 667 c 0
 1430 984 1203 1161 916 1161 c 0
EndSplineSet
Validated: 1
EndChar

StartChar: atilde
Encoding: 400 227 144
Width: 1054
VWidth: 0
Flags: HW
HStem: -30 150<254.5 503.679> 2 104<974 1020> 520 70<519.006 641> 978 118<338.857 549.413> 1244 127<562.082 733.083> 1283 125<297.662 459.238>
VStem: 80 213<157.862 354.908> 122 169<781.485 929.05> 641 198<189.138 520 586.94 879.067>
DStem2: 399 1407 357 1283 0.990312 -0.138863<-15.751 264.039>
LayerCount: 2
Fore
SplineSet
235 1235 m 1x3480
 235 1235 275 1408 383 1408 c 0x3480
 388 1408 394 1408 399 1407 c 2
 670 1371 l 1
 675 1371 l 2
 706 1371 743 1421 743 1421 c 1
 801 1419 l 1
 801 1419 756 1244 643 1244 c 0x3880
 638 1244 633 1244 628 1245 c 2
 357 1283 l 1
 354 1283 l 2
 319 1283 281 1225 281 1225 c 1
 235 1235 l 1x3480
641 520 m 1
 376 468 293 377 293 261 c 0
 293 199 340 120 430 120 c 0xb280
 514 120 601 183 641 229 c 1
 641 520 l 1
853 -22 m 0
 712 -22 665 69 665 141 c 2
 665 159 l 1
 651 159 l 1
 619 95 518 -30 319 -30 c 0
 190 -30 80 56 80 205 c 0xb280
 80 384 244 562 641 590 c 1
 641 657 l 2
 641 822 595 978 426 978 c 0
 310 978 309 870 291 719 c 1
 227 719 122 725 122 845 c 0
 122 978 369 1096 538 1096 c 0
 755 1096 839 978 839 721 c 2
 839 279 l 2
 839 167 860 135 974 116 c 2
 1034 106 l 1
 1020 2 l 1x7180
 962 -6 925 -22 853 -22 c 0
EndSplineSet
Validated: 1
EndChar

StartChar: ayin-hb
Encoding: 401 1506 145
Width: 1180
VWidth: 0
Flags: HW
HStem: -24 21G<70.2222 203>
VStem: 285 78<414.847 824.44> 655 72<1116.89 1177> 821 95<700.047 982.5>
DStem2: 96 185 88 -24 0.985212 0.171341<0 220.602 348.961 594.078>
LayerCount: 2
Fore
SplineSet
586 261 m 1
 628 269 663 299 675 333 c 1
 807 747 l 2
 817 778 821 799 821 815 c 0
 821 846 804 854 783 859 c 2
 614 906 l 1
 598 938 l 1
 655 1177 l 1
 727 1181 l 1
 745 1092 l 1
 859 1052 l 2
 895 1039 916 1014 916 951 c 0
 916 915 909 868 895 803 c 2
 767 245 l 1
 743 145 696 82 594 64 c 2
 88 -24 l 1
 56 12 l 1
 96 185 l 1
 314 219 l 1
 293 454 l 2
 287 522 285 595 285 641 c 0
 285 695 307 761 307 797 c 0
 307 835 267 849 221 863 c 1
 110 893 l 1
 88 922 l 1
 108 1167 l 1
 179 1175 l 1
 219 1074 l 1
 301 1048 l 2
 351 1032 407 1019 407 925 c 0
 407 900 403 868 394 829 c 2
 367 719 l 1
 365 706 363 690 363 673 c 0
 363 555 415 350 445 239 c 1
 586 261 l 1
EndSplineSet
Validated: 513
EndChar

StartChar: b
Encoding: 402 98 146
Width: 1180
VWidth: 0
Flags: HW
HStem: -28 134<423.269 741.221> 934 158<537.432 754.801> 1510 20G<77.7692 358.429>
VStem: 169 198<156.851 858.715 931.648 1347> 885 217<330.639 763.407>
LayerCount: 2
Fore
SplineSet
169 60 m 1
 169 1347 l 1
 -16 1412 l 1
 0 1504 l 1
 337 1530 l 1
 367 1502 l 1
 367 1032 l 1
 349 906 l 1
 363 906 l 1
 459 1014 574 1092 711 1092 c 0
 946 1092 1102 881 1102 574 c 0
 1102 188 817 -28 502 -28 c 0
 392 -28 267 -2 169 60 c 1
885 496 m 0
 885 677 835 934 628 934 c 0
 560 934 463 919 367 817 c 1
 367 189 l 1
 417 139 518 106 624 106 c 0
 763 106 885 225 885 496 c 0
EndSplineSet
Validated: 1
EndChar

StartChar: backslash
Encoding: 403 92 147
Width: 666
VWidth: 0
Flags: HW
HStem: -458 21G<538 689.372> 1529 20G<-22.3315 133>
DStem2: 133 1539 -28 1549 0.272684 -0.962104<0 2022.14>
LayerCount: 2
Fore
SplineSet
133 1539 m 1
 695 -458 l 1
 538 -448 l 1
 -28 1549 l 1
 133 1539 l 1
EndSplineSet
Validated: 1
EndChar

StartChar: bar
Encoding: 404 124 148
Width: 692
VWidth: 0
Flags: HW
HStem: -462 21G<283 424> 1512 20G<283 424>
VStem: 283 141<-446 1518>
LayerCount: 2
Fore
SplineSet
424 -462 m 1
 283 -446 l 1
 283 1532 l 1
 424 1518 l 1
 424 -462 l 1
EndSplineSet
Validated: 1
EndChar

StartChar: bet-hb
Encoding: 405 1489 149
Width: 1015
VWidth: 0
Flags: HW
HStem: -20 197<96 376.684> 873 197<235 816.336>
VStem: 823 105<475.962 871.599> 842 99<225 686.984>
LayerCount: 2
Fore
SplineSet
106 873 m 1xe0
 76 918 l 1
 94 1187 l 1
 183 1199 l 1
 235 1070 l 1
 797 1070 l 2
 883 1070 924 1014 928 831 c 2xe0
 941 225 l 1
 976 191 l 1
 944 20 l 1
 88 -20 l 1
 56 16 l 1
 96 177 l 1
 840 215 l 1
 841 250 842 291 842 328 c 0xd0
 842 353 842 378 841 398 c 2
 823 781 l 2
 819 859 799 875 755 875 c 2
 106 873 l 1xe0
EndSplineSet
Validated: 513
EndChar

StartChar: braceleft
Encoding: 406 123 150
Width: 811
VWidth: 0
Flags: HW
HStem: -460 123<660 751> 474 120<120 179> 1405 121<646 745>
VStem: 120 641
LayerCount: 2
Fore
SplineSet
660 -331 m 2
 751 -337 l 1
 761 -460 l 1
 636 -460 l 2
 132 -460 532 408 183 464 c 2
 120 474 l 1
 120 594 l 1
 179 604 l 1
 534 666 134 1526 632 1526 c 2
 755 1526 l 1
 745 1405 l 1
 646 1397 l 2
 563 1390 558 1269 558 1119 c 2
 558 1048 l 2
 558 836 548 596 351 540 c 1
 351 532 l 1
 714 428 436 -316 660 -331 c 2
EndSplineSet
Validated: 1
EndChar

StartChar: braceright
Encoding: 407 125 151
Width: 811
VWidth: 0
Flags: HW
HStem: -460 123<60 151> 474 120<632 691> 1405 121<66 165>
VStem: 56 635
LayerCount: 2
Fore
SplineSet
151 -331 m 2
 375 -316 97 428 460 532 c 1
 460 540 l 1
 263 596 253 836 253 1048 c 2
 253 1119 l 2
 253 1269 248 1390 165 1397 c 2
 66 1405 l 1
 56 1526 l 1
 179 1526 l 2
 677 1526 277 666 632 604 c 1
 691 594 l 1
 691 474 l 1
 628 464 l 2
 279 408 679 -460 175 -460 c 2
 50 -460 l 1
 60 -337 l 1
 151 -331 l 2
EndSplineSet
Validated: 1
EndChar

StartChar: bracketleft
Encoding: 408 91 152
Width: 588
VWidth: 0
Flags: HW
HStem: -456 117<370.901 516> 1418 108<376.332 512>
VStem: 81 184<-315 1393>
LayerCount: 2
Fore
SplineSet
516 -456 m 1
 81 -458 l 1
 82 1526 l 1
 512 1526 l 1
 526 1418 l 1
 265 1393 l 1
 265 -315 l 1
 528 -339 l 1
 516 -456 l 1
EndSplineSet
Validated: 1
EndChar

StartChar: bracketright
Encoding: 409 93 153
Width: 588
VWidth: 0
Flags: HW
HStem: -456 117<72 217.099> 1418 108<76 211.668>
VStem: 323 184<-315 1393>
LayerCount: 2
Fore
SplineSet
72 -456 m 1
 60 -339 l 1
 323 -315 l 1
 323 1393 l 1
 62 1418 l 1
 76 1526 l 1
 506 1526 l 1
 507 -458 l 1
 72 -456 l 1
EndSplineSet
Validated: 1
EndChar

StartChar: breve
Encoding: 410 728 154
Width: 766
VWidth: 0
Flags: HW
HStem: 1671 132<259.148 497.971>
VStem: 147 66<1860.07 1896.98>
LayerCount: 2
Fore
SplineSet
147 1887 m 1
 203 1926 l 1
 213 1905 l 1
 237 1857 295 1803 377 1803 c 0
 463 1803 518 1855 550 1907 c 1
 562 1928 l 1
 612 1893 l 1
 604 1869 l 2
 571 1771 497 1671 377 1671 c 0
 248 1671 177 1769 153 1863 c 2
 147 1887 l 1
EndSplineSet
Validated: 1
EndChar

StartChar: brokenbar
Encoding: 411 166 155
Width: 692
VWidth: 0
Flags: HW
HStem: -462 21G<278 423> 1512 20G<278 421>
VStem: 278 145<-446 499 657 1518>
LayerCount: 2
Fore
SplineSet
278 -446 m 1
 278 513 l 1
 423 499 l 1
 423 -462 l 1
 278 -446 l 1
278 657 m 1
 278 1532 l 1
 421 1518 l 1
 419 643 l 1
 278 657 l 1
EndSplineSet
Validated: 1
EndChar

StartChar: bullet
Encoding: 412 8226 156
Width: 666
VWidth: 0
Flags: HW
HStem: 480 421<207.121 460.89>
VStem: 120 428<569.016 819.63>
LayerCount: 2
Fore
SplineSet
333 901 m 0
 450 901 548 811 548 697 c 0
 548 577 450 480 333 480 c 0
 216 480 120 580 120 700 c 0
 120 814 219 901 333 901 c 0
EndSplineSet
Validated: 1
EndChar

StartChar: c
Encoding: 413 99 157
Width: 953
VWidth: 0
Flags: HW
HStem: -36 145<505.926 777.972> 980 114<414.556 641.429>
VStem: 80 219<375.067 749.262>
LayerCount: 2
Fore
SplineSet
660 109 m 0
 780 109 848 149 906 185 c 1
 936 114 l 1
 872 36 717 -36 560 -36 c 0
 267 -36 80 215 80 506 c 0
 80 867 333 1094 596 1094 c 0
 799 1094 889 1004 889 908 c 0
 889 836 837 789 735 781 c 1
 701 863 644 980 538 980 c 0
 393 980 299 835 299 616 c 0
 299 413 407 109 660 109 c 0
EndSplineSet
Validated: 1
EndChar

StartChar: cacute
Encoding: 414 263 158
Width: 953
VWidth: 0
Flags: HW
HStem: -36 145<505.926 777.972> 980 114<414.556 641.429>
VStem: 80 219<375.067 749.262>
LayerCount: 2
Fore
SplineSet
733 1604 m 1
 510 1218 l 1
 448 1257 l 1
 597 1652 l 1
 733 1604 l 1
660 109 m 0
 780 109 848 149 906 185 c 1
 936 114 l 1
 872 36 717 -36 560 -36 c 0
 267 -36 80 215 80 506 c 0
 80 867 333 1094 596 1094 c 0
 799 1094 889 1004 889 908 c 0
 889 836 837 789 735 781 c 1
 701 863 644 980 538 980 c 0
 393 980 299 835 299 616 c 0
 299 413 407 109 660 109 c 0
EndSplineSet
Validated: 1
EndChar

StartChar: caron
Encoding: 415 711 159
Width: 795
VWidth: 0
Flags: HW
HStem: 1650 276
VStem: 151 494
DStem2: 249 1926 151 1851 0.735191 -0.67786<0 251.695> 442 1751 436 1667 0.692049 0.72185<0 227.244>
LayerCount: 2
Fore
SplineSet
369 1650 m 1
 151 1851 l 1
 249 1926 l 1
 430 1751 l 1
 442 1751 l 1
 592 1922 l 1
 645 1885 l 1
 436 1667 l 1
 369 1650 l 1
EndSplineSet
Validated: 1
EndChar

StartChar: ccaron
Encoding: 416 269 160
Width: 953
VWidth: 0
Flags: HW
HStem: -36 145<505.926 777.972> 980 114<414.556 641.429>
VStem: 80 219<375.067 749.262>
DStem2: 386 1504 288 1429 0.735191 -0.67786<0 251.695> 579 1329 573 1245 0.692049 0.72185<0 227.244>
LayerCount: 2
Fore
SplineSet
506 1228 m 1
 288 1429 l 1
 386 1504 l 1
 567 1329 l 1
 579 1329 l 1
 729 1500 l 1
 782 1463 l 1
 573 1245 l 1
 506 1228 l 1
660 109 m 0
 780 109 848 149 906 185 c 1
 936 114 l 1
 872 36 717 -36 560 -36 c 0
 267 -36 80 215 80 506 c 0
 80 867 333 1094 596 1094 c 0
 799 1094 889 1004 889 908 c 0
 889 836 837 789 735 781 c 1
 701 863 644 980 538 980 c 0
 393 980 299 835 299 616 c 0
 299 413 407 109 660 109 c 0
EndSplineSet
Validated: 1
EndChar

StartChar: ccedilla
Encoding: 417 231 161
Width: 953
VWidth: 0
Flags: HW
HStem: 980 114<414.556 641.429>
VStem: 80 219<377.689 749.262> 522 162<-369.819 -214.37>
LayerCount: 2
Fore
SplineSet
576 -92 m 1
 622 -132 684 -193 684 -275 c 0
 684 -371 582 -432 441 -474 c 1
 417 -402 l 1
 487 -378 522 -337 522 -301 c 0
 522 -259 477 -209 433 -167 c 1
 525 -35 l 1
 252 -16 80 227 80 506 c 0
 80 867 333 1094 596 1094 c 0
 799 1094 889 1004 889 908 c 0
 889 836 837 789 735 781 c 1
 701 863 644 980 538 980 c 0
 393 980 299 835 299 616 c 0
 299 413 407 109 660 109 c 0
 780 109 848 149 906 185 c 1
 936 114 l 1
 880 45 753 -19 617 -33 c 1
 576 -92 l 1
EndSplineSet
Validated: 1
EndChar

StartChar: cdotaccent
Encoding: 418 267 162
Width: 953
VWidth: 0
Flags: HW
HStem: -36 145<505.926 777.972> 980 114<414.556 641.429> 1200 288<493.5 698.5>
VStem: 80 219<375.067 749.262> 450 293<1244.75 1446.42>
LayerCount: 2
Fore
SplineSet
594 1488 m 0
 674 1488 743 1427 743 1349 c 0
 743 1267 674 1200 594 1200 c 0
 514 1200 450 1269 450 1351 c 0
 450 1429 518 1488 594 1488 c 0
660 109 m 0
 780 109 848 149 906 185 c 1
 936 114 l 1
 872 36 717 -36 560 -36 c 0
 267 -36 80 215 80 506 c 0
 80 867 333 1094 596 1094 c 0
 799 1094 889 1004 889 908 c 0
 889 836 837 789 735 781 c 1
 701 863 644 980 538 980 c 0
 393 980 299 835 299 616 c 0
 299 413 407 109 660 109 c 0
EndSplineSet
Validated: 1
EndChar

StartChar: cedilla
Encoding: 419 184 163
Width: 467
VWidth: 0
Flags: HW
HStem: -474 478
VStem: 205 162<-369.819 -214.37>
LayerCount: 2
Fore
SplineSet
259 -92 m 1
 305 -132 367 -193 367 -275 c 0
 367 -371 265 -432 124 -474 c 1
 100 -402 l 1
 170 -378 205 -337 205 -301 c 0
 205 -259 160 -209 116 -167 c 1
 235 4 l 1
 325 4 l 1
 259 -92 l 1
EndSplineSet
Validated: 1
EndChar

StartChar: cent
Encoding: 420 162 164
Width: 975
VWidth: 0
Flags: HW
HStem: -36 145<506.934 777.972> 980 114<415.855 590.249>
VStem: 80 219<376.79 749.262>
DStem2: 231 -188 388 -178 0.276307 0.961069<52.991 220.959 1349.37 1497.23> 392 274 463 187 0.276137 0.961118<0 681.994>
LayerCount: 2
Fore
SplineSet
660 109 m 0
 780 109 848 149 906 185 c 1
 936 114 l 1
 872 36 717 -36 560 -36 c 0
 515 -36 473 -30 434 -19 c 1
 388 -178 l 1
 231 -188 l 1
 297 46 l 1
 160 143 80 316 80 506 c 0
 80 867 333 1094 596 1094 c 1
 641 1252 l 1
 802 1262 l 1
 747 1073 l 1
 844 1041 889 976 889 908 c 0
 889 836 837 789 735 781 c 1
 719 820 698 866 669 904 c 1
 463 187 l 1
 515 139 580 109 660 109 c 0
392 274 m 1
 591 970 l 1
 575 977 557 980 538 980 c 0
 393 980 299 835 299 616 c 0
 299 510 328 377 392 274 c 1
EndSplineSet
Validated: 1
EndChar

StartChar: circumflex
Encoding: 421 710 165
Width: 789
VWidth: 0
Flags: HW
HStem: 1652 270
VStem: 147 487
LayerCount: 2
Fore
SplineSet
418 1922 m 1
 634 1697 l 1
 574 1652 l 1
 375 1785 l 1
 363 1785 l 1
 193 1650 l 1
 147 1687 l 1
 351 1905 l 1
 418 1922 l 1
EndSplineSet
Validated: 1
EndChar

StartChar: colon
Encoding: 422 58 166
Width: 491
VWidth: 0
Flags: HW
HStem: 2 271<152.434 349.566> 765 271<152.434 349.566>
VStem: 114 274<40.8881 237.177 803.888 1000.9>
LayerCount: 2
Fore
SplineSet
251 1036 m 0
 325 1036 388 980 388 906 c 0
 388 828 325 765 251 765 c 0
 175 765 114 830 114 908 c 0
 114 982 177 1036 251 1036 c 0
251 273 m 0
 325 273 388 215 388 143 c 0
 388 65 325 2 251 2 c 0
 175 2 114 67 114 145 c 0
 114 217 177 273 251 273 c 0
EndSplineSet
Validated: 1
EndChar

StartChar: comma
Encoding: 423 44 167
Width: 443
VWidth: 0
Flags: HW
HStem: -381 84<47.2213 121.788> 44 221<93.169 211.154>
VStem: 245 167<-168.293 103.5>
LayerCount: 2
Fore
SplineSet
24 -297 m 1
 183 -255 245 -164 245 -86 c 0
 245 -18 190 44 104 44 c 0
 92 44 80 44 68 42 c 1
 58 68 50 90 50 118 c 0
 50 216 137 265 199 265 c 0
 283 265 412 195 412 12 c 0
 412 -102 371 -297 52 -381 c 1
 24 -297 l 1
EndSplineSet
Validated: 1
EndChar

StartChar: commaaccent
Encoding: 424 806 168
Width: 1199
VWidth: 0
Flags: HW
HStem: -474 65<21.1478 73.1396>
VStem: 117 134<-368.775 -235.05>
LayerCount: 2
Fore
SplineSet
128 -103 m 0
 176 -103 251 -139 251 -247 c 0
 251 -313 206 -431 26 -474 c 1
 4 -409 l 1
 90 -388 117 -344 117 -300 c 0
 117 -260 47 -207 20 -204 c 1
 31 -152 70 -103 128 -103 c 0
EndSplineSet
Validated: 1
EndChar

StartChar: copyright
Encoding: 425 169 169
Width: 1680
VWidth: 0
Flags: HW
HStem: -17 130<547.619 1001.79> 325 110<674.023 1000.58> 1213 86<643.764 955.007> 1481 124<562.393 1019.57>
VStem: 5 150<540.616 1049.32> 331 178<615.243 1005.46> 1007 64<989 1070.92> 1407 148<531.016 1058.13>
LayerCount: 2
Fore
SplineSet
155 799 m 0
 155 401 411 113 771 113 c 0
 1121 113 1407 395 1407 777 c 0
 1407 961 1357 1127 1257 1263 c 1
 1157 1397 983 1481 773 1481 c 0
 423 1481 155 1169 155 799 c 0
761 -17 m 0
 315 -17 5 329 5 785 c 0
 5 1249 363 1605 773 1605 c 0
 1021 1605 1227 1511 1355 1361 c 1
 1483 1209 1555 1011 1555 789 c 0
 1555 355 1207 -17 761 -17 c 0
847 435 m 0
 945 435 1031 463 1103 521 c 1
 1113 511 1125 493 1139 463 c 1
 1043 371 925 325 787 325 c 0
 539 325 331 501 331 787 c 0
 331 947 391 1105 545 1217 c 1
 623 1271 715 1299 823 1299 c 0
 937 1299 1025 1273 1091 1223 c 1
 1071 981 l 1
 1007 989 l 1
 979 1149 l 1
 945 1191 877 1213 779 1213 c 0
 617 1213 509 1075 509 837 c 0
 509 565 649 435 847 435 c 0
EndSplineSet
Validated: 1
EndChar

StartChar: currency
Encoding: 426 164 170
Width: 945
VWidth: 0
Flags: HW
HStem: 263 118<353.376 598.968> 815 119<352.047 598.17>
VStem: 157 128<452.054 746.294> 669 128<451.116 742.365>
LayerCount: 2
Fore
SplineSet
472 815 m 0
 360 815 285 729 285 600 c 0
 285 469 362 381 474 381 c 0
 590 381 669 466 669 592 c 0
 669 727 590 815 472 815 c 0
211 404 m 1
 179 454 157 530 157 594 c 0
 157 650 175 719 203 763 c 1
 94 867 l 1
 197 968 l 1
 291 861 l 1
 343 905 418 934 478 934 c 0
 544 934 621 909 669 873 c 1
 763 970 l 1
 855 863 l 1
 753 773 l 1
 779 727 797 654 797 596 c 0
 797 534 777 462 745 416 c 1
 859 311 l 1
 753 211 l 1
 657 321 l 1
 601 287 526 263 468 263 c 0
 420 263 355 283 305 313 c 1
 211 205 l 1
 108 309 l 1
 211 404 l 1
EndSplineSet
Validated: 1
EndChar

StartChar: d
Encoding: 427 100 171
Width: 1226
VWidth: 0
Flags: HW
HStem: -26 155<434.968 659.89> -6 102<1144 1185> 976 120<430.689 690.929> 1518 20G<759.333 1002.67>
VStem: 80 215<299.785 715.954> 813 199<137.637 159 200.719 867.89 1071.96 1351>
LayerCount: 2
Fore
SplineSet
825 159 m 1x7c
 813 159 l 1
 745 65 645 -26 476 -26 c 0xbc
 261 -26 80 151 80 486 c 0
 80 839 361 1096 612 1096 c 0
 692 1096 781 1070 821 1040 c 1
 831 1040 l 1
 815 1197 l 1
 815 1351 l 1
 630 1418 l 1
 647 1508 l 1
 984 1538 l 1
 1012 1508 l 1
 1012 261 l 2
 1012 132 1064 126 1144 108 c 2
 1199 96 l 1
 1185 -6 l 1
 1113 -24 1082 -28 1006 -28 c 0
 884 -28 825 49 825 151 c 2
 825 159 l 1x7c
813 239 m 1
 813 809 l 1
 749 915 636 976 554 976 c 0
 363 976 295 795 295 562 c 0
 295 273 411 129 564 129 c 0
 666 129 771 189 813 239 c 1
EndSplineSet
Validated: 1
EndChar

StartChar: dagger
Encoding: 428 8224 172
Width: 1122
VWidth: 0
Flags: HW
HStem: 1506 20G<480.377 643>
VStem: 472 177<-426 548.693> 490 140<-119.693 871 996 1512>
LayerCount: 2
Fore
SplineSet
630 996 m 1xa0
 1002 1006 l 1
 994 857 l 1
 630 871 l 1xa0
 649 -442 l 1
 472 -426 l 1xc0
 490 873 l 1
 120 865 l 1
 129 1006 l 1
 490 996 l 1
 480 1526 l 1
 643 1512 l 1
 630 996 l 1xa0
EndSplineSet
Validated: 1
EndChar

StartChar: daggerdbl
Encoding: 429 8225 173
Width: 1122
VWidth: 0
Flags: HW
HStem: 78 149<141 482> 88 125<181.53 482 622 994> 857 149<628 990> 865 141<129 488 628 914.704> 1506 20G<478.377 641>
VStem: 482 140<-98.448 88 213 871 996 1276.7>
LayerCount: 2
Fore
SplineSet
618 522 m 1x2c
 622 211 l 1
 1002 219 l 1
 994 78 l 1xac
 622 88 l 1
 632 -442 l 1
 470 -428 l 1
 482 88 l 1x4c
 133 78 l 1
 141 227 l 1x8c
 482 213 l 1
 492 606 l 1
 488 873 l 1
 120 865 l 1
 129 1006 l 1
 488 996 l 1
 478 1526 l 1
 641 1512 l 1
 628 996 l 1
 998 1006 l 1x5c
 990 857 l 1
 628 871 l 1
 618 522 l 1x2c
EndSplineSet
Validated: 1
EndChar

StartChar: dalet-hb
Encoding: 430 1491 174
Width: 959
VWidth: 0
Flags: HW
HStem: -12 21G<699 843> 875 195<163 706 789.656 847>
VStem: 685 122<179.507 603.045> 706 81<453.574 860>
LayerCount: 2
Fore
SplineSet
849 1070 m 1xd0
 881 1032 l 1
 847 875 l 1
 787 860 l 1xd0
 807 293 l 1
 843 8 l 1
 727 -12 l 1
 685 18 l 1xe0
 706 875 l 1
 42 875 l 1
 10 912 l 1
 30 1187 l 1
 120 1199 l 1
 163 1070 l 1
 849 1070 l 1xd0
EndSplineSet
Validated: 513
EndChar

StartChar: dcaron
Encoding: 431 271 175
Width: 1226
VWidth: 0
Flags: HW
HStem: -26 155<434.968 659.89> -6 102<1144 1185> 936 84<45.2213 119.788> 976 120<430.689 690.929> 1361 221<91.169 209.154> 1518 20G<759.333 1002.67>
VStem: 80 215<299.785 715.954> 243 167<1148.71 1420.5> 813 199<137.637 159 200.719 867.89 1071.96 1351>
LayerCount: 2
Fore
SplineSet
22 1020 m 1x2980
 181 1062 243 1153 243 1231 c 0
 243 1299 188 1361 102 1361 c 0
 90 1361 78 1361 66 1359 c 1
 56 1385 48 1407 48 1435 c 0
 48 1533 135 1582 197 1582 c 0
 281 1582 410 1512 410 1329 c 0
 410 1215 369 1020 50 936 c 1
 22 1020 l 1x2980
825 159 m 1
 813 159 l 1
 745 65 645 -26 476 -26 c 0x8280
 261 -26 80 151 80 486 c 0
 80 839 361 1096 612 1096 c 0
 692 1096 781 1070 821 1040 c 1
 831 1040 l 1
 815 1197 l 1
 815 1351 l 1
 630 1418 l 1
 647 1508 l 1
 984 1538 l 1
 1012 1508 l 1
 1012 261 l 2
 1012 132 1064 126 1144 108 c 2
 1199 96 l 1
 1185 -6 l 1x5680
 1113 -24 1082 -28 1006 -28 c 0
 884 -28 825 49 825 151 c 2
 825 159 l 1
813 239 m 1
 813 809 l 1
 749 915 636 976 554 976 c 0x9280
 363 976 295 795 295 562 c 0
 295 273 411 129 564 129 c 0
 666 129 771 189 813 239 c 1
EndSplineSet
Validated: 1
EndChar

StartChar: dcroat
Encoding: 432 273 176
Width: 1226
VWidth: 0
Flags: HW
HStem: -26 155<434.968 659.89> -6 102<1144 1185> 976 120<430.689 690.929> 1200 92<603 815 1012 1123> 1518 20G<759.333 1002.67>
VStem: 80 215<299.785 715.954> 815 197<137.637 159 200.719 863.773 1075.95 1200 1292 1351>
LayerCount: 2
Fore
SplineSet
825 159 m 1x7e
 813 159 l 1
 745 65 645 -26 476 -26 c 0xbe
 261 -26 80 151 80 486 c 0
 80 839 361 1096 612 1096 c 0
 692 1096 781 1070 821 1040 c 1
 831 1040 l 1
 815 1197 l 1
 815 1200 l 1
 587 1200 l 1
 603 1292 l 1
 815 1292 l 1
 815 1351 l 1
 630 1418 l 1
 647 1508 l 1
 984 1538 l 1
 1012 1508 l 1
 1012 1292 l 1
 1139 1292 l 1
 1123 1200 l 1
 1012 1200 l 1
 1012 261 l 2
 1012 132 1064 126 1144 108 c 2
 1199 96 l 1
 1185 -6 l 1
 1113 -24 1082 -28 1006 -28 c 0
 884 -28 825 49 825 151 c 2
 825 159 l 1x7e
813 239 m 1
 813 809 l 1
 749 915 636 976 554 976 c 0
 363 976 295 795 295 562 c 0
 295 273 411 129 564 129 c 0
 666 129 771 189 813 239 c 1
EndSplineSet
Validated: 1
EndChar

StartChar: degree
Encoding: 433 176 177
Width: 491
VWidth: 0
Flags: HW
HStem: 1153 58<178.438 317.027> 1504 58<168.667 303.826>
VStem: 44 87<1243.23 1480.55> 351 87<1233.13 1469.92>
LayerCount: 2
Fore
SplineSet
235 1504 m 0
 163 1504 131 1435 131 1367 c 0
 131 1293 169 1211 247 1211 c 0
 313 1211 351 1261 351 1349 c 0
 351 1425 311 1504 235 1504 c 0
249 1562 m 0
 365 1562 438 1479 438 1365 c 0
 438 1255 357 1153 233 1153 c 0
 121 1153 44 1229 44 1353 c 0
 44 1465 135 1562 249 1562 c 0
EndSplineSet
Validated: 1
EndChar

StartChar: dieresis
Encoding: 434 168 178
Width: 835
VWidth: 0
Flags: HW
HStem: 1683 192<167.24 341.144 492.24 668.324>
VStem: 151 206<1700.74 1857.53> 476 209<1702.09 1856.21>
LayerCount: 2
Fore
SplineSet
578 1875 m 0
 632 1875 685 1837 685 1781 c 0
 685 1721 632 1683 578 1683 c 0
 526 1683 476 1721 476 1781 c 0
 476 1839 528 1875 578 1875 c 0
253 1875 m 0
 307 1875 357 1837 357 1781 c 0
 357 1721 307 1683 253 1683 c 0
 201 1683 151 1721 151 1781 c 0
 151 1839 203 1875 253 1875 c 0
EndSplineSet
Validated: 1
EndChar

StartChar: dieresiscomb
Encoding: 435 776 179
Width: 0
VWidth: 0
Flags: HW
HStem: 1683 192<167.24 341.144 492.24 668.324>
VStem: 151 206<1700.74 1857.53> 476 209<1702.09 1856.21>
LayerCount: 2
Fore
SplineSet
578 1875 m 0
 632 1875 685 1837 685 1781 c 0
 685 1721 632 1683 578 1683 c 0
 526 1683 476 1721 476 1781 c 0
 476 1839 528 1875 578 1875 c 0
253 1875 m 0
 307 1875 357 1837 357 1781 c 0
 357 1721 307 1683 253 1683 c 0
 201 1683 151 1721 151 1781 c 0
 151 1839 203 1875 253 1875 c 0
EndSplineSet
Validated: 1
EndChar

StartChar: divide
Encoding: 436 247 180
Width: 1202
VWidth: 0
Flags: HW
HStem: 126 288<490.75 695.5> 552 129<114 1088> 811 287<490.75 695.5>
VStem: 448 291<169.75 373.75 854.75 1058.25>
LayerCount: 2
Fore
SplineSet
592 1098 m 0
 672 1098 739 1038 739 960 c 0
 739 878 672 811 592 811 c 0
 512 811 448 880 448 962 c 0
 448 1040 514 1098 592 1098 c 0
592 414 m 0
 672 414 739 353 739 275 c 0
 739 193 672 126 592 126 c 0
 512 126 448 195 448 277 c 0
 448 355 514 414 592 414 c 0
114 681 m 1
 1102 681 l 1
 1088 552 l 1
 100 552 l 1
 114 681 l 1
EndSplineSet
Validated: 1
EndChar

StartChar: dollar
Encoding: 437 36 181
Width: 1050
VWidth: 0
Flags: HW
HStem: -29 124<333.221 437 597 658.571> 1078 21G<753 874.57> 1436 97<372.545 444 596 654.208>
VStem: 70 125<384.632 456> 84 209<1071.17 1306.29> 437 160<-199 -29 1538.46 1696> 464 107<103 612 955 1434> 753 120<1092 1196.38> 781 223<241.875 478.031>
LayerCount: 2
Fore
SplineSet
571 612 m 1xe280
 571 103 l 1
 678 128 781 204 781 349 c 0
 781 468 689 543 571 612 c 1xe280
468 955 m 1
 468 1436 l 1
 369 1419 293 1349 293 1211 c 0xe8
 293 1094 367 1019 468 955 c 1
873 1078 m 1xeb
 753 1092 l 1xeb
 721 1325 l 1
 703 1361 642 1416 567 1434 c 1
 567 898 l 1
 767 791 1004 691 1004 430 c 0
 1004 196 820 31 597 -16 c 1
 597 -199 l 1
 437 -219 l 1
 437 -29 l 1
 273 -21 128 58 54 149 c 1
 70 474 l 1
 195 456 l 1xf480
 241 227 l 1
 281 163 363 104 464 95 c 1
 464 671 l 1
 280 770 84 879 84 1114 c 0
 84 1346 249 1492 444 1533 c 1
 444 1696 l 1
 596 1716 l 1
 596 1543 l 1
 711 1535 814 1494 900 1422 c 1
 900 1412 873 1078 873 1078 c 1xeb
EndSplineSet
Validated: 1
EndChar

StartChar: dotaccent
Encoding: 438 729 182
Width: 594
VWidth: 0
Flags: HW
HStem: 1648 288<194.5 399.5>
VStem: 151 293<1692.75 1894.42>
LayerCount: 2
Fore
SplineSet
295 1936 m 0
 375 1936 444 1875 444 1797 c 0
 444 1715 375 1648 295 1648 c 0
 215 1648 151 1717 151 1799 c 0
 151 1877 219 1936 295 1936 c 0
EndSplineSet
Validated: 1
EndChar

StartChar: dotaccentcomb
Encoding: 439 775 183
Width: 0
VWidth: 0
Flags: HW
HStem: 1632 261<180.598 373.743>
VStem: 147 261<1666.15 1858.95>
LayerCount: 2
Fore
SplineSet
408 1763 m 0
 408 1690 349 1632 276 1632 c 0
 204 1632 147 1691 147 1763 c 0
 147 1834 205 1893 276 1893 c 0
 348 1893 408 1835 408 1763 c 0
EndSplineSet
Validated: 1
EndChar

StartChar: dotbelowcomb
Encoding: 440 803 184
Width: 0
VWidth: 0
Flags: HW
HStem: -462 261<33.5976 226.743>
VStem: 0 261<-427.846 -235.051>
LayerCount: 2
Fore
SplineSet
261 -331 m 0
 261 -404 202 -462 129 -462 c 0
 57 -462 0 -403 0 -331 c 0
 0 -260 58 -201 129 -201 c 0
 201 -201 261 -259 261 -331 c 0
EndSplineSet
Validated: 1
EndChar

StartChar: dotlessi
Encoding: 441 305 185
Width: 696
VWidth: 0
Flags: HW
HStem: 0 96<74 132.937 594.877 643> 1056 20G<187.714 452>
VStem: 259 203<141 889>
LayerCount: 2
Fore
SplineSet
74 96 m 1
 259 141 l 1
 259 889 l 1
 74 956 l 1
 90 1048 l 1
 432 1076 l 1
 462 1046 l 1
 462 141 l 1
 657 98 l 1
 643 0 l 1
 60 0 l 1
 74 96 l 1
EndSplineSet
Validated: 1
EndChar

StartChar: e
Encoding: 442 101 186
Width: 1003
VWidth: 0
Flags: HW
HStem: -36 160<478.437 756.375> 974 118<405.896 625.434>
VStem: 74 217<345.889 542 637 749.972> 683 217<662.849 918.398>
LayerCount: 2
Fore
SplineSet
879 548 m 1
 291 542 l 1
 301 351 403 124 630 124 c 2
 637 124 l 2
 719 124 784 125 906 191 c 1
 932 126 l 1
 836 26 693 -36 532 -36 c 0
 303 -36 74 151 74 520 c 0
 74 885 339 1092 574 1092 c 0
 751 1092 900 964 900 707 c 0
 900 669 889 590 879 548 c 1
293 637 m 1
 675 663 l 1
 681 683 683 727 683 747 c 0
 683 892 630 974 514 974 c 0
 416 974 305 874 293 637 c 1
EndSplineSet
Validated: 1
EndChar

StartChar: eacute
Encoding: 443 233 187
Width: 1003
VWidth: 0
Flags: HW
HStem: -36 160<478.437 756.375> 974 118<405.896 625.434>
VStem: 74 217<345.889 542 637 749.972> 683 217<662.849 918.398>
LayerCount: 2
Fore
SplineSet
807 1578 m 1
 584 1192 l 1
 522 1231 l 1
 671 1626 l 1
 807 1578 l 1
293 637 m 1
 675 663 l 1
 681 683 683 727 683 747 c 0
 683 892 630 974 514 974 c 0
 416 974 305 874 293 637 c 1
879 548 m 1
 291 542 l 1
 301 351 403 124 630 124 c 2
 637 124 l 2
 719 124 784 125 906 191 c 1
 932 126 l 1
 836 26 693 -36 532 -36 c 0
 303 -36 74 151 74 520 c 0
 74 885 339 1092 574 1092 c 0
 751 1092 900 964 900 707 c 0
 900 669 889 590 879 548 c 1
EndSplineSet
Validated: 1
EndChar

StartChar: ecaron
Encoding: 444 283 188
Width: 1003
VWidth: 0
Flags: HW
HStem: -36 160<478.437 756.375> 974 118<405.896 625.434>
VStem: 74 217<345.889 542 637 749.972> 683 217<662.849 918.398>
DStem2: 373 1484 275 1409 0.735191 -0.67786<0 251.695> 566 1309 560 1225 0.692049 0.72185<0 227.244>
LayerCount: 2
Fore
SplineSet
493 1208 m 1
 275 1409 l 1
 373 1484 l 1
 554 1309 l 1
 566 1309 l 1
 716 1480 l 1
 769 1443 l 1
 560 1225 l 1
 493 1208 l 1
879 548 m 1
 291 542 l 1
 301 351 403 124 630 124 c 2
 637 124 l 2
 719 124 784 125 906 191 c 1
 932 126 l 1
 836 26 693 -36 532 -36 c 0
 303 -36 74 151 74 520 c 0
 74 885 339 1092 574 1092 c 0
 751 1092 900 964 900 707 c 0
 900 669 889 590 879 548 c 1
293 637 m 1
 675 663 l 1
 681 683 683 727 683 747 c 0
 683 892 630 974 514 974 c 0
 416 974 305 874 293 637 c 1
EndSplineSet
Validated: 1
EndChar

StartChar: ecircumflex
Encoding: 445 234 189
Width: 1003
VWidth: 0
Flags: HW
HStem: -36 160<478.437 756.375> 974 118<405.896 625.434>
VStem: 74 217<345.889 542 637 749.972> 683 217<662.849 918.398>
LayerCount: 2
Fore
SplineSet
565 1480 m 1
 781 1255 l 1
 721 1210 l 1
 522 1343 l 1
 510 1343 l 1
 340 1208 l 1
 294 1245 l 1
 498 1463 l 1
 565 1480 l 1
879 548 m 1
 291 542 l 1
 301 351 403 124 630 124 c 2
 637 124 l 2
 719 124 784 125 906 191 c 1
 932 126 l 1
 836 26 693 -36 532 -36 c 0
 303 -36 74 151 74 520 c 0
 74 885 339 1092 574 1092 c 0
 751 1092 900 964 900 707 c 0
 900 669 889 590 879 548 c 1
293 637 m 1
 675 663 l 1
 681 683 683 727 683 747 c 0
 683 892 630 974 514 974 c 0
 416 974 305 874 293 637 c 1
EndSplineSet
Validated: 1
EndChar

StartChar: edieresis
Encoding: 446 235 190
Width: 1003
VWidth: 0
Flags: HW
HStem: -36 160<478.437 756.375> 974 118<405.896 625.434> 1221 192<283.24 457.144 608.24 784.324>
VStem: 74 217<345.889 542 637 749.972> 267 206<1238.74 1395.53> 592 209<1240.09 1394.21> 683 217<662.849 918.398>
LayerCount: 2
Fore
SplineSet
694 1413 m 0xe4
 748 1413 801 1375 801 1319 c 0
 801 1259 748 1221 694 1221 c 0
 642 1221 592 1259 592 1319 c 0
 592 1377 644 1413 694 1413 c 0xe4
369 1413 m 0
 423 1413 473 1375 473 1319 c 0
 473 1259 423 1221 369 1221 c 0
 317 1221 267 1259 267 1319 c 0xe8
 267 1377 319 1413 369 1413 c 0
879 548 m 1
 291 542 l 1
 301 351 403 124 630 124 c 2
 637 124 l 2
 719 124 784 125 906 191 c 1
 932 126 l 1
 836 26 693 -36 532 -36 c 0
 303 -36 74 151 74 520 c 0
 74 885 339 1092 574 1092 c 0
 751 1092 900 964 900 707 c 0xf2
 900 669 889 590 879 548 c 1
293 637 m 1
 675 663 l 1
 681 683 683 727 683 747 c 0
 683 892 630 974 514 974 c 0
 416 974 305 874 293 637 c 1
EndSplineSet
Validated: 1
EndChar

StartChar: edotaccent
Encoding: 447 279 191
Width: 1003
VWidth: 0
Flags: HW
HStem: -36 160<478.437 756.375> 974 118<405.896 625.434> 1206 288<429.5 634.5>
VStem: 74 217<345.889 542 637 749.972> 386 293<1250.75 1452.42> 683 217<662.849 918.398>
LayerCount: 2
Fore
SplineSet
530 1494 m 0
 610 1494 679 1433 679 1355 c 0
 679 1273 610 1206 530 1206 c 0
 450 1206 386 1275 386 1357 c 0
 386 1435 454 1494 530 1494 c 0
879 548 m 1
 291 542 l 1
 301 351 403 124 630 124 c 2
 637 124 l 2
 719 124 784 125 906 191 c 1
 932 126 l 1
 836 26 693 -36 532 -36 c 0
 303 -36 74 151 74 520 c 0
 74 885 339 1092 574 1092 c 0
 751 1092 900 964 900 707 c 0
 900 669 889 590 879 548 c 1
293 637 m 1
 675 663 l 1
 681 683 683 727 683 747 c 0
 683 892 630 974 514 974 c 0
 416 974 305 874 293 637 c 1
EndSplineSet
Validated: 1
EndChar

StartChar: egrave
Encoding: 448 232 192
Width: 1003
VWidth: 0
Flags: HW
HStem: -36 160<478.437 756.375> 974 118<405.896 625.434>
VStem: 74 217<345.889 542 637 749.972> 683 217<662.849 918.398>
LayerCount: 2
Fore
SplineSet
311 1570 m 1
 451 1616 l 1
 612 1210 l 1
 542 1168 l 1
 311 1570 l 1
293 637 m 1
 675 663 l 1
 681 683 683 727 683 747 c 0
 683 892 630 974 514 974 c 0
 416 974 305 874 293 637 c 1
879 548 m 1
 291 542 l 1
 301 351 403 124 630 124 c 2
 637 124 l 2
 719 124 784 125 906 191 c 1
 932 126 l 1
 836 26 693 -36 532 -36 c 0
 303 -36 74 151 74 520 c 0
 74 885 339 1092 574 1092 c 0
 751 1092 900 964 900 707 c 0
 900 669 889 590 879 548 c 1
EndSplineSet
Validated: 1
EndChar

StartChar: eight
Encoding: 449 56 193
Width: 1222
VWidth: 0
Flags: HW
HStem: -32 112<488.65 788.188> 1367 93<463.075 719.01>
VStem: 153 200<219.876 489.749> 209 181<1032.43 1243.2> 827 177<955.296 1254.15> 875 193<199.51 435.996>
LayerCount: 2
Fore
SplineSet
522 675 m 1xe4
 442 603 353 538 353 369 c 0
 353 224 485 80 614 80 c 0
 795 80 875 160 875 323 c 0
 875 454 699 565 522 675 c 1xe4
153 341 m 0
 153 478 255 603 450 717 c 1
 450 727 l 1
 360 781 209 907 209 1070 c 0
 209 1275 391 1460 626 1460 c 0
 857 1460 1004 1309 1004 1126 c 0xd8
 1004 983 908 835 771 785 c 1
 767 773 l 1
 946 661 1068 524 1068 375 c 0
 1068 152 881 -32 558 -32 c 0
 335 -32 153 108 153 341 c 0
687 823 m 1
 777 875 827 937 827 1082 c 0
 827 1253 723 1367 594 1367 c 0
 455 1367 390 1259 390 1161 c 0
 390 1028 516 921 687 823 c 1
EndSplineSet
Validated: 1
EndChar

StartChar: eight.osf
Encoding: 450 -1 194
Width: 1007
VWidth: 0
Flags: HW
HStem: -32 112<391.597 647.956> 1367 93<377.068 596.934>
VStem: 80 201<202.15 503.546> 135 182<1030.75 1251.71> 685 178<955.806 1273.18> 735 193<199.51 445.04>
LayerCount: 2
Fore
SplineSet
414 675 m 1xe4
 350 625 281 498 281 369 c 0
 281 224 377 80 506 80 c 0
 643 80 735 160 735 323 c 0
 735 454 591 565 414 675 c 1xe4
80 341 m 0
 80 478 168 607 343 717 c 1
 343 727 l 1
 253 781 135 915 135 1078 c 0
 135 1283 307 1460 520 1460 c 0
 729 1460 863 1329 863 1146 c 0xd8
 863 1003 804 889 663 785 c 1
 661 773 l 1
 840 661 928 524 928 375 c 0
 928 152 731 -32 452 -32 c 0
 229 -32 80 108 80 341 c 0
580 823 m 1
 630 877 685 947 685 1102 c 0
 685 1233 617 1367 488 1367 c 0
 392 1367 317 1287 317 1189 c 0
 317 1056 409 921 580 823 c 1
EndSplineSet
Validated: 1
EndChar

StartChar: ellipsis
Encoding: 451 8230 195
Width: 1869
VWidth: 0
Flags: HW
HStem: -38 287<274.25 479.5 816.25 1021.5 1390.25 1595.5>
VStem: 231 292<5.25 208.75> 773 292<5.25 208.75> 1347 292<5.25 208.75>
LayerCount: 2
Fore
SplineSet
376 249 m 0
 456 249 523 188 523 110 c 0
 523 28 456 -38 376 -38 c 0
 296 -38 231 30 231 112 c 0
 231 190 298 249 376 249 c 0
1492 249 m 0
 1572 249 1639 188 1639 110 c 0
 1639 28 1572 -38 1492 -38 c 0
 1412 -38 1347 30 1347 112 c 0
 1347 190 1414 249 1492 249 c 0
918 249 m 0
 998 249 1065 188 1065 110 c 0
 1065 28 998 -38 918 -38 c 0
 838 -38 773 30 773 112 c 0
 773 190 840 249 918 249 c 0
EndSplineSet
Validated: 1
EndChar

StartChar: emacron
Encoding: 452 275 196
Width: 1003
VWidth: 0
Flags: HW
HStem: -36 160<478.437 756.375> 974 118<405.896 625.434> 1235 122<275 795>
VStem: 74 217<345.889 542 637 749.972> 683 217<662.849 918.398>
LayerCount: 2
Fore
SplineSet
275 1357 m 1
 811 1357 l 1
 795 1235 l 1
 259 1235 l 1
 275 1357 l 1
879 548 m 1
 291 542 l 1
 301 351 403 124 630 124 c 2
 637 124 l 2
 719 124 784 125 906 191 c 1
 932 126 l 1
 836 26 693 -36 532 -36 c 0
 303 -36 74 151 74 520 c 0
 74 885 339 1092 574 1092 c 0
 751 1092 900 964 900 707 c 0
 900 669 889 590 879 548 c 1
293 637 m 1
 675 663 l 1
 681 683 683 727 683 747 c 0
 683 892 630 974 514 974 c 0
 416 974 305 874 293 637 c 1
EndSplineSet
Validated: 1
EndChar

StartChar: emdash
Encoding: 453 8212 197
Width: 1582
VWidth: 0
Flags: HW
HStem: 498 126<120 1462>
LayerCount: 2
Fore
SplineSet
120 624 m 1
 1482 632 l 1
 1462 506 l 1
 100 498 l 1
 120 624 l 1
EndSplineSet
Validated: 1
EndChar

StartChar: emptyset
Encoding: 454 8709 198
Width: 1204
VWidth: 0
Flags: HW
HStem: -46 126<411.879 779.399> 1000 130<405.952 764.862> 1062 20G<1053.78 1088.73>
VStem: 28 155<321.692 749.478> 984 156<304.515 765.242>
DStem2: 0 116 70 6 0.744119 0.668047<0 144.297 305.197 1138.51 1293.18 1424.61>
LayerCount: 2
Fore
SplineSet
859 887 m 1xd8
 786 961 688 1000 586 1000 c 0
 357 1000 183 819 183 538 c 0
 183 454 199 381 227 320 c 1
 859 887 l 1xd8
933 781 m 1
 298 210 l 1
 376 124 483 80 588 80 c 0
 817 80 984 233 984 540 c 0
 984 634 965 715 933 781 c 1
1140 538 m 0
 1140 225 925 -46 588 -46 c 0
 432 -46 292 12 191 114 c 1
 70 6 l 1
 0 116 l 1
 112 217 l 1
 59 306 28 415 28 540 c 0
 28 849 301 1130 586 1130 c 0xd8
 742 1130 871 1075 966 983 c 1
 1076 1082 l 1xb8
 1146 972 l 1
 1046 883 l 1
 1107 786 1140 667 1140 538 c 0
EndSplineSet
Validated: 1
EndChar

StartChar: endash
Encoding: 455 8211 199
Width: 963
VWidth: 0
Flags: HW
HStem: 498 126<120 843>
LayerCount: 2
Fore
SplineSet
120 624 m 1
 863 632 l 1
 843 506 l 1
 100 498 l 1
 120 624 l 1
EndSplineSet
Validated: 1
EndChar

StartChar: eng
Encoding: 456 331 200
Width: 1222
VWidth: 0
Flags: HW
HStem: -466 21G<684.785 732> 0 88<68 119.441 585.402 620> 926 166<635.035 834.569>
VStem: 251 205<139 861.112> 907 203<-62.259 852.648>
LayerCount: 2
Fore
SplineSet
438 902 m 1
 450 902 l 1
 532 1000 664 1092 817 1092 c 0
 1008 1092 1110 966 1110 749 c 2
 1110 183 l 1
 1107 -154 933 -334 750 -436 c 2
 696 -466 l 1
 636 -359 l 1
 767 -261 907 -110 907 219 c 2
 906 701 l 2
 906 859 815 926 695 926 c 0
 607 926 518 889 456 821 c 1
 456 139 l 1
 636 96 l 1
 620 0 l 1
 56 0 l 1
 68 88 l 1
 251 139 l 1
 251 877 l 1
 64 940 l 1
 76 1032 l 1
 438 1080 l 1
 460 1056 l 1
 438 902 l 1
EndSplineSet
Validated: 1
EndChar

StartChar: eogonek
Encoding: 457 281 201
Width: 1003
VWidth: 0
Flags: HW
HStem: -470 62<778.609 788.711> -36 160<478.437 619.64> 974 118<405.896 625.434>
VStem: 74 217<345.889 542 637 749.972> 490 180<-314.166 -124.794> 683 217<662.849 918.398>
LayerCount: 2
Fore
SplineSet
670 -181 m 0
 670 -257 711 -344 821 -408 c 1
 779 -470 l 1
 604 -452 490 -357 490 -253 c 0
 490 -195 507 -137 621 -30 c 1
 592 -34 562 -36 532 -36 c 0
 303 -36 74 151 74 520 c 0
 74 885 339 1092 574 1092 c 0
 751 1092 900 964 900 707 c 0
 900 669 889 590 879 548 c 1
 291 542 l 1
 301 351 403 124 630 124 c 2
 637 124 l 2
 719 124 784 125 906 191 c 1
 932 126 l 1
 881 73 817 31 744 3 c 1
 673 -114 670 -159 670 -181 c 0
293 637 m 1
 675 663 l 1
 681 683 683 727 683 747 c 0
 683 892 630 974 514 974 c 0
 416 974 305 874 293 637 c 1
EndSplineSet
Validated: 1
EndChar

StartChar: equal
Encoding: 458 61 202
Width: 965
VWidth: 0
Flags: HW
HStem: 388 128<114 847> 679 128<118 851>
LayerCount: 2
Fore
SplineSet
114 516 m 1
 861 516 l 1
 847 388 l 1
 100 388 l 1
 114 516 l 1
118 807 m 1
 865 807 l 1
 851 679 l 1
 104 679 l 1
 118 807 l 1
EndSplineSet
Validated: 1
EndChar

StartChar: eth
Encoding: 459 240 203
Width: 1160
VWidth: 0
Flags: HW
HStem: -32 118<484.601 742.864> 1040 113<437.711 666.328> 1440 20G<834.333 933.419>
VStem: 100 217<318.548 809.434> 849 211<300.646 772.035>
DStem2: 392 1345 379 1253 0.978816 0.204743<0 207.868 415.997 525.234>
LayerCount: 2
Fore
SplineSet
1060 566 m 0
 1060 191 841 -32 580 -32 c 0
 243 -32 100 253 100 548 c 0
 100 907 319 1153 578 1153 c 0
 626 1153 731 1134 767 1042 c 1
 775 1044 l 1
 749 1128 695 1217 641 1303 c 1
 379 1253 l 1
 392 1345 l 1
 596 1385 l 1
 540 1465 480 1536 426 1584 c 1
 568 1584 l 1
 608 1560 679 1506 753 1424 c 1
 936 1460 l 1
 924 1367 l 1
 817 1345 l 1
 943 1176 1060 921 1060 566 c 0
317 606 m 1
 321 275 439 86 608 86 c 0
 797 86 849 255 849 516 c 0
 849 801 703 1036 562 1040 c 1
 554 1040 l 2
 383 1040 317 863 317 606 c 1
EndSplineSet
Validated: 1
EndChar

StartChar: exclam
Encoding: 460 33 204
Width: 590
VWidth: 0
Flags: HW
HStem: -44 299<191.062 402.25>
VStem: 145 303<1.75 210.783> 177 239<959.774 1553.99> 241 108<458 883.346>
LayerCount: 2
Fore
SplineSet
349 442 m 1x90
 349 434 l 1
 241 458 l 1
 241 462 l 1x90
 211 854 177 1387 177 1520 c 2
 177 1524 l 1
 187 1558 293 1572 337 1572 c 0
 369 1572 416 1562 416 1524 c 0xa0
 416 1319 381 834 349 442 c 1x90
448 110 m 0xc0
 448 24 379 -44 295 -44 c 0
 211 -44 145 26 145 112 c 0
 145 194 215 255 295 255 c 0
 377 255 448 192 448 110 c 0xc0
EndSplineSet
Validated: 1
EndChar

StartChar: exclamdown
Encoding: 461 161 205
Width: 590
VWidth: 0
Flags: HW
HStem: 809 299<190.25 401.415>
VStem: 145 303<853.217 1062.25> 177 239<-489.993 101.351> 243 108<199.699 632>
LayerCount: 2
Fore
SplineSet
243 649 m 1x90
 243 657 l 1
 351 632 l 1
 351 628 l 1x90
 381 236 416 -323 416 -456 c 2
 416 -460 l 1
 406 -494 299 -508 255 -508 c 0
 223 -508 177 -498 177 -460 c 0xa0
 177 -255 211 257 243 649 c 1x90
145 954 m 0xc0
 145 1040 213 1108 297 1108 c 0
 381 1108 448 1038 448 952 c 0
 448 870 377 809 297 809 c 0
 215 809 145 872 145 954 c 0xc0
EndSplineSet
Validated: 1
EndChar

StartChar: f
Encoding: 462 102 206
Width: 744
VWidth: 0
Flags: HW
HStem: 0 88<62 112.041 676.348 739> 954 108<450 747> 954 88<80 166.528> 1458 128<538.768 716.648>
VStem: 247 203<147 954 1070 1247.83>
LayerCount: 2
Fore
SplineSet
452 1193 m 1xb8
 450 1062 l 1
 763 1062 l 1
 747 954 l 1
 450 954 l 1xd8
 450 147 l 1
 749 102 l 1
 739 0 l 1
 48 0 l 1
 62 88 l 1
 247 141 l 1
 247 954 l 1
 66 954 l 1
 80 1042 l 1
 249 1070 l 1
 289 1421 532 1586 705 1586 c 0
 834 1586 932 1544 932 1446 c 0
 932 1386 863 1325 823 1309 c 1
 775 1369 686 1458 610 1458 c 0
 520 1458 458 1402 452 1193 c 1xb8
EndSplineSet
Validated: 1
EndChar

StartChar: f.alt2
Encoding: 463 -1 207
Width: 744
VWidth: 0
Flags: HW
HStem: 0 88<62 112.041 676.348 739> 954 108<450 747> 954 88<80 166.528> 1442 142<490.246 661.212>
VStem: 247 203<147 954 1070 1255.68>
LayerCount: 2
Fore
SplineSet
452 1193 m 1xb8
 450 1062 l 1
 763 1062 l 1
 747 954 l 1
 450 954 l 1xd8
 450 147 l 1
 749 102 l 1
 739 0 l 1
 48 0 l 1
 62 88 l 1
 247 141 l 1
 247 954 l 1
 66 954 l 1
 80 1042 l 1
 249 1070 l 1
 289 1421 496 1584 610 1584 c 0
 716 1584 781 1558 781 1476 c 0
 781 1428 739 1381 703 1361 c 1
 673 1393 608 1442 554 1442 c 0
 482 1442 458 1402 452 1193 c 1xb8
EndSplineSet
Validated: 1
EndChar

StartChar: finalnun-hb
Encoding: 464 1503 208
Width: 600
VWidth: 0
Flags: HW
VStem: 305 95<62.2981 813> 329 86<682.645 827.222>
LayerCount: 2
Fore
SplineSet
422 -38 m 1x80
 430 -205 440 -368 452 -464 c 1
 335 -484 l 1
 291 -454 l 1
 305 486 l 2x80
 305 528 307 552 313 592 c 1
 329 741 l 1
 329 751 l 2
 329 809 279 840 233 851 c 1
 124 881 l 1
 100 910 l 1
 124 1155 l 1
 195 1161 l 1
 233 1060 l 1
 315 1034 l 2
 374 1015 415 986 415 851 c 0x40
 415 839 415 826 414 813 c 2
 402 582 l 2
 401 557 400 528 400 498 c 0
 400 352 414 157 422 -38 c 1x80
EndSplineSet
Validated: 513
EndChar

StartChar: finalpe-hb
Encoding: 465 1507 209
Width: 1017
VWidth: 0
Flags: HW
HStem: -466 21G<825.667 972> 406 196<415.658 549.489>
VStem: 143 122<624 904.301> 811 141<-436 250.103>
DStem2: 381 1086 269 906 0.988967 -0.148136<0 472.325>
LayerCount: 2
Fore
SplineSet
819 741 m 2
 819 803 797 827 743 835 c 2
 269 906 l 1
 266 889 265 872 265 857 c 0
 265 667 449 617 598 602 c 1
 599 596 599 590 599 584 c 0
 599 511 554 443 508 406 c 1
 241 417 143 540 143 708 c 0
 143 780 161 859 191 942 c 2
 287 1203 l 1
 371 1209 l 1
 381 1086 l 1
 785 1030 l 2
 885 1016 898 994 908 809 c 2
 952 -20 l 2
 956 -108 960 -350 972 -446 c 1
 855 -466 l 1
 811 -436 l 1
 819 741 l 2
EndSplineSet
Validated: 513
EndChar

StartChar: finaltsadi-hb
Encoding: 466 1509 210
Width: 886
VWidth: 0
Flags: HW
VStem: 291 161<-454 36.25> 305 105<117.952 340.768> 329 86<548.937 831.944> 399 10<185 217> 409 1<185 216.391> 694 147<816.815 960.5>
DStem2: 416 408 775 779 0.584143 0.811651<0 498.726>
LayerCount: 2
Fore
SplineSet
422 -38 m 2x44
 431 -205 440 -368 452 -464 c 1
 335 -484 l 1
 291 -454 l 1x84
 305 335 l 1x44
 329 747 l 1
 329 757 l 2
 329 815 279 844 233 855 c 1
 124 887 l 1
 100 916 l 1
 124 1161 l 1
 195 1169 l 1
 233 1068 l 1
 315 1040 l 1
 374 1022 415 992 415 857 c 0x24
 415 845 415 832 414 819 c 2
 402 588 l 2
 400 552 400 520 400 490 c 0
 400 460 401 433 401 408 c 1
 382 408 l 1
 384 348 396 253 399 185 c 1
 409 217 l 1x14
 409 204 410 191 410 178 c 2
 422 -38 l 2x44
671 767 m 2
 416 408 l 1
 401 408 l 1
 403 334 407 277 409 217 c 1x14
 428 273 453 334 490 383 c 1
 775 779 l 2
 824 847 841 898 841 937 c 0
 841 984 815 1014 787 1030 c 2
 679 1092 l 1
 675 1165 l 1
 610 1177 l 1
 508 968 l 1
 518 934 l 1
 685 843 l 2
 690 840 694 833 694 823 c 0
 694 810 688 791 671 767 c 2
EndSplineSet
Validated: 517
EndChar

StartChar: five
Encoding: 467 53 211
Width: 1222
VWidth: 0
Flags: HW
HStem: -60 112<342.184 547.369> 1436 20G<672.353 986.859>
VStem: 861 223<285.222 575.728>
DStem2: 295 801 450 976 0.242168 0.970234<207.327 479.938> 450 1422 514 1241 0.998024 0.0628385<52.4997 499.126>
LayerCount: 2
Fore
SplineSet
323 52 m 1
 666 84 861 217 861 392 c 0
 861 633 699 775 295 801 c 1
 450 1422 l 1
 990 1456 l 1
 960 1265 l 1
 514 1241 l 1
 450 976 l 1
 860 952 1084 751 1084 470 c 0
 1084 221 867 -28 345 -60 c 1
 323 52 l 1
EndSplineSet
Validated: 1
EndChar

StartChar: five.osf
Encoding: 468 -1 212
Width: 955
VWidth: 0
Flags: HW
HStem: -361 110<211.292 474.948>
VStem: 612 223<-30.7106 270.463>
DStem2: 141 488 287 663 0.168523 0.985698<196.693 467.412> 247 1108 341 928 0.996234 0.0867092<78.0383 494.899>
LayerCount: 2
Fore
SplineSet
787 1155 m 1
 757 956 l 1
 341 928 l 1
 287 663 l 1
 636 603 835 438 835 157 c 0
 835 -92 596 -361 275 -361 c 0
 44 -361 -40 -279 -40 -203 c 0
 -40 -143 10 -88 82 -74 c 1
 118 -124 206 -251 339 -251 c 0
 496 -251 612 -97 612 78 c 0
 612 319 472 450 141 488 c 1
 247 1108 l 1
 787 1155 l 1
EndSplineSet
Validated: 1
EndChar

StartChar: four
Encoding: 469 52 213
Width: 1222
VWidth: 0
Flags: HW
HStem: -14 21G<667 792> 434 148<253 663 867 1157> 1432 20G<782.815 871.727>
VStem: 667 200<18 430 582 1106>
DStem2: 48 524 253 582 0.629078 0.777342<174.047 839.296>
LayerCount: 2
Fore
SplineSet
667 -14 m 1
 667 434 l 1
 76 434 l 1
 48 524 l 1
 799 1452 l 1
 879 1430 l 1
 871 1285 867 1052 867 831 c 2
 867 582 l 1
 1177 582 l 1
 1157 430 l 1
 867 430 l 1
 867 18 l 1
 667 -14 l 1
663 582 m 1
 663 1106 l 1
 253 582 l 1
 663 582 l 1
EndSplineSet
Validated: 1
EndChar

StartChar: four.osf
Encoding: 470 -1 214
Width: 1158
VWidth: 0
Flags: HW
HStem: 108 149<267 677 881 1169>
VStem: 679 202<-325 104 257 823>
DStem2: 60 199 267 257 0.601533 0.798848<170.85 869.627>
LayerCount: 2
Fore
SplineSet
679 -369 m 1
 679 108 l 1
 88 108 l 1
 60 199 l 1
 813 1199 l 1
 891 1177 l 1
 883 1032 879 747 879 526 c 2
 879 257 l 1
 1189 257 l 1
 1169 104 l 1
 881 104 l 1
 881 -325 l 1
 679 -369 l 1
677 257 m 1
 677 823 l 1
 267 257 l 1
 677 257 l 1
EndSplineSet
Validated: 1
EndChar

StartChar: fraction
Encoding: 471 8260 215
Width: 1273
VWidth: 0
Flags: HW
DStem2: 187 -36 289 -26 0.572043 0.820224<66.5506 1466.67>
LayerCount: 2
Fore
SplineSet
1026 1167 m 1
 1124 1177 l 1
 289 -26 l 1
 187 -36 l 1
 1026 1167 l 1
EndSplineSet
Validated: 1
EndChar

StartChar: g
Encoding: 472 103 216
Width: 1072
VWidth: 0
Flags: HW
HStem: -470 131<330.123 696.534> 4 179<314.04 786.605> 367 95<401.332 621.377> 869 163<945.822 1010> 869 145<945.822 1010> 1000 90<371.57 588.463>
VStem: 26 215<-260.355 -90.1035> 104 195<164 285.186 579.44 869.172> 683 198<568.901 890.931> 819 207<-206.61 -32.9124>
LayerCount: 2
Fore
SplineSet
303 739 m 0xe480
 303 570 416 462 504 462 c 0
 612 462 683 534 683 705 c 0
 683 836 615 1000 486 1000 c 0
 362 1000 303 898 303 739 c 0xe480
522 183 m 2
 689 183 l 2
 870 183 1026 149 1026 -62 c 0
 1026 -273 743 -470 466 -470 c 0
 243 -470 26 -406 26 -197 c 0xf240
 26 -85 161 -12 221 22 c 1
 221 32 l 1
 145 68 104 129 104 199 c 0
 104 265 217 362 307 398 c 1
 307 408 l 1
 245 424 108 552 108 717 c 0
 108 918 309 1090 514 1090 c 0xe5
 626 1090 709 1058 771 1014 c 1xe9
 789 1014 1032 1032 1032 1032 c 1
 1056 1004 l 1
 1010 869 l 1
 990 869 l 1
 839 918 l 1
 839 898 l 1
 855 864 881 791 881 729 c 0
 881 506 655 367 470 367 c 0
 422 367 375 375 361 379 c 1
 333 349 299 309 299 271 c 0xf180
 299 221 332 183 522 183 c 2
303 4 m 1
 303 4 241 -19 241 -131 c 0
 241 -294 375 -339 532 -339 c 0
 691 -339 819 -283 819 -122 c 0
 819 -14 733 4 514 4 c 2
 303 4 l 1
EndSplineSet
Validated: 1
EndChar

StartChar: gbreve
Encoding: 473 287 217
Width: 1072
VWidth: 0
Flags: HW
HStem: -470 131<330.123 696.534> 4 179<314.04 786.605> 367 95<401.332 621.377> 869 163<945.822 1010> 869 145<945.822 1010> 1000 90<371.57 588.463> 1229 132<416.148 654.971>
VStem: 26 215<-260.355 -90.1035> 104 195<164 285.186 579.44 869.172> 304 66<1418.07 1454.98> 683 198<568.901 890.931> 819 207<-206.61 -32.9124>
LayerCount: 2
Fore
SplineSet
304 1445 m 1xe240
 360 1484 l 1
 370 1463 l 1
 394 1415 452 1361 534 1361 c 0
 620 1361 675 1413 707 1465 c 1
 719 1486 l 1
 769 1451 l 1
 761 1427 l 2
 728 1329 654 1229 534 1229 c 0
 405 1229 334 1327 310 1421 c 2
 304 1445 l 1xe240
303 739 m 0
 303 570 416 462 504 462 c 0
 612 462 683 534 683 705 c 0
 683 836 615 1000 486 1000 c 0xe660
 362 1000 303 898 303 739 c 0
522 183 m 2
 689 183 l 2
 870 183 1026 149 1026 -62 c 0
 1026 -273 743 -470 466 -470 c 0
 243 -470 26 -406 26 -197 c 0xf350
 26 -85 161 -12 221 22 c 1
 221 32 l 1
 145 68 104 129 104 199 c 0
 104 265 217 362 307 398 c 1
 307 408 l 1
 245 424 108 552 108 717 c 0
 108 918 309 1090 514 1090 c 0xe6c0
 626 1090 709 1058 771 1014 c 1xeac0
 789 1014 1032 1032 1032 1032 c 1
 1056 1004 l 1
 1010 869 l 1
 990 869 l 1
 839 918 l 1
 839 898 l 1
 855 864 881 791 881 729 c 0
 881 506 655 367 470 367 c 0
 422 367 375 375 361 379 c 1
 333 349 299 309 299 271 c 0xf2e0
 299 221 332 183 522 183 c 2
303 4 m 1
 303 4 241 -19 241 -131 c 0
 241 -294 375 -339 532 -339 c 0
 691 -339 819 -283 819 -122 c 0
 819 -14 733 4 514 4 c 2
 303 4 l 1
EndSplineSet
Validated: 1
EndChar

StartChar: gcommaaccent
Encoding: 474 291 218
Width: 1072
VWidth: 0
Flags: HW
HStem: -470 131<330.123 696.534> 4 179<314.04 786.605> 367 95<401.332 621.377> 869 163<945.822 1010> 869 145<945.822 1010> 1000 90<371.57 588.463> 1512 65<579.86 631.852>
VStem: 26 215<-260.355 -90.1035> 104 195<164 285.186 579.44 869.172> 402 134<1338.05 1471.78> 683 198<568.901 890.931> 819 207<-206.61 -32.9124>
LayerCount: 2
Fore
SplineSet
525 1206 m 0xe240
 477 1206 402 1242 402 1350 c 0
 402 1416 447 1534 627 1577 c 1
 649 1512 l 1
 563 1491 536 1447 536 1403 c 0
 536 1363 606 1310 633 1307 c 1
 622 1255 583 1206 525 1206 c 0xe240
303 739 m 0
 303 570 416 462 504 462 c 0
 612 462 683 534 683 705 c 0
 683 836 615 1000 486 1000 c 0xe660
 362 1000 303 898 303 739 c 0
522 183 m 2
 689 183 l 2
 870 183 1026 149 1026 -62 c 0
 1026 -273 743 -470 466 -470 c 0
 243 -470 26 -406 26 -197 c 0xf350
 26 -85 161 -12 221 22 c 1
 221 32 l 1
 145 68 104 129 104 199 c 0
 104 265 217 362 307 398 c 1
 307 408 l 1
 245 424 108 552 108 717 c 0
 108 918 309 1090 514 1090 c 0xe6c0
 626 1090 709 1058 771 1014 c 1xeac0
 789 1014 1032 1032 1032 1032 c 1
 1056 1004 l 1
 1010 869 l 1
 990 869 l 1
 839 918 l 1
 839 898 l 1
 855 864 881 791 881 729 c 0
 881 506 655 367 470 367 c 0
 422 367 375 375 361 379 c 1
 333 349 299 309 299 271 c 0xf2e0
 299 221 332 183 522 183 c 2
303 4 m 1
 303 4 241 -19 241 -131 c 0
 241 -294 375 -339 532 -339 c 0
 691 -339 819 -283 819 -122 c 0
 819 -14 733 4 514 4 c 2
 303 4 l 1
EndSplineSet
Validated: 1
EndChar

StartChar: gdotaccent
Encoding: 475 289 219
Width: 1072
VWidth: 0
Flags: HW
HStem: -470 131<330.123 696.534> 4 179<314.04 786.605> 367 95<401.332 621.377> 869 163<945.822 1010> 869 145<945.822 1010> 1000 90<371.57 588.463> 1200 288<432.5 637.5>
VStem: 26 215<-260.355 -90.1035> 104 195<164 285.186 579.44 869.172> 389 293<1244.75 1446.42> 683 198<568.901 890.931> 819 207<-206.61 -32.9124>
LayerCount: 2
Fore
SplineSet
533 1488 m 0xe240
 613 1488 682 1427 682 1349 c 0
 682 1267 613 1200 533 1200 c 0
 453 1200 389 1269 389 1351 c 0
 389 1429 457 1488 533 1488 c 0xe240
303 4 m 1
 303 4 241 -19 241 -131 c 0
 241 -294 375 -339 532 -339 c 0
 691 -339 819 -283 819 -122 c 0xe350
 819 -14 733 4 514 4 c 2
 303 4 l 1
522 183 m 2
 689 183 l 2
 870 183 1026 149 1026 -62 c 0
 1026 -273 743 -470 466 -470 c 0
 243 -470 26 -406 26 -197 c 0xf350
 26 -85 161 -12 221 22 c 1
 221 32 l 1
 145 68 104 129 104 199 c 0
 104 265 217 362 307 398 c 1
 307 408 l 1
 245 424 108 552 108 717 c 0
 108 918 309 1090 514 1090 c 0xe6c0
 626 1090 709 1058 771 1014 c 1xeac0
 789 1014 1032 1032 1032 1032 c 1
 1056 1004 l 1
 1010 869 l 1
 990 869 l 1
 839 918 l 1
 839 898 l 1
 855 864 881 791 881 729 c 0
 881 506 655 367 470 367 c 0
 422 367 375 375 361 379 c 1
 333 349 299 309 299 271 c 0xf2e0
 299 221 332 183 522 183 c 2
303 739 m 0
 303 570 416 462 504 462 c 0
 612 462 683 534 683 705 c 0
 683 836 615 1000 486 1000 c 0xe660
 362 1000 303 898 303 739 c 0
EndSplineSet
Validated: 1
EndChar

StartChar: germandbls
Encoding: 476 223 220
Width: 1397
VWidth: 0
Flags: HW
HStem: -38 120<894.633 1137.47> 0 88<62 112.041> 954 78<82 167.504> 1456 132<547.182 782.811>
VStem: 247 205<141 954 1060 1243.68> 643 156<578.796 902.262> 871 189<1129.24 1364.5> 1163 176<125.648 443.078>
LayerCount: 2
Fore
SplineSet
452 0 m 1x7f
 48 0 l 1
 62 88 l 1x7f
 247 141 l 1
 247 954 l 1
 70 954 l 1
 82 1032 l 1
 249 1060 l 1
 267 1329 458 1588 737 1588 c 0
 934 1588 1060 1452 1060 1281 c 0
 1060 1042 799 978 799 831 c 0
 799 622 1339 604 1339 271 c 0
 1339 90 1153 -38 966 -38 c 0
 749 -38 612 63 612 173 c 0
 612 277 683 329 771 335 c 1
 809 176 912 82 1004 82 c 0xbf
 1090 82 1163 103 1163 203 c 0
 1163 374 643 420 643 747 c 0
 643 970 871 1036 871 1209 c 0
 871 1350 786 1456 649 1456 c 0
 527 1456 450 1365 450 1106 c 2
 452 0 l 1x7f
EndSplineSet
Validated: 1
EndChar

StartChar: gimel-hb
Encoding: 477 1490 221
Width: 702
VWidth: 0
Flags: HW
HStem: 0 201<101.873 351.299>
VStem: 480 106<331.479 770.832> 482 88<480.168 825.244> 526 141<24 195.964>
LayerCount: 2
Fore
SplineSet
570 809 m 2xa0
 586 442 l 2xc0
 594 273 655 78 667 14 c 1
 554 -6 l 1
 526 24 l 1x90
 505 313 l 1
 490 313 l 1
 464 197 419 56 321 0 c 1
 102 0 l 1
 84 40 77 83 77 120 c 0
 77 165 87 202 100 221 c 1
 140 207 177 201 211 201 c 0
 354 201 439 312 480 410 c 1xc0
 482 741 l 2
 482 799 460 821 414 835 c 2
 181 904 l 1
 159 932 l 1
 179 1189 l 1
 261 1197 l 1
 303 1086 l 1
 440 1046 l 2
 504 1027 562 992 570 809 c 2xa0
EndSplineSet
Validated: 513
EndChar

StartChar: grave
Encoding: 478 96 222
Width: 771
VWidth: 0
Flags: HW
HStem: 1616 448
VStem: 199 301
LayerCount: 2
Fore
SplineSet
199 2018 m 1
 339 2064 l 1
 500 1658 l 1
 430 1616 l 1
 199 2018 l 1
EndSplineSet
Validated: 1
EndChar

StartChar: greater
Encoding: 479 62 223
Width: 831
VWidth: 0
Flags: HW
LayerCount: 2
Fore
SplineSet
791 520 m 1
 116 -100 l 1
 40 -16 l 1
 504 552 l 1
 64 1096 l 1
 133 1183 l 1
 789 554 l 1
 791 520 l 1
EndSplineSet
Validated: 1
EndChar

StartChar: greaterequal
Encoding: 480 8805 224
Width: 871
VWidth: 0
Flags: HW
HStem: -325 126<60 783>
LayerCount: 2
Fore
SplineSet
60 -199 m 1
 803 -191 l 1
 783 -317 l 1
 40 -325 l 1
 60 -199 l 1
831 520 m 1
 156 -100 l 1
 80 -16 l 1
 544 552 l 1
 104 1096 l 1
 173 1183 l 1
 829 554 l 1
 831 520 l 1
EndSplineSet
Validated: 1
EndChar

StartChar: guillemotleft
Encoding: 481 171 225
Width: 877
VWidth: 0
Flags: HW
LayerCount: 2
Fore
SplineSet
96 570 m 1
 422 998 l 1
 476 926 l 1
 275 560 l 1
 480 171 l 1
 416 94 l 1
 98 546 l 1
 96 570 l 1
397 570 m 1
 723 998 l 1
 777 926 l 1
 576 560 l 1
 781 171 l 1
 717 94 l 1
 399 546 l 1
 397 570 l 1
EndSplineSet
Validated: 1
EndChar

StartChar: guillemotright
Encoding: 482 187 226
Width: 877
VWidth: 0
Flags: HW
LayerCount: 2
Fore
SplineSet
480 570 m 1
 478 546 l 1
 160 94 l 1
 96 171 l 1
 301 560 l 1
 100 926 l 1
 154 998 l 1
 480 570 l 1
781 570 m 1
 779 546 l 1
 461 94 l 1
 397 171 l 1
 602 560 l 1
 401 926 l 1
 455 998 l 1
 781 570 l 1
EndSplineSet
Validated: 1
EndChar

StartChar: guilsinglleft
Encoding: 483 8249 227
Width: 576
VWidth: 0
Flags: HW
VStem: 96 380
LayerCount: 2
Fore
SplineSet
96 570 m 1
 422 998 l 1
 476 926 l 1
 275 560 l 1
 480 171 l 1
 416 94 l 1
 98 546 l 1
 96 570 l 1
EndSplineSet
Validated: 1
EndChar

StartChar: guilsinglright
Encoding: 484 8250 228
Width: 576
VWidth: 0
Flags: HW
VStem: 96 384
LayerCount: 2
Fore
SplineSet
480 570 m 1
 478 546 l 1
 160 94 l 1
 96 171 l 1
 301 560 l 1
 100 926 l 1
 154 998 l 1
 480 570 l 1
EndSplineSet
Validated: 1
EndChar

StartChar: h
Encoding: 485 104 229
Width: 1297
VWidth: 0
Flags: HW
HStem: 0 96<54 88.6407 587.026 606 719 750.793 1230.69 1251> 930 166<616.681 811.442> 1524 20G<160.571 432>
VStem: 241 201<141 860.671 942.25 1359> 887 201<139 851.524>
LayerCount: 2
Fore
SplineSet
1088 729 m 2
 1088 139 l 1
 1265 96 l 1
 1251 0 l 1
 705 0 l 1
 719 90 l 1
 883 139 l 1
 887 697 l 1
 887 705 l 2
 887 878 773 930 677 930 c 0
 607 930 528 909 442 821 c 1
 442 141 l 1
 620 98 l 1
 606 0 l 1
 40 0 l 1
 54 96 l 1
 241 141 l 1
 241 1359 l 1
 46 1424 l 1
 60 1516 l 1
 412 1544 l 1
 442 1514 l 1
 442 1034 l 1
 422 906 l 1
 436 906 l 1
 536 1018 656 1096 793 1096 c 0
 962 1096 1088 1024 1088 729 c 2
EndSplineSet
Validated: 1
EndChar

StartChar: hbar
Encoding: 486 295 230
Width: 1297
VWidth: 0
Flags: HW
HStem: 0 96<54 88.6407 587.026 606 719 750.793 1230.69 1251> 930 166<616.681 811.442> 1146 117<54 241 442 626> 1524 20G<160.571 432>
VStem: 241 201<141 860.671 942.25 1146 1263 1359> 887 201<139 851.524>
LayerCount: 2
Fore
SplineSet
44 1146 m 1
 54 1263 l 1
 241 1263 l 1
 241 1359 l 1
 46 1424 l 1
 60 1516 l 1
 412 1544 l 1
 442 1514 l 1
 442 1263 l 1
 636 1263 l 1
 626 1146 l 1
 442 1146 l 1
 442 1034 l 1
 422 906 l 1
 436 906 l 1
 536 1018 656 1096 793 1096 c 0
 962 1096 1088 1024 1088 729 c 2
 1088 139 l 1
 1265 96 l 1
 1251 0 l 1
 705 0 l 1
 719 90 l 1
 883 139 l 1
 887 697 l 1
 887 705 l 2
 887 878 773 930 677 930 c 0
 607 930 528 909 442 821 c 1
 442 141 l 1
 620 98 l 1
 606 0 l 1
 40 0 l 1
 54 96 l 1
 241 141 l 1
 241 1146 l 1
 44 1146 l 1
EndSplineSet
Validated: 1
EndChar

StartChar: he-hb
Encoding: 487 1492 231
Width: 945
VWidth: 0
Flags: HW
HStem: -20 29G<80 229 699 843> 875 195<163 706 789.656 847>
VStem: 100 83<404.723 691> 685 126<18 603.045> 706 81<542.816 860>
LayerCount: 2
Fore
SplineSet
849 1070 m 1xe8
 881 1032 l 1
 847 875 l 1
 787 860 l 1xe8
 811 329 l 2
 818 184 827 104 843 8 c 1
 727 -12 l 1
 685 18 l 1xf0
 706 875 l 1
 42 875 l 1
 10 912 l 1
 30 1187 l 1
 120 1199 l 1
 163 1070 l 1
 849 1070 l 1xe8
66 10 m 1
 100 691 l 1
 183 701 l 1
 201 329 l 2
 207 219 217 112 229 0 c 1
 108 -20 l 1
 66 10 l 1
EndSplineSet
Validated: 513
EndChar

StartChar: het-hb
Encoding: 488 1495 232
Width: 945
VWidth: 0
Flags: HW
HStem: -20 21G<80 229 757 902> 875 195<249 764 847.7 906>
VStem: 66 137<10 350.291> 104 87<856.551 875> 116 91<1154.97 1187> 743 126<18 603.045> 764 81<542.816 860>
LayerCount: 2
Fore
SplineSet
191 875 m 1xd2
 203 369 l 2
 206 259 219 76 229 0 c 1
 108 -20 l 1
 66 10 l 1xe0
 104 912 l 1xd0
 116 1187 l 1
 207 1199 l 1
 249 1070 l 1
 908 1070 l 1
 940 1032 l 1
 906 875 l 1
 845 860 l 1xca
 869 329 l 2
 876 184 886 104 902 8 c 1
 785 -12 l 1
 743 18 l 1xc4
 764 875 l 1
 191 875 l 1xd2
EndSplineSet
Validated: 513
EndChar

StartChar: hungarumlaut
Encoding: 489 733 233
Width: 945
VWidth: 0
Flags: HW
HStem: 1652 314
VStem: 151 644
LayerCount: 2
Fore
SplineSet
795 1855 m 1
 442 1652 l 1
 408 1713 l 1
 707 1956 l 1
 795 1855 l 1
550 1861 m 1
 185 1652 l 1
 151 1713 l 1
 460 1966 l 1
 550 1861 l 1
EndSplineSet
Validated: 1
EndChar

StartChar: hyphen
Encoding: 490 45 234
Width: 692
VWidth: 0
Flags: HW
HStem: 484 122<110 419.212> 506 122<282.788 592>
VStem: 96 510
LayerCount: 2
Fore
SplineSet
110 606 m 1xa0
 606 628 l 1
 592 506 l 1x60
 96 484 l 1
 110 606 l 1xa0
EndSplineSet
Validated: 1
EndChar

StartChar: i
Encoding: 491 105 235
Width: 696
VWidth: 0
Flags: HW
HStem: 0 96<74 132.937 594.877 643> 1056 20G<187.714 452> 1301 288<248.5 453.5>
VStem: 205 293<1345.75 1547.42> 259 203<141 889>
LayerCount: 2
Fore
SplineSet
74 96 m 1xe8
 259 141 l 1
 259 889 l 1
 74 956 l 1
 90 1048 l 1
 432 1076 l 1
 462 1046 l 1
 462 141 l 1
 657 98 l 1
 643 0 l 1
 60 0 l 1
 74 96 l 1xe8
349 1589 m 0
 429 1589 498 1528 498 1450 c 0
 498 1368 429 1301 349 1301 c 0
 269 1301 205 1370 205 1452 c 0xf0
 205 1530 273 1589 349 1589 c 0
EndSplineSet
Validated: 1
EndChar

StartChar: iacute
Encoding: 492 237 236
Width: 696
VWidth: 0
Flags: HW
HStem: 0 96<74 132.937 594.877 643> 1056 20G<187.714 452>
VStem: 259 203<141 889>
LayerCount: 2
Fore
SplineSet
534 1614 m 1
 311 1228 l 1
 249 1267 l 1
 398 1662 l 1
 534 1614 l 1
74 96 m 1
 259 141 l 1
 259 889 l 1
 74 956 l 1
 90 1048 l 1
 432 1076 l 1
 462 1046 l 1
 462 141 l 1
 657 98 l 1
 643 0 l 1
 60 0 l 1
 74 96 l 1
EndSplineSet
Validated: 1
EndChar

StartChar: icaron
Encoding: 493 464 237
Width: 696
VWidth: 0
Flags: HW
HStem: 0 96<74 132.937 594.877 643> 1056 20G<187.714 452> 1494 20G<160.867 207.686>
VStem: 259 203<141 889>
DStem2: 187 1514 89 1439 0.735191 -0.67786<0 251.695> 380 1339 374 1255 0.692049 0.72185<0 227.244>
LayerCount: 2
Fore
SplineSet
307 1238 m 1
 89 1439 l 1
 187 1514 l 1
 368 1339 l 1
 380 1339 l 1
 530 1510 l 1
 583 1473 l 1
 374 1255 l 1
 307 1238 l 1
74 96 m 1
 259 141 l 1
 259 889 l 1
 74 956 l 1
 90 1048 l 1
 432 1076 l 1
 462 1046 l 1
 462 141 l 1
 657 98 l 1
 643 0 l 1
 60 0 l 1
 74 96 l 1
EndSplineSet
Validated: 1
EndChar

StartChar: icircumflex
Encoding: 494 238 238
Width: 696
VWidth: 0
Flags: HW
HStem: 0 96<74 132.937 594.877 643> 1056 20G<187.714 452>
VStem: 259 203<141 889>
LayerCount: 2
Fore
SplineSet
378 1510 m 1
 594 1285 l 1
 534 1240 l 1
 335 1373 l 1
 323 1373 l 1
 153 1238 l 1
 107 1275 l 1
 311 1493 l 1
 378 1510 l 1
74 96 m 1
 259 141 l 1
 259 889 l 1
 74 956 l 1
 90 1048 l 1
 432 1076 l 1
 462 1046 l 1
 462 141 l 1
 657 98 l 1
 643 0 l 1
 60 0 l 1
 74 96 l 1
EndSplineSet
Validated: 1
EndChar

StartChar: idieresis
Encoding: 495 239 239
Width: 696
VWidth: 0
Flags: HW
HStem: 0 96<74 132.937 594.877 643> 1056 20G<187.714 452> 1251 192<97.2402 271.144 422.24 598.324>
VStem: 81 206<1268.74 1425.53> 259 203<141 889> 406 209<1270.09 1424.21>
LayerCount: 2
Fore
SplineSet
508 1443 m 0xe4
 562 1443 615 1405 615 1349 c 0
 615 1289 562 1251 508 1251 c 0
 456 1251 406 1289 406 1349 c 0
 406 1407 458 1443 508 1443 c 0xe4
183 1443 m 0
 237 1443 287 1405 287 1349 c 0
 287 1289 237 1251 183 1251 c 0
 131 1251 81 1289 81 1349 c 0xf0
 81 1407 133 1443 183 1443 c 0
74 96 m 1
 259 141 l 1
 259 889 l 1
 74 956 l 1
 90 1048 l 1
 432 1076 l 1
 462 1046 l 1
 462 141 l 1xe8
 657 98 l 1
 643 0 l 1
 60 0 l 1
 74 96 l 1
EndSplineSet
Validated: 1
EndChar

StartChar: igrave
Encoding: 496 236 240
Width: 696
VWidth: 0
Flags: HW
HStem: 0 96<74 132.937 594.877 643> 1056 20G<187.714 452>
VStem: 259 203<141 889>
LayerCount: 2
Fore
SplineSet
87 1570 m 1
 227 1616 l 1
 388 1210 l 1
 318 1168 l 1
 87 1570 l 1
74 96 m 1
 259 141 l 1
 259 889 l 1
 74 956 l 1
 90 1048 l 1
 432 1076 l 1
 462 1046 l 1
 462 141 l 1
 657 98 l 1
 643 0 l 1
 60 0 l 1
 74 96 l 1
EndSplineSet
Validated: 1
EndChar

StartChar: imacron
Encoding: 497 299 241
Width: 696
VWidth: 0
Flags: HW
HStem: 0 96<74 132.937 594.877 643> 1056 20G<187.714 452> 1265 122<89 609>
VStem: 259 203<141 889>
LayerCount: 2
Fore
SplineSet
89 1387 m 1
 625 1387 l 1
 609 1265 l 1
 73 1265 l 1
 89 1387 l 1
74 96 m 1
 259 141 l 1
 259 889 l 1
 74 956 l 1
 90 1048 l 1
 432 1076 l 1
 462 1046 l 1
 462 141 l 1
 657 98 l 1
 643 0 l 1
 60 0 l 1
 74 96 l 1
EndSplineSet
Validated: 1
EndChar

StartChar: infinity
Encoding: 498 8734 242
Width: 1694
VWidth: 0
Flags: HW
HStem: 247 193<295.317 602.674 1130.24 1344.27> 877 185<295.517 533.972 1068.57 1335.65>
VStem: 72 109<544.073 800.134> 1480 100<516.107 754.473>
LayerCount: 2
Fore
SplineSet
414 877 m 0
 257 877 181 788 181 657 c 0
 181 533 319 440 458 440 c 0
 582 440 715 500 765 564 c 1
 645 737 538 877 414 877 c 0
72 604 m 0
 72 873 251 1062 464 1062 c 0
 609 1062 725 1002 835 823 c 1
 847 825 l 1
 961 978 1088 1056 1241 1056 c 0
 1438 1056 1580 900 1580 671 c 0
 1580 442 1392 249 1169 249 c 0
 994 249 881 384 817 494 c 1
 807 494 l 1
 697 319 563 247 432 247 c 0
 207 247 72 389 72 604 c 0
1285 440 m 0
 1393 440 1480 534 1480 638 c 0
 1480 775 1334 863 1193 863 c 0
 1024 863 947 793 889 739 c 1
 995 552 1142 440 1285 440 c 0
EndSplineSet
Validated: 1
EndChar

StartChar: integral
Encoding: 499 8747 243
Width: 1168
VWidth: 0
Flags: HW
HStem: -468 129<214.852 401.57> 1458 128<778.734 953.648>
VStem: 480 205<-134.847 1217.5>
LayerCount: 2
Fore
SplineSet
480 -74 m 1
 486 956 l 2
 489 1416 769 1586 942 1586 c 0
 1071 1586 1169 1544 1169 1446 c 0
 1169 1386 1100 1325 1060 1309 c 1
 1012 1369 923 1458 847 1458 c 0
 757 1458 695 1402 687 1193 c 1
 685 143 l 2
 684 -325 400 -468 227 -468 c 0
 98 -468 0 -425 0 -327 c 1
 2 -267 68 -207 108 -191 c 1
 156 -251 245 -339 321 -339 c 0
 411 -339 474 -283 480 -74 c 1
EndSplineSet
Validated: 1
EndChar

StartChar: iogonek
Encoding: 500 303 244
Width: 696
VWidth: 0
Flags: HW
HStem: -470 62<665.609 675.711> 0 96<74 132.937 604.266 643> 1056 20G<187.714 452> 1236 288<242.5 447.5>
VStem: 199 293<1280.75 1482.42> 259 203<141 889> 377 180<-314.166 -126.165>
LayerCount: 2
Fore
SplineSet
557 -181 m 0xf2
 557 -257 598 -344 708 -408 c 1
 666 -470 l 1
 491 -452 377 -357 377 -253 c 0xf2
 377 -190 397 -126 540 0 c 1
 60 0 l 1
 74 96 l 1
 259 141 l 1
 259 889 l 1
 74 956 l 1
 90 1048 l 1
 432 1076 l 1
 462 1046 l 1
 462 141 l 1xf4
 657 98 l 1
 643 0 l 1
 630 -0 l 1
 560 -115 557 -159 557 -181 c 0xf2
343 1524 m 0
 423 1524 492 1463 492 1385 c 0
 492 1303 423 1236 343 1236 c 0
 263 1236 199 1305 199 1387 c 0xf8
 199 1465 267 1524 343 1524 c 0
EndSplineSet
Validated: 1
EndChar

StartChar: j
Encoding: 501 106 245
Width: 560
VWidth: 0
Flags: HW
HStem: -466 21G<-11.215 36> 1058 20G<122.231 403.667> 1293 297<196.788 404.25>
VStem: 151 297<1338.75 1546.31> 209 205<-68.2892 889>
LayerCount: 2
Fore
SplineSet
209 209 m 2xe8
 209 889 l 1
 26 956 l 1
 44 1052 l 1
 383 1078 l 1
 414 1048 l 1
 414 183 l 2
 414 -160 239 -333 54 -436 c 2
 0 -466 l 1
 -60 -359 l 1
 71 -261 209 -120 209 209 c 2xe8
448 1444 m 0xf0
 448 1362 381 1293 299 1293 c 0
 217 1293 151 1364 151 1446 c 0
 151 1528 219 1590 301 1590 c 0
 381 1590 448 1524 448 1444 c 0xf0
EndSplineSet
Validated: 1
EndChar

StartChar: k
Encoding: 502 107 246
Width: 1200
VWidth: 0
Flags: HW
HStem: -24 21G<969.5 1077> 0 96<54 104.715 582.818 622 1161 1195> 994 92<638 664.215 1091.23 1138> 1512 20G<162 432>
VStem: 239 203<141 1347>
DStem2: 472 550 669 592 0.624453 0.781062<155.822 504.441> 669 592 472 526 0.585992 -0.810317<0 587.555>
LayerCount: 2
Fore
SplineSet
472 550 m 1
 787 944 l 1
 624 994 l 1
 638 1086 l 1
 1155 1086 l 1
 1138 996 l 1
 956 946 l 1
 669 592 l 1
 765 470 l 2
 944 243 1008 120 1161 100 c 2
 1209 94 l 1
 1195 0 l 1
 1177 -6 1104 -24 1050 -24 c 0
 889 -24 799 80 600 349 c 1
 472 526 l 1
 472 550 l 1
54 96 m 1
 239 141 l 1
 239 1347 l 1
 48 1412 l 1
 62 1504 l 1
 412 1532 l 1
 442 1502 l 1
 442 1432 l 1
 442 141 l 1
 636 98 l 1
 622 0 l 1
 40 0 l 1
 54 96 l 1
EndSplineSet
Validated: 1
EndChar

StartChar: kaf-hb
Encoding: 503 1499 247
Width: 1084
VWidth: 0
Flags: HW
HStem: -16 21G<112.667 538.059> 18 197<531.22 809.464>
VStem: 906 110<323.433 712.273>
DStem2: 271 1092 143 893 0.994159 -0.107925<0 564.665>
LayerCount: 2
Fore
SplineSet
131 -16 m 1
 98 20 l 1
 139 181 l 1
 689 215 l 1
 797 219 906 305 906 508 c 0
 906 713 831 818 622 841 c 2
 143 893 l 1
 112 938 l 1
 131 1209 l 1
 219 1221 l 1
 271 1092 l 1
 665 1048 l 2
 904 1021 1016 863 1016 570 c 0
 1016 301 952 128 823 18 c 1
 131 -16 l 1
EndSplineSet
Validated: 513
EndChar

StartChar: kaf-hb.fina
Encoding: 504 -1 248
Width: 959
VWidth: 0
Flags: HW
HStem: -464 21G<705.667 851> 875 195<163 707 789.656 847>
VStem: 691 140<-434 268.068> 707 80<573.932 860>
LayerCount: 2
Fore
SplineSet
849 1070 m 1xd0
 881 1032 l 1
 847 875 l 1
 787 860 l 1xd0
 831 -18 l 2
 835 -106 839 -348 851 -444 c 1
 735 -464 l 1
 691 -434 l 1xe0
 707 875 l 1
 42 875 l 1
 10 912 l 1
 30 1187 l 1
 120 1199 l 1
 163 1070 l 1
 849 1070 l 1xd0
EndSplineSet
Validated: 513
EndChar

StartChar: kcommaaccent
Encoding: 505 311 249
Width: 1200
VWidth: 0
Flags: HW
HStem: -474 65<546.148 598.14> -24 21G<969.5 1077> 0 96<54 104.715 582.818 622 1161 1195> 994 92<638 664.215 1091.23 1138> 1512 20G<162 432>
VStem: 239 203<141 1347> 642 134<-368.775 -235.05>
DStem2: 472 550 669 592 0.624453 0.781062<155.822 504.441> 669 592 472 526 0.585992 -0.810317<0 587.555>
LayerCount: 2
Fore
SplineSet
653 -103 m 0
 701 -103 776 -139 776 -247 c 0
 776 -313 731 -431 551 -474 c 1
 529 -409 l 1
 615 -388 642 -344 642 -300 c 0
 642 -260 572 -207 545 -204 c 1
 556 -152 595 -103 653 -103 c 0
472 550 m 1
 787 944 l 1
 624 994 l 1
 638 1086 l 1
 1155 1086 l 1
 1138 996 l 1
 956 946 l 1
 669 592 l 1
 765 470 l 2
 944 243 1008 120 1161 100 c 2
 1209 94 l 1
 1195 0 l 1
 1177 -6 1104 -24 1050 -24 c 0
 889 -24 799 80 600 349 c 1
 472 526 l 1
 472 550 l 1
54 96 m 1
 239 141 l 1
 239 1347 l 1
 48 1412 l 1
 62 1504 l 1
 412 1532 l 1
 442 1502 l 1
 442 1432 l 1
 442 141 l 1
 636 98 l 1
 622 0 l 1
 40 0 l 1
 54 96 l 1
EndSplineSet
Validated: 1
EndChar

StartChar: l
Encoding: 506 108 250
Width: 676
VWidth: 0
Flags: HW
HStem: 0 96<54 112.937 574.196 622> 1524 20G<162 432>
VStem: 239 203<141 1359>
LayerCount: 2
Fore
SplineSet
442 141 m 1
 636 98 l 1
 622 0 l 1
 40 0 l 1
 54 96 l 1
 239 141 l 1
 239 1359 l 1
 48 1424 l 1
 62 1516 l 1
 412 1544 l 1
 442 1514 l 1
 442 141 l 1
EndSplineSet
Validated: 1
EndChar

StartChar: lacute
Encoding: 507 314 251
Width: 676
VWidth: 0
Flags: HW
HStem: 0 96<54 112.937 574.196 622> 1524 20G<162 432>
VStem: 239 203<141 1359>
LayerCount: 2
Fore
SplineSet
508 2032 m 1
 285 1646 l 1
 223 1685 l 1
 372 2080 l 1
 508 2032 l 1
442 141 m 1
 636 98 l 1
 622 0 l 1
 40 0 l 1
 54 96 l 1
 239 141 l 1
 239 1359 l 1
 48 1424 l 1
 62 1516 l 1
 412 1544 l 1
 442 1514 l 1
 442 141 l 1
EndSplineSet
Validated: 1
EndChar

StartChar: lamed-hb
Encoding: 508 1500 252
Width: 1084
VWidth: 0
Flags: HW
HStem: -20 21G<328.5 523.906> 879 195<249 846.186> 1405 193<227 321>
VStem: 135 210<1405 1570> 885 111<552.083 842.028>
LayerCount: 2
Fore
SplineSet
506 -20 m 1
 293 4 l 1
 269 36 l 1
 422 145 l 2
 605 276 885 494 885 697 c 0
 885 848 840 879 667 879 c 2
 147 879 l 1
 116 924 l 1
 135 1596 l 1
 321 1598 l 1
 353 1570 l 1
 345 1405 l 1
 227 1395 l 1
 249 1074 l 1
 743 1074 l 2
 958 1074 996 992 996 759 c 0
 996 490 796 304 677 171 c 2
 506 -20 l 1
EndSplineSet
Validated: 513
EndChar

StartChar: lcaron
Encoding: 509 318 253
Width: 874
VWidth: 0
Flags: HW
HStem: 0 96<54 112.937 574.196 622> 912 84<507.221 581.788> 1337 221<553.169 671.154> 1524 20G<162 432>
VStem: 239 203<141 1359> 705 167<1124.71 1396.5>
LayerCount: 2
Fore
SplineSet
484 996 m 1xec
 643 1038 705 1129 705 1207 c 0
 705 1275 650 1337 564 1337 c 0
 552 1337 540 1337 528 1335 c 1
 518 1361 510 1383 510 1411 c 0
 510 1509 597 1558 659 1558 c 0
 743 1558 872 1488 872 1305 c 0
 872 1191 831 996 512 912 c 1
 484 996 l 1xec
442 141 m 1
 636 98 l 1
 622 0 l 1
 40 0 l 1
 54 96 l 1
 239 141 l 1
 239 1359 l 1
 48 1424 l 1
 62 1516 l 1
 412 1544 l 1xdc
 442 1514 l 1
 442 141 l 1
EndSplineSet
Validated: 1
EndChar

StartChar: lcommaaccent
Encoding: 510 316 254
Width: 676
VWidth: 0
Flags: HW
HStem: -474 65<225.148 277.14> 0 96<54 112.937 574.196 622> 1524 20G<162 432>
VStem: 239 203<141 1359> 321 134<-368.775 -235.05>
LayerCount: 2
Fore
SplineSet
332 -103 m 0xe8
 380 -103 455 -139 455 -247 c 0
 455 -313 410 -431 230 -474 c 1
 208 -409 l 1
 294 -388 321 -344 321 -300 c 0
 321 -260 251 -207 224 -204 c 1
 235 -152 274 -103 332 -103 c 0xe8
442 141 m 1xf0
 636 98 l 1
 622 0 l 1
 40 0 l 1
 54 96 l 1
 239 141 l 1
 239 1359 l 1
 48 1424 l 1
 62 1516 l 1
 412 1544 l 1
 442 1514 l 1
 442 141 l 1xf0
EndSplineSet
Validated: 1
EndChar

StartChar: less
Encoding: 511 60 255
Width: 831
VWidth: 0
Flags: HW
LayerCount: 2
Fore
SplineSet
34 520 m 1
 36 554 l 1
 692 1183 l 1
 761 1096 l 1
 321 552 l 1
 785 -16 l 1
 709 -100 l 1
 34 520 l 1
EndSplineSet
Validated: 1
EndChar

StartChar: lessequal
Encoding: 512 8804 256
Width: 871
VWidth: 0
Flags: HW
HStem: -325 126<88 811>
LayerCount: 2
Fore
SplineSet
40 520 m 1
 42 554 l 1
 698 1183 l 1
 767 1096 l 1
 327 552 l 1
 791 -16 l 1
 715 -100 l 1
 40 520 l 1
88 -199 m 1
 831 -191 l 1
 811 -317 l 1
 68 -325 l 1
 88 -199 l 1
EndSplineSet
Validated: 1
EndChar

StartChar: logicalnot
Encoding: 513 172 257
Width: 1162
VWidth: 0
Flags: HW
HStem: 679 128<114 893>
VStem: 893 129<426 679>
LayerCount: 2
Fore
SplineSet
114 807 m 1
 1020 807 l 1
 1022 426 l 1
 893 404 l 1
 893 679 l 1
 100 679 l 1
 114 807 l 1
EndSplineSet
Validated: 1
EndChar

StartChar: lozenge
Encoding: 514 9674 258
Width: 1148
VWidth: 0
Flags: HW
LayerCount: 2
Fore
SplineSet
968 574 m 1
 576 165 l 1
 181 576 l 1
 574 972 l 1
 968 574 l 1
EndSplineSet
Validated: 1
EndChar

StartChar: lslash
Encoding: 515 322 259
Width: 676
VWidth: 0
Flags: HW
HStem: 0 96<54 112.937 574.196 622> 1060 20G<559.088 591.872> 1524 20G<162 432>
VStem: 239 203<141 677 802 841 966 1359>
DStem2: 59 657 97 562 0.778693 0.627405<0 152.713 492.108 644.042>
LayerCount: 2
Fore
SplineSet
442 141 m 1
 636 98 l 1
 622 0 l 1
 40 0 l 1
 54 96 l 1
 239 141 l 1
 239 677 l 1
 97 562 l 1
 59 657 l 1
 239 802 l 1
 239 1359 l 1
 48 1424 l 1
 62 1516 l 1
 412 1544 l 1
 442 1514 l 1
 442 966 l 1
 584 1080 l 1
 621 986 l 1
 442 841 l 1
 442 141 l 1
EndSplineSet
Validated: 1
EndChar

StartChar: m
Encoding: 516 109 260
Width: 1945
VWidth: 0
Flags: HW
HStem: 0 90<68 121.541 579.093 618 745 791.519 1230.04 1271 1387 1431.18 1863.78 1895> 924 166<634.25 827.352 1295.85 1465> 936 92<68 101.828>
VStem: 251 205<139 859.913> 904 198<139 847.219> 1538 205<141 849.727>
LayerCount: 2
Fore
SplineSet
1082 889 m 1xdc
 1096 889 l 1
 1174 989 1303 1080 1456 1080 c 0
 1659 1080 1743 952 1743 741 c 2
 1743 141 l 1
 1911 98 l 1
 1895 2 l 1
 1377 2 l 1
 1387 90 l 1
 1538 139 l 1
 1538 711 l 2
 1538 827 1466 924 1335 924 c 0
 1227 924 1158 863 1102 803 c 1
 1102 139 l 1
 1283 96 l 1
 1271 0 l 1
 731 0 l 1
 745 90 l 1
 904 139 l 1
 904 711 l 2
 904 840 813 924 697 924 c 0xdc
 607 924 518 889 456 819 c 1
 456 139 l 1
 630 96 l 1
 618 0 l 1
 56 0 l 1
 68 90 l 1
 251 139 l 1
 251 875 l 1
 56 936 l 1
 68 1028 l 1xbc
 438 1078 l 1
 460 1054 l 1
 438 900 l 1
 450 900 l 1
 528 996 662 1090 815 1090 c 0
 925 1090 1044 1038 1082 889 c 1xdc
EndSplineSet
Validated: 1
EndChar

StartChar: macron
Encoding: 517 175 261
Width: 853
VWidth: 0
Flags: HW
HStem: 1677 122<167 687>
VStem: 151 552
LayerCount: 2
Fore
SplineSet
167 1799 m 1
 703 1799 l 1
 687 1677 l 1
 151 1677 l 1
 167 1799 l 1
EndSplineSet
Validated: 1
EndChar

StartChar: mem-hb
Encoding: 518 1502 262
Width: 1017
VWidth: 0
Flags: HW
HStem: -12 197<422 728.675> 8 195<538.325 859.713> 871 207<523.794 702.903>
VStem: 96 147<10 438.877> 873 111<250.446 690.539>
LayerCount: 2
Fore
SplineSet
129 1120 m 1x78
 258 1044 323 913 349 855 c 1
 349 855 495 1078 638 1078 c 0
 881 1078 978 811 984 562 c 1
 984 339 899 88 853 8 c 1x78
 414 -12 l 1
 381 14 l 1
 422 185 l 1xb8
 849 203 l 1
 863 235 869 314 873 388 c 2
 879 512 l 1
 871 679 749 871 562 871 c 0
 309 871 243 558 243 305 c 0
 243 187 245 96 257 0 c 1
 141 -20 l 1
 96 10 l 1
 100 289 132 554 269 755 c 1
 88 904 l 1
 96 1096 l 1
 129 1120 l 1x78
EndSplineSet
Validated: 513
EndChar

StartChar: mem-hb.fina
Encoding: 519 -1 263
Width: 1015
VWidth: 0
Flags: HW
HStem: 0 197<271.156 871.281> 875 195<311.137 868.404>
VStem: 135 114<201.181 758.461> 143 90<1154.97 1187> 883 97<205.323 863.842>
LayerCount: 2
Fore
SplineSet
980 233 m 2xd8
 980 28 899 0 839 0 c 2
 181 0 l 1
 149 36 l 1
 149 36 135 510 135 606 c 0xe8
 135 662 161 781 269 855 c 1
 269 871 l 1
 153 871 l 1
 131 893 l 1
 143 1187 l 1
 233 1199 l 1
 275 1070 l 1
 849 1070 l 2
 935 1070 980 1014 980 831 c 2
 980 233 l 2xd8
279 197 m 1
 859 197 l 1
 872 227 883 303 883 363 c 2
 883 377 l 1
 875 781 l 2
 873 859 851 875 807 875 c 2
 351 875 l 1
 269 795 249 715 249 643 c 0
 249 450 259 285 279 197 c 1
EndSplineSet
Validated: 513
EndChar

StartChar: minus
Encoding: 520 8722 264
Width: 963
VWidth: 0
Flags: HW
HStem: 498 126<120 843>
LayerCount: 2
Fore
SplineSet
120 624 m 1
 863 632 l 1
 843 506 l 1
 100 498 l 1
 120 624 l 1
EndSplineSet
Validated: 1
EndChar

StartChar: mu
Encoding: 521 956 265
Width: 1252
VWidth: 0
Flags: HW
HStem: -30 159<427.926 644.906> -8 102<1148 1193> 940 110<632 674.814> 1064 20G<119.462 390.333 779.412 1007.33>
VStem: 163 162<-440 -232.198> 195 205<207.928 895> 815 201<137.694 157 195.312 889>
LayerCount: 2
Fore
SplineSet
195 600 m 2xb6
 195 895 l 1
 28 962 l 1
 44 1058 l 1
 371 1084 l 1
 400 1054 l 1
 400 383 l 2
 400 200 478 129 588 129 c 0xb6
 698 129 753 181 815 229 c 1
 815 889 l 1
 620 940 l 1
 632 1050 l 1
 990 1084 l 1
 1016 1054 l 1
 1016 259 l 2
 1016 130 1068 124 1148 106 c 2
 1203 94 l 1
 1193 -8 l 1x76
 1117 -26 1080 -30 1008 -30 c 0
 886 -30 829 47 829 147 c 2
 829 157 l 1
 815 157 l 1
 705 35 603 -30 466 -30 c 0
 390 -30 333 -4 295 46 c 1
 285 46 l 1
 289 24 297 -26 303 -104 c 1
 325 -472 l 1
 163 -440 l 1xba
 165 -408 195 245 195 600 c 2xb6
EndSplineSet
Validated: 1
EndChar

StartChar: multiply
Encoding: 522 215 266
Width: 692
VWidth: 0
Flags: HW
HStem: 277 564
VStem: 64 568
DStem2: 165 833 64 753 0.705604 -0.708606<0 254.126 391.736 651.519> 64 377 145 277 0.724703 0.689062<0 264.445 397.28 661.071>
LayerCount: 2
Fore
SplineSet
345 472 m 1
 145 277 l 1
 64 377 l 1
 253 562 l 1
 64 753 l 1
 165 833 l 1
 351 647 l 1
 552 841 l 1
 632 739 l 1
 442 556 l 1
 634 361 l 1
 534 281 l 1
 345 472 l 1
EndSplineSet
Validated: 1
EndChar

StartChar: n
Encoding: 523 110 267
Width: 1321
VWidth: 0
Flags: HW
HStem: 0 88<68 119.441 585.402 620 739 785.943 1235.81 1273> 926 166<635.035 834.569>
VStem: 251 205<139 861.112> 906 204<139 852.648>
LayerCount: 2
Fore
SplineSet
1110 749 m 2
 1110 139 l 1
 1285 96 l 1
 1273 0 l 1
 725 0 l 1
 739 88 l 1
 906 139 l 1
 906 701 l 2
 906 858 815 926 695 926 c 0
 607 926 518 889 456 821 c 1
 456 139 l 1
 636 96 l 1
 620 0 l 1
 56 0 l 1
 68 88 l 1
 251 139 l 1
 251 877 l 1
 64 940 l 1
 76 1032 l 1
 438 1080 l 1
 460 1056 l 1
 438 902 l 1
 450 902 l 1
 532 1000 664 1092 817 1092 c 0
 1008 1092 1110 966 1110 749 c 2
EndSplineSet
Validated: 1
EndChar

StartChar: nacute
Encoding: 524 324 268
Width: 1321
VWidth: 0
Flags: HW
HStem: 0 88<68 119.441 585.402 620 739 785.943 1235.81 1273> 926 166<635.035 834.569>
VStem: 251 205<139 861.112> 906 204<139 852.648>
LayerCount: 2
Fore
SplineSet
849 1584 m 1
 626 1198 l 1
 564 1237 l 1
 713 1632 l 1
 849 1584 l 1
1110 749 m 2
 1110 139 l 1
 1285 96 l 1
 1273 0 l 1
 725 0 l 1
 739 88 l 1
 906 139 l 1
 906 701 l 2
 906 858 815 926 695 926 c 0
 607 926 518 889 456 821 c 1
 456 139 l 1
 636 96 l 1
 620 0 l 1
 56 0 l 1
 68 88 l 1
 251 139 l 1
 251 877 l 1
 64 940 l 1
 76 1032 l 1
 438 1080 l 1
 460 1056 l 1
 438 902 l 1
 450 902 l 1
 532 1000 664 1092 817 1092 c 0
 1008 1092 1110 966 1110 749 c 2
EndSplineSet
Validated: 1
EndChar

StartChar: ncaron
Encoding: 526 328 270
Width: 1321
VWidth: 0
Flags: HW
HStem: 0 88<68 119.441 585.402 620 739 785.943 1235.81 1273> 926 166<635.035 834.569>
VStem: 251 205<139 861.112> 906 204<139 852.648>
DStem2: 502 1484 404 1409 0.735191 -0.67786<0 251.695> 695 1309 689 1225 0.692049 0.72185<0 227.244>
LayerCount: 2
Fore
SplineSet
622 1208 m 1
 404 1409 l 1
 502 1484 l 1
 683 1309 l 1
 695 1309 l 1
 845 1480 l 1
 898 1443 l 1
 689 1225 l 1
 622 1208 l 1
1110 749 m 2
 1110 139 l 1
 1285 96 l 1
 1273 0 l 1
 725 0 l 1
 739 88 l 1
 906 139 l 1
 906 701 l 2
 906 858 815 926 695 926 c 0
 607 926 518 889 456 821 c 1
 456 139 l 1
 636 96 l 1
 620 0 l 1
 56 0 l 1
 68 88 l 1
 251 139 l 1
 251 877 l 1
 64 940 l 1
 76 1032 l 1
 438 1080 l 1
 460 1056 l 1
 438 902 l 1
 450 902 l 1
 532 1000 664 1092 817 1092 c 0
 1008 1092 1110 966 1110 749 c 2
EndSplineSet
Validated: 1
EndChar

StartChar: ncommaaccent
Encoding: 527 326 271
Width: 1321
VWidth: 0
Flags: HW
HStem: -474 65<547.148 599.14> 0 88<68 119.441 585.402 620 739 785.943 1235.81 1273> 926 166<635.035 834.569>
VStem: 251 205<139 861.112> 643 134<-368.775 -235.05> 906 204<139 852.648>
LayerCount: 2
Fore
SplineSet
654 -103 m 0
 702 -103 777 -139 777 -247 c 0
 777 -313 732 -431 552 -474 c 1
 530 -409 l 1
 616 -388 643 -344 643 -300 c 0
 643 -260 573 -207 546 -204 c 1
 557 -152 596 -103 654 -103 c 0
1110 749 m 2
 1110 139 l 1
 1285 96 l 1
 1273 0 l 1
 725 0 l 1
 739 88 l 1
 906 139 l 1
 906 701 l 2
 906 858 815 926 695 926 c 0
 607 926 518 889 456 821 c 1
 456 139 l 1
 636 96 l 1
 620 0 l 1
 56 0 l 1
 68 88 l 1
 251 139 l 1
 251 877 l 1
 64 940 l 1
 76 1032 l 1
 438 1080 l 1
 460 1056 l 1
 438 902 l 1
 450 902 l 1
 532 1000 664 1092 817 1092 c 0
 1008 1092 1110 966 1110 749 c 2
EndSplineSet
Validated: 1
EndChar

StartChar: nine
Encoding: 528 57 272
Width: 1222
VWidth: 0
Flags: HW
HStem: -32 90<332.54 420.865> 568 131<482.785 720.074> 1373 99<460.422 722.319>
VStem: 145 204<845.816 1171.06> 867 217<789.879 1182.15>
LayerCount: 2
Fore
SplineSet
851 699 m 1
 835 699 l 1
 775 617 636 568 530 568 c 0
 293 568 145 755 145 976 c 0
 145 1249 389 1472 622 1472 c 0
 941 1472 1084 1213 1084 928 c 0
 1084 442 795 48 337 -32 c 1
 309 58 l 1
 707 176 827 402 851 699 c 1
614 1373 m 0
 433 1373 349 1245 349 1028 c 0
 349 863 445 699 618 699 c 0
 702 699 817 743 855 805 c 1
 865 861 867 930 867 980 c 0
 867 1179 755 1373 614 1373 c 0
EndSplineSet
Validated: 1
EndChar

StartChar: nine.osf
Encoding: 529 -1 273
Width: 993
VWidth: 0
Flags: HW
HStem: -313 90<194.54 254.922> 279 131<347.417 564.156> 1054 99<354.707 579.895>
VStem: 40 213<519.512 885.34> 697 217<499.853 890.038>
LayerCount: 2
Fore
SplineSet
681 410 m 1
 665 410 l 1
 605 328 498 279 392 279 c 0
 155 279 40 476 40 697 c 0
 40 946 251 1153 484 1153 c 0
 803 1153 914 899 914 614 c 0
 914 206 601 -184 199 -313 c 1
 171 -223 l 1
 526 -72 633 169 681 410 c 1
474 1054 m 0
 327 1054 253 916 253 729 c 0
 253 564 307 410 480 410 c 0
 564 410 649 454 687 516 c 1
 697 572 697 617 697 667 c 0
 697 866 615 1054 474 1054 c 0
EndSplineSet
Validated: 1
EndChar

StartChar: notequal
Encoding: 530 8800 274
Width: 965
VWidth: 0
Flags: HW
HStem: 388 128<114 283 504 847> 679 128<118 509 733 851>
DStem2: 120 155 280 160 0.572102 0.820182<95.6373 284.355 515.773 652.323 885.458 987.585>
LayerCount: 2
Fore
SplineSet
440 388 m 1
 280 160 l 1
 120 155 l 1
 283 388 l 1
 100 388 l 1
 114 516 l 1
 387 516 l 1
 509 679 l 1
 104 679 l 1
 118 807 l 1
 575 807 l 1
 685 965 l 1
 845 968 l 1
 733 807 l 1
 865 807 l 1
 851 679 l 1
 626 679 l 1
 504 516 l 1
 861 516 l 1
 847 388 l 1
 440 388 l 1
EndSplineSet
Validated: 1
EndChar

StartChar: ntilde
Encoding: 531 241 275
Width: 1321
VWidth: 0
Flags: HW
HStem: 0 88<68 119.441 585.402 620 739 785.943 1235.81 1273> 926 166<635.035 834.569> 1244 127<705.082 876.083> 1283 125<440.662 602.238>
VStem: 251 205<139 861.112> 906 204<139 852.648>
DStem2: 542 1407 500 1283 0.990312 -0.138863<-15.751 264.039>
LayerCount: 2
Fore
SplineSet
378 1235 m 1xdc
 378 1235 418 1408 526 1408 c 0xdc
 531 1408 537 1408 542 1407 c 2
 813 1371 l 1
 818 1371 l 2
 849 1371 886 1421 886 1421 c 1
 944 1419 l 1
 944 1419 899 1244 786 1244 c 0xec
 781 1244 776 1244 771 1245 c 2
 500 1283 l 1
 497 1283 l 2
 462 1283 424 1225 424 1225 c 1
 378 1235 l 1xdc
1110 749 m 2
 1110 139 l 1
 1285 96 l 1
 1273 0 l 1
 725 0 l 1
 739 88 l 1
 906 139 l 1
 906 701 l 2
 906 858 815 926 695 926 c 0
 607 926 518 889 456 821 c 1
 456 139 l 1
 636 96 l 1
 620 0 l 1
 56 0 l 1
 68 88 l 1
 251 139 l 1
 251 877 l 1
 64 940 l 1
 76 1032 l 1
 438 1080 l 1
 460 1056 l 1
 438 902 l 1
 450 902 l 1
 532 1000 664 1092 817 1092 c 0
 1008 1092 1110 966 1110 749 c 2
EndSplineSet
Validated: 1
EndChar

StartChar: numbersign
Encoding: 532 35 276
Width: 1142
VWidth: 0
Flags: HW
HStem: 442 122<106 281 428 655 801 968> 821 123<173 341 486 715 859 1036>
DStem2: 249 207 377 217 0.150574 0.988599<29.1595 237.139 379.883 620.852 764.283 961.604> 622 207 751 217 0.152917 0.988239<29.6087 237.282 380.173 621 764.573 961.306>
LayerCount: 2
Fore
SplineSet
408 442 m 1
 377 217 l 1
 249 207 l 1
 281 442 l 1
 76 442 l 1
 106 564 l 1
 303 564 l 1
 341 821 l 1
 145 821 l 1
 173 944 l 1
 361 944 l 1
 398 1157 l 1
 522 1169 l 1
 486 944 l 1
 735 944 l 1
 769 1157 l 1
 893 1167 l 1
 859 944 l 1
 1064 944 l 1
 1036 821 l 1
 839 821 l 1
 801 564 l 1
 996 564 l 1
 968 442 l 1
 779 442 l 1
 751 217 l 1
 622 207 l 1
 655 442 l 1
 408 442 l 1
428 564 m 1
 675 564 l 1
 715 821 l 1
 466 821 l 1
 428 564 l 1
EndSplineSet
Validated: 1
EndChar

StartChar: nun-hb
Encoding: 533 1504 277
Width: 562
VWidth: 0
Flags: HW
HStem: 0 197<100 294.146>
VStem: 305 137<208.127 541.43> 305 96<209.777 841.763> 329 86<607.496 827.222>
LayerCount: 2
Fore
SplineSet
329 741 m 1x90
 329 751 l 2
 329 809 279 840 233 851 c 1
 124 881 l 1
 100 910 l 1
 124 1155 l 1
 195 1161 l 1
 233 1060 l 1
 315 1034 l 2
 374 1015 415 986 415 851 c 0x90
 415 839 415 826 414 813 c 2
 402 582 l 2
 401 571 401 559 401 548 c 0xa0
 401 408 442 257 442 161 c 0
 442 91 440 58 406 0 c 1
 92 0 l 1
 60 36 l 1
 100 197 l 1
 217 197 l 2
 259 197 305 225 305 287 c 2
 305 486 l 2xc0
 305 528 307 552 313 592 c 1
 329 741 l 1x90
EndSplineSet
Validated: 513
EndChar

StartChar: o
Encoding: 534 111 278
Width: 1164
VWidth: 0
Flags: HW
HStem: -32 118<475.06 743.306> 970 128<419.341 689.969>
VStem: 76 217<322.296 761.059> 869 217<292.677 723.719>
LayerCount: 2
Fore
SplineSet
293 604 m 0
 293 353 379 86 618 86 c 0
 789 86 869 265 869 436 c 0
 869 677 785 970 554 970 c 0
 371 970 293 795 293 604 c 0
1086 536 m 0
 1086 197 859 -32 576 -32 c 0
 255 -32 76 205 76 518 c 0
 76 887 335 1098 606 1098 c 0
 905 1098 1086 871 1086 536 c 0
EndSplineSet
Validated: 1
EndChar

StartChar: oacute
Encoding: 535 243 279
Width: 1164
VWidth: 0
Flags: HW
HStem: -32 118<475.06 743.306> 970 128<419.341 689.969>
VStem: 76 217<322.296 761.059> 869 217<292.677 723.719>
LayerCount: 2
Fore
SplineSet
771 1584 m 1
 548 1198 l 1
 486 1237 l 1
 635 1632 l 1
 771 1584 l 1
293 604 m 0
 293 353 379 86 618 86 c 0
 789 86 869 265 869 436 c 0
 869 677 785 970 554 970 c 0
 371 970 293 795 293 604 c 0
1086 536 m 0
 1086 197 859 -32 576 -32 c 0
 255 -32 76 205 76 518 c 0
 76 887 335 1098 606 1098 c 0
 905 1098 1086 871 1086 536 c 0
EndSplineSet
Validated: 1
EndChar

